<svg width="99" height="16" viewBox="0 0 99 16" fill="none" xmlns="http://www.w3.org/2000/svg">
<path d="M8.78581 0.263541L10.92 5.31475L16.3837 5.78413C16.7627 5.81685 16.9168 6.28968 16.6292 6.53858L12.4849 10.1291L13.7268 15.4706C13.8129 15.8418 13.4107 16.1337 13.0851 15.9365L8.38964 13.1047L3.69413 15.9365C3.36771 16.1329 2.96637 15.8409 3.0525 15.4706L4.29441 10.1291L0.149238 6.53772C-0.138418 6.28882 0.0148838 5.81599 0.394693 5.78326L5.85844 5.31389L7.9926 0.263541C8.14074 -0.0878471 8.63768 -0.0878471 8.78581 0.263541Z" fill="#ECC80F"/>
<path d="M29.2955 0.263541L31.4296 5.31475L36.8934 5.78413C37.2723 5.81685 37.4265 6.28968 37.1388 6.53858L32.9945 10.1291L34.2364 15.4706C34.3225 15.8418 33.9203 16.1337 33.5948 15.9365L28.8993 13.1047L24.2038 15.9365C23.8774 16.1329 23.476 15.8409 23.5621 15.4706L24.8041 10.1291L20.6589 6.53772C20.3712 6.28882 20.5245 5.81599 20.9043 5.78326L26.3681 5.31389L28.5022 0.263541C28.6504 -0.0878471 29.1473 -0.0878471 29.2955 0.263541Z" fill="#ECC80F"/>
<path d="M49.805 0.263541L51.9392 5.31475L57.4029 5.78413C57.7819 5.81685 57.9361 6.28968 57.6484 6.53858L53.5041 10.1291L54.746 15.4706C54.8321 15.8418 54.4299 16.1337 54.1044 15.9365L49.4089 13.1047L44.7134 15.9365C44.3869 16.1329 43.9856 15.8409 44.0717 15.4706L45.3136 10.1291L41.1685 6.53772C40.8808 6.28882 41.0341 5.81599 41.4139 5.78326L46.8777 5.31389L49.0118 0.263541C49.16 -0.0878471 49.6569 -0.0878471 49.805 0.263541Z" fill="#ECC80F"/>
<path d="M70.3147 0.263541L72.4488 5.31475L77.9126 5.78413C78.2915 5.81685 78.4457 6.28968 78.158 6.53858L74.0137 10.1291L75.2556 15.4706C75.3418 15.8418 74.9396 16.1337 74.614 15.9365L69.9185 13.1047L65.223 15.9365C64.8966 16.1329 64.4952 15.8409 64.5814 15.4706L65.8233 10.1291L61.6781 6.53772C61.3905 6.28882 61.5438 5.81599 61.9236 5.78326L67.3873 5.31389L69.5215 0.263541C69.6696 -0.0878471 70.1665 -0.0878471 70.3147 0.263541Z" fill="#ECC80F"/>
<path d="M90.8243 0.263541L92.9584 5.31475L98.4222 5.78413C98.8011 5.81685 98.9553 6.28968 98.6676 6.53858L94.5233 10.1291L95.7652 15.4706C95.8514 15.8418 95.4492 16.1337 95.1236 15.9365L90.4281 13.1047L85.7326 15.9365C85.4062 16.1329 85.0048 15.8409 85.0909 15.4706L86.3329 10.1291L82.1877 6.53772C81.9 6.28882 82.0533 5.81599 82.4331 5.78326L87.8969 5.31389L90.0311 0.263541C90.1792 -0.0878471 90.6761 -0.0878471 90.8243 0.263541Z" fill="#ECC80F"/>
</svg>
