<svg width="1440" height="741" viewBox="0 0 1440 741" fill="none" xmlns="http://www.w3.org/2000/svg">
<rect width="1440" height="741" fill="#E5F7EA"/>
<mask id="mask0_2_12603" style="mask-type:alpha" maskUnits="userSpaceOnUse" x="0" y="0" width="1440" height="741">
<rect width="1440" height="741" fill="#D0E8F5"/>
</mask>
<g mask="url(#mask0_2_12603)">
<path d="M584.663 117.648C568.28 93.9472 525.197 83.1621 492.106 83.1621C481.922 83.1621 472.465 84.0887 464.001 85.9133C432.869 92.6194 406.321 98.6472 382.888 103.968C320.145 118.211 282.278 126.809 250.801 126.809C224.598 126.809 202.139 120.963 170.682 105.936C137.849 90.2502 113.756 75.3288 94.3929 63.34C64.034 44.5304 43.973 32.1118 16.5182 32.1118C7.53855 32.1118 -2.13847 33.4969 -12.9905 36.3245V38.6459C-2.11936 35.7801 7.56721 34.3758 16.5182 34.3758C43.3234 34.3758 63.1647 46.6607 93.1988 65.2696C112.601 77.2871 136.76 92.2468 169.698 107.98C201.48 123.16 224.216 129.073 250.782 129.073C282.517 129.073 320.48 120.456 383.375 106.175C406.799 100.854 433.346 94.8357 464.46 88.1296C472.761 86.3432 482.056 85.4357 492.087 85.4357C524.614 85.4357 566.866 95.9246 582.791 118.956C589.812 129.111 590.958 140.651 586.201 153.261C576.706 178.432 532.314 200.662 493.147 220.283C469.475 232.138 447.112 243.344 435.62 253.728C402.013 284.115 410.076 325.279 423.717 369.671H426.086C412.55 325.737 404.382 285.023 437.139 255.409C448.402 245.226 470.631 234.087 494.169 222.309C533.708 202.506 578.521 180.066 588.331 154.073C593.356 140.689 592.124 128.442 584.663 117.648Z" fill="#5D5D5D"/>
<path d="M562.682 268.821C558.441 264.56 552.919 262.401 546.29 262.401C526.009 262.401 500.617 282.462 492.144 291.623C460.945 325.354 457.362 344.231 463.61 369.641H465.291C459.101 344.555 462.578 325.956 493.338 292.712C501.659 283.723 526.544 264.006 546.299 264.006C552.489 264.006 557.619 266.003 561.555 269.948C568.29 276.711 571.652 289.254 571.576 307.223C571.471 329.051 567.726 349.208 562.959 369.632H564.621C569.369 349.236 573.095 329.089 573.19 307.223C573.257 288.824 569.723 275.899 562.682 268.821Z" fill="#5D5D5D"/>
<path d="M1008.29 274.027C1007.05 263.109 1000.18 253.632 987.869 245.885C965.62 231.871 919.069 225.604 882.807 225.604C875.719 225.604 869.232 225.843 863.52 226.321C828.117 229.253 791.253 236.236 750.815 247.671C745.026 249.305 739.276 251.072 733.706 252.916C666.273 275.298 627.288 310.729 608.574 369.642H610.284C628.931 311.551 667.563 276.578 734.213 254.444C739.753 252.61 745.485 250.843 751.255 249.219C791.587 237.813 828.356 230.849 863.644 227.926C869.309 227.457 875.757 227.219 882.797 227.219C918.831 227.219 965.019 233.409 987 247.251C998.874 254.731 1005.49 263.796 1006.68 274.209C1009.66 300.374 979.128 331.077 954.606 355.742C949.658 360.719 945.044 365.352 941.022 369.642H943.257C947.021 365.677 951.234 361.436 955.752 356.889C980.532 331.965 1011.36 300.957 1008.29 274.027Z" fill="#5D5D5D"/>
<path d="M391.753 191.92C396.979 188.644 403.007 188.204 408.222 188.204C410.678 188.204 413.152 188.319 415.76 188.434C418.368 188.558 421.052 188.673 423.727 188.673C429.745 188.673 437.569 188.109 444.686 183.695C463.037 172.328 469.112 159.145 466.991 151.694C465.587 146.774 460.82 143.956 453.904 143.956C447.742 143.956 439.919 146.163 431.264 150.337C425.742 153.002 420.765 157.779 415.951 162.393C410.133 167.972 404.124 173.742 397.237 175.633C395.106 176.216 393.005 176.502 390.827 176.502C386.461 176.502 382.554 175.385 378.418 174.2C374.339 173.025 370.107 171.821 365.464 171.821C363.84 171.821 362.216 171.974 360.64 172.27C352.453 173.799 346.846 178.996 341.429 184.02C336.911 188.205 332.249 192.532 326.116 194.681C319.181 197.108 309.761 198.283 297.333 198.283C281.189 198.283 263.296 196.258 248.919 194.624C244.774 194.156 240.933 193.716 237.523 193.373C207.651 190.373 176.595 181.011 142.568 164.762C106.554 147.567 80.7801 131.604 60.0505 118.755C48.7399 111.753 37.1715 108.199 25.6603 108.199C11.0349 108.199 -1.95693 113.769 -13 122.319V123.522C-1.98559 114.839 11.0158 109.174 25.6603 109.174C36.9899 109.174 48.3865 112.68 59.5633 119.606C80.2929 132.445 106.095 148.426 142.157 165.65C176.28 181.947 207.451 191.338 237.427 194.347C240.838 194.691 244.678 195.121 248.814 195.589C263.22 197.222 281.141 199.248 297.343 199.248C309.876 199.248 319.4 198.053 326.441 195.589C332.765 193.382 337.512 188.978 342.098 184.727C347.658 179.569 352.912 174.697 360.821 173.216C362.369 172.929 363.888 172.786 365.474 172.786C369.992 172.786 374.147 173.98 378.169 175.127C382.181 176.273 386.337 177.467 390.836 177.467C393.11 177.467 395.288 177.171 397.504 176.569C404.64 174.611 410.735 168.755 416.638 163.09C421.396 158.524 426.315 153.805 431.703 151.206C440.224 147.099 447.905 144.921 453.914 144.921C460.457 144.921 464.775 147.423 466.065 151.961C468.09 159.068 462.1 171.774 444.179 182.874C437.263 187.154 429.621 187.708 423.727 187.708C421.081 187.708 418.396 187.584 415.807 187.469C413.295 187.354 410.706 187.24 408.222 187.24C402.873 187.24 396.673 187.698 391.237 191.108C385.257 194.863 380.71 204.349 376.326 213.529C373.679 219.07 371.177 224.305 368.511 227.925C346.416 258.017 345.069 290.41 349.845 329.787C351.488 343.323 354.23 356.649 357.545 369.641H358.548C355.223 356.611 352.453 343.247 350.81 329.672C346.062 290.515 347.39 258.332 369.295 228.489C372.008 224.792 374.53 219.519 377.204 213.94C381.532 204.893 386.012 195.531 391.753 191.92Z" fill="#5D5D5D"/>
<path d="M511.995 364.235C510.581 359.057 508.164 355.399 505.824 351.864C502.251 346.457 499.165 341.795 500.388 332.968C502.069 320.913 516.647 291.175 532.4 291.175C532.552 291.175 532.715 291.175 532.868 291.184C540.749 291.49 545.745 293.477 547.732 297.098C551.372 303.727 544.809 314.942 539.536 323.96C536.679 328.842 534.215 333.045 533.775 335.796C532.896 341.251 535.323 344.365 537.654 347.384C539.516 349.781 541.265 352.045 541.188 355.379C541.016 362.391 537.912 365.677 534.625 369.164C534.473 369.327 534.329 369.489 534.177 369.642H535.495C538.848 366.088 541.981 362.659 542.153 355.398C542.239 351.721 540.3 349.218 538.418 346.782C536.211 343.926 533.919 340.974 534.731 335.939C535.141 333.379 537.568 329.233 540.367 324.447C545.764 315.219 552.47 303.746 548.573 296.629C546.375 292.636 541.255 290.535 532.896 290.21C532.724 290.2 532.562 290.2 532.39 290.2C516.131 290.2 501.133 320.54 499.423 332.835C498.143 342.025 501.477 347.059 505.002 352.389C507.295 355.857 509.673 359.449 511.049 364.474C511.584 366.442 511.871 368.113 512.024 369.632H512.988C512.845 368.046 512.558 366.289 511.995 364.235Z" fill="#5D5D5D"/>
<path d="M841.415 324.696C839.848 324.027 837.441 323.683 834.24 323.683C815.507 323.683 775.834 334.85 775.433 334.965C770.991 336.226 766.578 337.582 762.298 339.006C740.346 346.285 724.106 356.048 712.279 369.642H713.56C725.233 356.497 741.186 347.03 762.604 339.923C766.864 338.509 771.278 337.153 775.701 335.901C776.102 335.786 815.651 324.657 834.24 324.657C837.307 324.657 839.59 324.973 841.032 325.594C848.207 328.67 845.57 336.837 839.8 354.739C838.415 359.028 836.81 364.063 835.138 369.642H836.151C837.794 364.177 839.37 359.248 840.727 355.035C846.497 337.114 849.401 328.125 841.415 324.696Z" fill="#5D5D5D"/>
<path d="M797.605 353.755C793.116 353.755 787.699 354.643 781.499 356.401C777.363 357.566 773.265 358.827 769.319 360.146C761.009 362.906 753.825 366.059 747.539 369.641H750.911C756.49 366.689 762.728 364.034 769.826 361.674C773.752 360.365 777.831 359.114 781.939 357.948C787.995 356.239 793.268 355.369 797.596 355.369C805.649 355.369 810.53 358.311 812.097 364.12C812.546 365.763 812.642 367.645 812.556 369.632H814.17C814.246 367.501 814.132 365.486 813.645 363.699C812.441 359.171 808.658 353.755 797.605 353.755Z" fill="#5D5D5D"/>
<path d="M899.009 300.412C896.2 294.767 886.513 292.751 869.156 294.193C838.167 296.763 805.524 302.982 769.357 313.213C764.524 314.579 759.757 316.041 755.181 317.56C722.358 328.45 699.45 345.177 684.557 369.642H685.694C700.482 345.645 723.131 329.214 755.477 318.477C760.044 316.958 764.791 315.496 769.615 314.14C805.716 303.928 838.3 297.718 869.232 295.158C872.776 294.862 876.044 294.719 878.938 294.719C889.8 294.719 896.085 296.725 898.139 300.852C901.741 308.102 891.586 321.543 881.766 334.535C880.027 336.837 878.279 339.149 876.588 341.442C869.777 350.708 863.72 360.165 858.266 369.642H859.383C864.752 360.347 870.694 351.09 877.371 342.015C879.053 339.722 880.801 337.42 882.539 335.118C893.009 321.266 902.887 308.198 899.009 300.412Z" fill="#5D5D5D"/>
<path d="M931.584 317.015C946.467 303.029 952.438 291.967 949.333 284.124C945.646 274.82 929.234 270.091 900.537 270.091C890.975 270.091 880.094 270.607 867.284 271.667C834.842 274.352 800.796 280.828 763.206 291.461C758.114 292.903 753.013 294.46 748.064 296.113C705.01 310.404 675.941 334.219 658.841 369.641H659.939C676.963 334.697 705.784 311.168 748.37 297.03C753.318 295.387 758.4 293.83 763.473 292.397C801.006 281.784 834.986 275.316 867.37 272.642C880.151 271.581 891.013 271.065 900.547 271.065C928.794 271.065 944.91 275.584 948.435 284.478C951.377 291.91 945.483 302.618 930.925 316.308C927.992 319.059 925.174 321.724 922.795 324.112C911.647 335.318 902.027 345.004 894.834 354.786C891.261 359.649 887.88 364.616 884.603 369.641H885.749C888.911 364.817 892.169 360.041 895.608 355.36C902.763 345.635 912.363 335.977 923.483 324.791C925.852 322.412 928.67 319.756 931.584 317.015Z" fill="#5D5D5D"/>
<path d="M978.202 272.097C968.716 251.883 930.39 247.642 899.907 247.642C889.198 247.642 877.591 248.148 865.43 249.161C831.537 251.969 796.086 258.694 757.073 269.728C751.618 271.276 746.192 272.938 740.957 274.676C707.388 285.824 681.567 301.94 662.022 323.959C650.329 337.133 641.092 352.284 634.061 369.66H635.074C653.759 323.568 688.187 293.218 741.263 275.603C746.488 273.874 751.895 272.212 757.34 270.664C796.287 259.65 831.68 252.934 865.516 250.135C877.658 249.132 889.227 248.616 899.916 248.616C930.122 248.616 968.076 252.762 977.342 272.517C987.496 294.164 962.802 317.387 946.458 332.748C943.678 335.365 941.051 337.83 938.844 340.046C928.336 350.612 919.27 359.735 913.051 368.179C912.688 368.667 912.354 369.154 912 369.651H913.195C913.414 369.354 913.615 369.058 913.835 368.753C920.006 360.365 929.052 351.261 939.532 340.725C941.719 338.518 944.346 336.053 947.117 333.445C963.653 317.884 988.652 294.374 978.202 272.097Z" fill="#5D5D5D"/>
<path d="M313.191 219.959C298.833 216.271 283.396 216.032 268.465 215.793C259.848 215.66 250.945 215.526 242.443 214.714C201.795 210.845 166.975 201.455 132.843 185.148C95.7112 167.418 69.3454 151.083 48.1572 137.967C40.4672 133.209 32.9013 130.792 25.6698 130.792C12.1621 130.792 -1.79456 139.629 -12.9905 154.397V156.012C-1.86143 140.861 12.143 131.767 25.6698 131.767C32.7198 131.767 40.1233 134.126 47.6509 138.798C68.8582 151.933 95.2431 168.278 132.432 186.036C166.67 202.391 201.595 211.81 242.357 215.688C250.906 216.5 259.829 216.644 268.465 216.777C283.338 217.007 298.709 217.246 312.962 220.904C335.153 226.607 334.35 242.809 331.208 261.819C327.453 284.497 324.339 306.975 327.425 332.5C328.963 345.187 331.399 357.567 334.303 369.642H335.296C332.373 357.529 329.918 345.11 328.38 332.386C325.304 306.985 328.409 284.583 332.153 261.972C335.258 243.201 336.146 225.853 313.191 219.959Z" fill="#5D5D5D"/>
<path d="M326.794 -432.462C319.104 -443.533 312.417 -444.966 305.348 -446.476C300.457 -447.517 295.403 -448.596 289.643 -452.952L289.165 -453.487C272.687 -471.905 217.491 -532.012 198.786 -532.012C196.579 -532.012 194.869 -531.228 193.685 -529.69C191.182 -526.433 191.316 -519.87 194.067 -509.639C195.71 -503.554 211.339 -495.166 227.894 -486.282C241.688 -478.879 255.941 -471.227 260.774 -465.486C265.111 -460.337 270.814 -453.201 270.299 -450.727C270.155 -450.058 269.429 -449.666 268.159 -449.036C265.274 -447.603 260.918 -445.434 263.239 -435.251C264.844 -428.211 269.2 -421.218 273.422 -414.445C277.349 -408.14 281.055 -402.189 282.564 -396.4C286.701 -380.533 260.688 -351.377 243.474 -332.09C237.8 -325.728 232.89 -320.235 229.775 -316.089C217.233 -299.448 201.604 -284.049 186.492 -269.156C157.098 -240.182 126.691 -210.225 116.001 -168.851C100.029 -107.035 96.8383 -52.4501 106.534 -6.60608C111.703 17.8491 129.519 51.9622 146.79 51.9622C157.547 51.9622 165.38 39.0373 170.08 13.5408C188.154 -84.6623 237.466 -117.333 285.153 -148.934C327.405 -176.933 367.308 -203.375 384.474 -272.041C390.941 -297.948 380.987 -337.793 368.053 -359.841C362.283 -369.681 355.004 -375.212 347.973 -380.571C341.792 -385.271 335.955 -389.713 331.446 -396.791C328.256 -401.807 328.819 -407.653 329.421 -413.843C330.042 -420.244 330.682 -426.854 326.794 -432.462ZM329.536 -395.578C334.264 -388.156 340.254 -383.599 346.597 -378.765C353.456 -373.549 360.554 -368.152 366.094 -358.695C378.809 -337.029 388.61 -297.939 382.277 -272.586C365.321 -204.77 325.772 -178.557 283.892 -150.816C235.813 -118.957 186.1 -86.0092 167.845 13.1301C163.441 37.0599 156.161 49.7078 146.781 49.7078C132.107 49.7078 114.282 19.1865 108.732 -7.07422C99.1119 -52.5648 102.293 -106.806 118.179 -168.278C128.716 -209.04 158.884 -238.788 188.068 -267.542C203.238 -282.492 218.933 -297.958 231.571 -314.723C234.638 -318.793 239.51 -324.257 245.156 -330.581C263.736 -351.406 289.194 -379.931 284.742 -396.963C283.147 -403.087 279.345 -409.181 275.323 -415.639C271.206 -422.25 266.955 -429.08 265.427 -435.748C263.497 -444.202 266.497 -445.692 269.152 -447.011C270.614 -447.737 272.133 -448.491 272.496 -450.268C272.983 -452.637 271.483 -456.248 262.484 -466.938C257.374 -473.004 242.92 -480.77 228.944 -488.269C214.262 -496.15 197.621 -505.082 196.236 -510.222C193.083 -521.895 194.077 -526.5 195.462 -528.305C196.197 -529.27 197.286 -529.738 198.767 -529.738C212.877 -529.738 253.839 -489.559 287.455 -451.969C287.876 -451.5 288.105 -451.271 288.124 -451.262C294.419 -446.485 299.97 -445.301 304.861 -444.25C311.777 -442.779 317.747 -441.499 324.931 -431.162C328.351 -426.243 327.768 -420.32 327.167 -414.053C326.555 -407.768 325.925 -401.253 329.536 -395.578Z" fill="#5D5D5D"/>
<path d="M-12.9905 -642.003C95.864 -580.406 213.173 -482.394 234.533 -433.684C247.362 -404.424 216.268 -369.47 176.901 -325.212C132.165 -274.926 76.5004 -212.336 73.0327 -137.212C68.8199 -45.6389 23.4345 -8.03882 -12.9905 3.33862V5.69812C24.2656 -5.65063 70.9884 -43.7473 75.2968 -137.117C78.7262 -211.438 134.094 -273.694 178.592 -323.722C218.494 -368.582 250.008 -404.013 236.606 -434.601C215.083 -483.674 96.6473 -582.527 -12.9905 -644.42V-642.003Z" fill="#5D5D5D"/>
<path d="M296.483 250.556C284.733 239.685 267.165 238.768 251.671 237.956C247.687 237.746 243.933 237.555 240.293 237.201C196.933 233.074 159.696 223.006 123.099 205.534C91.6227 190.497 67.2247 176.789 46.3518 162.374C40.6296 158.429 34.7833 156.423 28.9656 156.423C15.735 156.423 3.27808 166.806 -4.34508 184.193C-7.23003 190.755 -10.0672 197.213 -12.9808 203.594V205.916C-9.76153 198.904 -6.6282 191.806 -3.45667 184.575C4.01365 167.552 16.1362 157.387 28.9656 157.387C34.5827 157.387 40.2475 159.327 45.7977 163.167C66.7184 177.611 91.1546 191.348 122.679 206.413C159.371 223.942 196.723 234.03 240.198 238.176C243.847 238.52 247.62 238.72 251.613 238.93C266.946 239.733 284.332 240.64 295.824 251.273C309.15 263.596 307.268 287 305.616 307.634C304.804 317.789 304.03 327.37 304.985 335.213C306.399 346.858 309.198 358.388 312.15 369.632H313.153C310.191 358.341 307.364 346.763 305.95 335.099C305.014 327.351 305.778 317.808 306.59 307.701C308.252 286.847 310.153 263.204 296.483 250.556Z" fill="#5D5D5D"/>
<path d="M-5.22403 306.583C-8.05167 305.446 -10.6596 304.405 -12.9905 303.192V304.271C-10.7074 305.418 -8.22362 306.421 -5.58704 307.472C-4.23053 308.016 -2.82627 308.58 -1.39334 309.181C19.3745 317.941 35.2322 326.195 48.5202 335.146C65.1803 346.371 83.9994 357.968 104.423 369.632H106.372C85.4037 357.691 66.1069 345.826 49.0647 334.344C35.7194 325.354 19.8044 317.072 -1.02078 308.284C-2.45371 307.691 -3.85797 307.128 -5.22403 306.583Z" fill="#5D5D5D"/>
<path d="M35.9009 353.898C43.5909 359.086 51.749 364.34 60.2702 369.641H62.1043C53.1151 364.072 44.5271 358.541 36.4454 353.096C25.0584 345.425 5.87636 335.528 -12.9905 327.791V328.832C5.6853 336.522 24.6286 346.304 35.9009 353.898Z" fill="#5D5D5D"/>
<path d="M11.245 364.263L11.2642 364.234C3.45949 359.506 -4.65086 355.321 -12.9905 351.567V352.628C-4.83236 356.325 3.11559 360.432 10.7674 365.065C10.8438 365.113 14.7223 367.463 18.295 369.632H20.1578C13.5186 365.61 11.7513 364.54 11.245 364.263Z" fill="#5D5D5D"/>
<path d="M222.315 340.591C223.499 336.417 223.117 332.787 221.188 329.797C216.449 322.479 203.658 320.607 194.325 319.25C192.758 319.021 191.316 318.811 190.055 318.591C189.625 318.515 188.918 318.371 187.982 318.19C183.1 317.206 172.936 315.171 165.323 315.171C160.776 315.171 157.871 315.907 156.439 317.407C155.722 318.161 155.378 319.097 155.435 320.167C155.884 328.507 168.676 333.646 176.328 336.723C177.522 337.2 178.592 337.63 179.48 338.022C181.543 338.92 183.874 340.075 186.348 341.308C194.23 345.234 203.171 349.676 210.823 349.676C211.807 349.676 212.762 349.6 213.65 349.447C217.93 348.721 220.853 345.74 222.315 340.591ZM213.326 347.613C212.533 347.746 211.692 347.813 210.804 347.813C203.591 347.813 194.86 343.467 187.16 339.636C184.667 338.394 182.317 337.229 180.216 336.312C179.308 335.92 178.219 335.481 177.006 334.993C169.774 332.08 157.671 327.217 157.289 320.062C157.26 319.508 157.413 319.069 157.776 318.677C158.492 317.923 160.384 317.015 165.313 317.015C172.745 317.015 182.776 319.031 187.609 320.005C188.565 320.196 189.3 320.339 189.73 320.416C191.01 320.635 192.472 320.855 194.048 321.085C202.531 322.326 215.341 324.189 219.621 330.8C221.274 333.35 221.57 336.379 220.528 340.066C219.258 344.546 216.898 347.011 213.326 347.613Z" fill="#5D5D5D"/>
<path d="M285.211 297.431C286.749 287.945 288.344 278.125 282.077 270.664C274.597 261.761 262.389 261.13 251.613 260.576L250.505 260.519C246.675 260.319 242.338 260.089 238.163 259.698C192.09 255.313 152.436 244.576 113.374 225.919C101.07 220.044 88.986 213.347 77.3029 206.87C70.8834 203.317 64.2442 199.639 57.6432 196.133L57.1942 195.894C49.4469 191.787 41.4416 187.536 33.1975 187.536C28.851 187.536 24.9343 188.711 21.2087 191.137C8.06401 199.687 1.75915 216.28 -4.33556 232.329C-7.10588 239.618 -9.78067 246.505 -12.9713 252.533V254.549C-9.36034 248.11 -6.45628 240.621 -3.42804 232.663C2.6189 216.758 8.86645 200.317 21.7437 191.939C25.3069 189.618 29.0516 188.491 33.2071 188.491C41.2028 188.491 49.103 192.685 56.7452 196.744L57.1942 196.983C63.7952 200.48 70.4249 204.157 76.8444 207.711C88.5466 214.188 100.64 220.894 112.973 226.788C152.14 245.502 191.899 256.259 238.087 260.653C242.28 261.054 246.627 261.274 250.467 261.474L251.585 261.532C262.16 262.076 274.148 262.688 281.361 271.276C287.341 278.393 285.784 287.984 284.284 297.259C283.797 300.24 283.348 303.058 283.119 305.847C282.249 316.652 281.361 327.828 282.584 337.916C283.921 348.911 286.261 359.42 288.841 369.622H289.844C287.245 359.381 284.886 348.826 283.548 337.802C282.335 327.809 283.233 316.68 284.093 305.886C284.274 303.201 284.723 300.402 285.211 297.431Z" fill="#5D5D5D"/>
<path d="M242.299 284.736C232.097 280.285 220.968 279.224 210.202 278.192C204.069 277.61 197.735 276.998 191.669 275.766C161.263 269.604 131.639 259.698 103.611 246.315C90.7055 240.153 78.325 233.294 66.3267 226.645C64.6263 225.7 62.6488 224.439 60.5568 223.101C53.6405 218.688 45.0239 213.185 37.3243 213.185C34.4489 213.185 31.8601 213.969 29.6534 215.516C23.7688 219.634 20.9985 227.926 18.553 235.243C17.9416 237.068 17.3684 238.787 16.7666 240.363C15.7158 243.115 13.6237 246.916 11.4075 250.938C6.03879 260.673 -0.638641 272.795 1.76867 280.084C4.19509 287.44 13.7861 291.471 21.4953 294.709C23.2434 295.445 24.8961 296.133 26.3003 296.811C39.4641 303.068 50.8607 309.478 61.1491 316.404C86.6646 333.599 117.396 351.701 151.404 369.632H153.477C118.858 351.444 87.5817 333.054 61.6936 315.611C51.367 308.647 39.9227 302.218 26.7207 295.942C25.2877 295.263 23.6255 294.566 21.8678 293.83C14.3402 290.668 4.97842 286.733 2.68574 279.797C0.41217 272.91 6.97496 260.988 12.2577 251.416C14.5886 247.194 16.6042 243.535 17.6741 240.717C18.276 239.121 18.8587 237.392 19.4701 235.558C21.8678 228.384 24.5904 220.255 30.2074 216.319C32.2517 214.886 34.6495 214.16 37.3243 214.16C44.7468 214.16 53.2202 219.576 60.0409 223.923C62.1521 225.27 64.1391 226.54 65.8873 227.515C77.8761 234.154 90.2661 241.022 103.201 247.203C131.295 260.615 160.995 270.55 191.478 276.731C197.583 277.963 203.954 278.575 210.106 279.167C220.796 280.189 231.849 281.249 241.908 285.634C259.685 293.391 259.609 308.551 259.523 324.61C259.494 329.911 259.466 335.395 260.106 340.658C261.338 350.861 263.306 360.423 265.522 369.642H266.516C264.28 360.385 262.303 350.784 261.071 340.544C260.44 335.338 260.469 329.892 260.497 324.619C260.583 308.227 260.66 292.751 242.299 284.736Z" fill="#5D5D5D"/>
<path d="M199.025 367.043C151.184 343.62 108.13 319.26 74.5039 296.61C70.0714 293.63 65.2759 291.146 60.6236 288.739C54.2041 285.424 47.5649 281.985 41.9288 277.218C34.2674 270.732 32.29 264.341 35.5379 256.507C38.079 250.375 42.3586 247.385 48.6253 247.385C59.0761 247.385 72.9946 255.848 83.1588 262.039C87.171 264.475 90.6291 266.586 93.3325 267.875C123.118 282.099 154.614 292.636 186.941 299.19C194.22 300.661 201.194 301.329 207.938 301.979C209.103 302.094 210.316 302.189 211.549 302.285C219.659 302.925 228.849 303.651 234.323 309.679C239.806 315.716 240.331 327.953 240.752 337.783C240.866 340.506 240.981 343.066 241.182 345.32L241.296 346.543C241.898 353.02 242.777 362.639 240.456 369.651H242.146C244.372 362.353 243.503 352.857 242.901 346.39L242.787 345.177C242.586 342.97 242.471 340.419 242.357 337.716C241.927 327.628 241.382 315.066 235.507 308.599C229.604 302.094 220.079 301.339 211.673 300.68C210.45 300.584 209.247 300.489 208.081 300.374C201.385 299.734 194.459 299.065 187.256 297.613C155.063 291.089 123.691 280.6 94.0299 266.433C91.4029 265.172 87.9734 263.089 83.9994 260.673C73.6728 254.387 59.5346 245.789 48.6253 245.789C41.7281 245.789 36.8275 249.19 34.0477 255.906C30.5418 264.379 32.7198 271.544 40.8875 278.46C46.667 283.351 53.3826 286.819 59.8881 290.181C64.4925 292.56 69.2499 295.024 73.6059 297.948C107.289 320.645 150.42 345.043 198.318 368.495C199.235 368.944 199.98 369.317 200.659 369.642H204.327C202.531 368.763 199.025 367.043 199.025 367.043Z" fill="#5D5D5D"/>
<path d="M640.91 48.6661C683.735 43.7941 729.675 -5.81372 730.267 -47.8366C731.184 -112.27 694.129 -163.741 658.296 -213.521C652.211 -221.975 645.925 -230.706 639.983 -239.304L636.411 -244.453C619.55 -268.736 600.435 -296.267 594.235 -325.996C588.971 -351.215 580.928 -409.841 589.688 -430.122C596.098 -444.957 614.372 -453.45 632.045 -461.665C644.254 -467.34 655.784 -472.699 663.875 -480.035L664.248 -480.379C691.951 -505.474 691.951 -505.474 710.837 -506.124C716.549 -506.315 723.657 -506.563 733.687 -507.509C747.138 -508.78 755.086 -510.738 760.894 -512.161C764.581 -513.069 767.256 -513.728 769.625 -513.728C775.452 -513.728 780.315 -509.611 796.421 -495.969C844.041 -455.647 843.143 -385.529 842.274 -317.723C841.185 -232.388 840.058 -144.148 936.618 -116.216C950.508 -112.204 964.025 -110.159 976.807 -110.159C1013.12 -110.159 1044.03 -126.38 1066.2 -157.064C1098.74 -202.086 1107.38 -272.347 1087.71 -331.9C1042.31 -469.365 933.771 -547.965 817.036 -622.85C710.932 -690.914 609.883 -709.676 523.496 -721.913C517.249 -722.801 511.297 -723.25 505.814 -723.25C470.784 -723.25 454.124 -705.434 433.041 -682.87C424.968 -674.225 416.61 -665.293 406.245 -656.18C394.38 -645.748 379.277 -638.603 364.671 -631.696C340.846 -620.433 318.349 -609.791 309.054 -586.139C289.328 -535.948 337.789 -496.839 380.548 -462.324C400.341 -446.352 419.036 -431.258 429.984 -416.184C473.411 -356.393 460.419 -255.572 421.042 -198.934C408.748 -181.251 385.19 -159.385 360.238 -136.229C318.923 -97.8743 272.085 -54.409 263.822 -17.8885C259.934 -0.712524 260.946 11.2762 266.926 18.7657C271.923 25.0132 280.339 28.0511 292.671 28.0511C312.962 28.0511 342.031 19.6828 372.8 10.8369C410.41 0.0135498 453.035 -12.2523 489.402 -12.2523C506.741 -12.2523 521.089 -9.55841 533.269 -4.00824C547.273 2.37305 559.147 11.5916 570.62 20.5235C589.554 35.2444 607.437 49.1533 632.742 49.1533C635.427 49.1342 638.168 48.9717 640.91 48.6661ZM533.957 -5.48889C521.557 -11.1346 506.989 -13.8763 489.421 -13.8763C452.834 -13.8763 410.085 -1.58179 372.38 9.2702C341.716 18.0875 312.751 26.4271 292.69 26.4271C280.883 26.4271 272.878 23.5899 268.207 17.7436C262.551 10.6649 261.634 -0.884399 265.408 -17.5446C273.566 -53.5873 320.203 -96.8713 361.356 -135.063C386.365 -158.277 409.99 -180.21 422.389 -198.036C462.091 -255.133 475.149 -356.804 431.312 -417.159C420.24 -432.405 401.459 -447.556 381.58 -463.604C339.251 -497.765 291.277 -536.483 310.573 -585.575C319.639 -608.635 341.859 -619.134 365.378 -630.263C380.089 -637.217 395.297 -644.411 407.324 -654.986C417.747 -664.156 426.124 -673.117 434.235 -681.791C455.05 -704.059 471.491 -721.655 505.833 -721.655C511.24 -721.655 517.115 -721.206 523.296 -720.337C609.52 -708.119 710.369 -689.395 816.195 -621.513C932.673 -546.79 1040.97 -468.371 1086.22 -331.412C1105.73 -272.319 1097.17 -202.64 1064.93 -158.029C1043.07 -127.784 1012.61 -111.793 976.845 -111.793C964.216 -111.793 950.852 -113.808 937.105 -117.782C894.318 -130.163 867.255 -155.583 854.359 -195.495C842.819 -231.232 843.382 -275.203 843.927 -317.723C844.796 -385.902 845.694 -456.411 797.5 -497.221C774.468 -516.728 773.857 -517.024 760.55 -513.747C754.789 -512.333 746.908 -510.385 733.582 -509.133C723.599 -508.187 716.521 -507.949 710.827 -507.758C691.359 -507.089 691.359 -507.089 663.216 -481.592L662.834 -481.248C654.915 -474.074 643.499 -468.763 631.405 -463.146C613.455 -454.806 594.904 -446.18 588.245 -430.781C579.333 -410.156 587.395 -351.072 592.688 -325.69C598.964 -295.637 618.174 -267.962 635.121 -243.555L638.694 -238.406C644.645 -229.808 650.941 -221.058 657.026 -212.604C692.706 -163.034 729.599 -111.783 728.691 -47.8843C728.108 -6.54926 682.904 42.2466 640.767 47.0421C638.092 47.3478 635.408 47.5007 632.809 47.5007C608.058 47.5007 590.385 33.7637 571.671 19.2147C560.084 10.2542 548.143 0.968872 533.957 -5.48889Z" fill="#5D5D5D"/>
<path d="M1396.65 236.485C1382.45 258.581 1365.67 279.797 1352.64 295.818C1351.93 296.696 1351.14 297.613 1350.33 298.569C1344.52 305.38 1337.3 313.853 1342.4 322.374C1347.34 330.618 1361.45 332.281 1371.76 333.494C1373.61 333.714 1375.36 333.924 1376.84 334.143C1399.01 337.506 1420.02 343.735 1439.63 352.619V351.558C1420.05 342.731 1399.1 336.532 1376.99 333.179C1375.5 332.949 1373.74 332.749 1371.88 332.529C1361.78 331.345 1347.94 329.711 1343.25 321.878C1338.51 313.949 1345.48 305.762 1351.08 299.19C1351.89 298.234 1352.68 297.308 1353.4 296.429C1366.45 280.39 1383.24 259.144 1397.48 237.001C1410.1 217.36 1419.03 197.032 1428.46 175.5C1431.66 168.23 1435.45 161.705 1439.63 156.002V154.388C1435.08 160.387 1430.99 167.332 1427.58 175.108C1418.15 196.611 1409.23 216.911 1396.65 236.485Z" fill="#5D5D5D"/>
<path d="M1404.66 262.898C1394.21 275.451 1382.36 289.675 1382.93 303.297C1383.36 313.796 1393.51 315.563 1402.48 317.13C1404.64 317.502 1406.67 317.856 1408.59 318.314C1417.77 320.521 1428.66 324.313 1439.63 328.841V327.8C1428.73 323.329 1417.94 319.566 1408.82 317.378C1406.88 316.91 1404.82 316.556 1402.65 316.174C1393.63 314.598 1384.29 312.974 1383.9 303.259C1383.36 290.009 1395.08 275.938 1405.41 263.519C1409.67 258.408 1413.7 253.575 1416.49 249.228C1425.69 234.908 1432.9 220.598 1439.63 205.935V203.604C1432.65 218.917 1425.24 233.81 1415.66 248.703C1412.9 253.001 1408.9 257.806 1404.66 262.898Z" fill="#5D5D5D"/>
<path d="M1436.77 257.606C1431.57 266.118 1425.67 275.776 1427.09 286.284C1428.48 296.601 1433.2 301.033 1439.63 304.272V303.192C1433.57 300.059 1429.35 295.837 1428.04 286.15C1426.67 275.986 1432.48 266.49 1437.59 258.113L1438.55 256.527C1438.93 255.906 1439.26 255.209 1439.63 254.559V252.543C1439.01 253.718 1438.4 254.922 1437.73 256.021L1436.77 257.606Z" fill="#5D5D5D"/>
<path d="M615.681 225.861C607.523 238.175 597.359 253.507 600.874 264.092C602.307 268.41 605.909 271.639 611.583 273.683C612.653 274.065 613.837 274.256 615.089 274.256C627.565 274.256 647.311 254.997 664.735 238.003C675.816 227.189 686.296 216.977 692.591 214.121C722.692 200.47 764.18 193.974 800.786 188.242C815.24 185.978 828.891 183.848 841.491 181.374C870.216 175.747 897.958 172.891 923.932 172.891C1008.95 172.891 1080.33 203.489 1136.11 263.815C1142.37 270.578 1151.46 274.008 1163.14 274.008C1199.56 274.008 1262.01 238.567 1306 172.872C1332.31 133.581 1370.52 53.2514 1330.79 -43.2417C1314.86 -81.9211 1291.2 -99.9283 1256.31 -99.9283C1229.77 -99.9283 1199.49 -90.1748 1164.43 -78.8738C1121.29 -64.9649 1072.4 -49.2122 1019.79 -49.2122C978.842 -49.2122 941.223 -58.6601 904.798 -78.081C792.475 -137.987 789.199 -247.262 798.895 -335.768C802.668 -370.187 796.545 -397.432 781.193 -414.551C770.351 -426.645 755.582 -433.035 738.473 -433.035C706.061 -433.035 665.623 -407.873 651.036 -359.794C637.299 -314.523 669.855 -273.389 707.541 -225.749C750.042 -172.033 798.207 -111.143 788.864 -29.8869C784.231 10.3878 769.52 49.0385 749.516 73.5129C734.346 92.0645 720.944 93.7171 706.748 95.4653C695.915 96.8027 684.71 98.1783 671.556 106.518C661.535 112.88 658.382 123.713 655.048 135.186C652.746 143.096 650.377 151.273 645.543 157.969C642.897 161.647 638.293 162.44 633.43 163.29C627.001 164.408 619.722 165.669 615.853 173.98C613.169 179.769 616.713 186.571 620.142 193.153C622.999 198.636 625.96 204.31 625.072 209.029C624.346 212.784 620.324 218.85 615.681 225.861ZM621.776 192.274C618.404 185.806 615.223 179.702 617.525 174.744C620.973 167.322 627.46 166.194 633.726 165.105C638.751 164.236 643.948 163.329 647.034 159.039C652.049 152.085 654.475 143.745 656.816 135.692C660.045 124.563 663.101 114.065 672.53 108.075C685.331 99.9647 696.317 98.6082 706.949 97.2994C721.527 95.5035 735.292 93.8126 750.93 74.6783C771.144 49.946 786.008 10.9323 790.689 -29.6768C800.127 -111.688 751.704 -172.902 708.984 -226.904C671.623 -274.134 639.353 -314.924 652.804 -359.259C667.123 -406.479 706.739 -431.182 738.464 -431.182C755.028 -431.182 769.319 -425.001 779.799 -413.318C794.778 -396.601 800.739 -369.863 797.032 -335.979C787.269 -246.889 790.603 -136.879 903.909 -76.4474C940.611 -56.8736 978.517 -47.3591 1019.78 -47.3591C1072.68 -47.3591 1121.72 -63.169 1165 -77.1066C1199.9 -88.3598 1230.04 -98.075 1256.3 -98.075C1290.8 -98.075 1313.24 -80.9468 1329.06 -42.5349C1368.46 53.1654 1330.55 132.855 1304.44 171.84C1262.39 234.631 1199.57 272.154 1163.13 272.154C1151.99 272.154 1143.35 268.926 1137.47 262.554C1081.32 201.817 1009.48 171.028 923.922 171.028C897.824 171.028 869.968 173.894 841.118 179.54C828.556 182.004 814.925 184.135 800.49 186.399C763.769 192.15 722.138 198.665 691.808 212.411C685.216 215.401 675.119 225.25 663.426 236.656C646.26 253.402 626.801 272.384 615.089 272.384C614.048 272.384 613.083 272.231 612.213 271.916C607.036 270.053 603.903 267.302 602.651 263.5C599.432 253.775 609.309 238.863 617.248 226.884C622.005 219.7 626.122 213.49 626.896 209.345C627.88 203.995 624.775 198.034 621.776 192.274Z" fill="#5D5D5D"/>
<path d="M415.263 231.192C429.821 218.028 452.872 206.488 479.553 193.124C498.191 183.791 523.219 160.873 521.72 142.121C520.908 131.881 512.663 124.219 497.226 119.347C491.16 117.437 484.511 116.501 476.917 116.501C457.142 116.501 434.894 123.063 415.263 128.852C406.293 131.499 397.819 133.992 390.091 135.75C325.132 150.499 285.918 159.402 250.782 159.402C219.669 159.402 192.386 152.429 156.62 135.348C122.192 118.908 97.2683 103.471 77.2169 91.0519C47.7273 72.7869 33.9521 64.7052 16.5182 64.7052C8.38875 64.7052 -1.33603 66.5297 -12.9905 70.2362V71.9271C-1.30737 68.1728 8.42696 66.3196 16.5182 66.3196C33.5222 66.3196 47.1541 74.3248 76.3953 92.437C96.4563 104.865 121.427 120.322 155.932 136.81C191.937 154.005 219.42 161.026 250.792 161.026C286.109 161.026 325.39 152.104 390.454 137.335C398.23 135.568 406.732 133.065 415.731 130.409C435.257 124.649 457.391 118.125 476.926 118.125C484.358 118.125 490.845 119.032 496.748 120.895C511.498 125.538 519.36 132.731 520.115 142.255C521.548 160.3 497.064 182.558 478.837 191.681C452.051 205.094 428.904 216.691 414.183 229.998C369.772 270.158 376.927 322.584 390.406 369.641H392.088C378.666 322.909 371.415 270.836 415.263 231.192Z" fill="#5D5D5D"/>
<path d="M1395.87 5.55463C1400.02 8.21033 1406.75 9.66241 1414.83 9.66241C1422.04 9.66241 1430.56 8.45874 1439.62 5.69794V3.33844C1430.55 6.1756 1422.02 7.40796 1414.83 7.40796C1407.29 7.40796 1400.82 6.04181 1397.08 3.65363C1378.12 -8.45935 1369.73 -29.8481 1360.86 -52.4788C1353.2 -72.0143 1345.28 -92.2186 1329.91 -106.462L1329.86 -107.13L1329.19 -107.111C1311.52 -122.702 1287.69 -130.287 1256.39 -130.287C1225.87 -130.287 1193.74 -122.96 1167.93 -117.065C1150.3 -113.044 1135.07 -109.567 1125.27 -109.567C1119.51 -109.567 1116.01 -110.751 1114.57 -113.187C1112.65 -116.435 1114.1 -122.501 1118.88 -131.242C1141.18 -171.975 1186.23 -269.07 1183.11 -309.259C1180.65 -340.965 1165.41 -373.712 1150.68 -405.379C1129.35 -451.233 1107.28 -498.653 1123.34 -543.953C1141.67 -595.633 1222.4 -688.009 1279.85 -695.843C1283.2 -696.301 1286.82 -696.53 1290.6 -696.53C1327.97 -696.53 1382.63 -674.263 1439.62 -642.012V-644.429C1382.62 -676.603 1328 -698.794 1290.6 -698.794C1286.71 -698.794 1282.99 -698.556 1279.55 -698.088C1221.37 -690.149 1139.71 -596.885 1121.21 -544.717C1104.83 -498.548 1127.1 -450.708 1148.62 -404.434C1163.28 -372.947 1178.42 -340.391 1180.86 -309.087C1183.64 -273.264 1144.33 -182.435 1116.89 -132.331C1111.55 -122.577 1110.19 -116.129 1112.62 -112.041C1114.5 -108.86 1118.64 -107.312 1125.27 -107.312C1135.33 -107.312 1150.67 -110.808 1168.44 -114.868C1194.13 -120.734 1226.13 -128.032 1256.39 -128.032C1287.32 -128.032 1310.75 -120.543 1328.03 -105.134C1343.23 -91.225 1351.12 -71.126 1358.74 -51.6764C1367.78 -28.6732 1376.29 -6.95959 1395.87 5.55463Z" fill="#5D5D5D"/>
<path d="M1377.03 152.926C1368.5 172.375 1360.45 190.736 1350.23 206.632C1290.72 299.16 1224.39 314.76 1154.16 331.267C1148.81 332.528 1143.2 333.722 1137.76 334.878C1114.37 339.865 1090.18 345.014 1070.47 357.805C1064.3 361.808 1059.59 365.763 1056.31 369.641H1058.42C1061.54 366.221 1065.85 362.725 1071.35 359.152C1090.82 346.523 1114.85 341.403 1138.11 336.455C1143.55 335.299 1149.18 334.095 1154.54 332.834C1225.08 316.25 1291.72 300.584 1351.58 207.501C1361.87 191.51 1369.95 173.082 1378.52 153.537C1392.12 122.557 1407.52 87.4411 1428.83 75.7102C1432.61 74.2773 1436.19 73.0258 1439.63 71.9272V70.2363C1435.99 71.3922 1432.18 72.7201 1428.16 74.2581C1406.27 86.2947 1390.74 121.669 1377.03 152.926Z" fill="#5D5D5D"/>
<path d="M1041.44 334.621C1079.5 317.655 1113.93 309.564 1147.22 301.73C1214.09 286.007 1271.85 272.432 1324.71 190.22C1333.62 176.369 1341.22 159.059 1349.25 140.737C1366.05 102.468 1383.41 62.8811 1415.64 46.5362C1424.33 43.1736 1432.26 40.5752 1439.64 38.6264V36.3052C1431.96 38.3017 1423.71 41.0052 1414.6 44.5397C1381.67 61.2381 1364.14 101.188 1347.18 139.829C1339.17 158.066 1331.62 175.289 1322.81 188.998C1270.43 270.445 1213.1 283.924 1146.69 299.533C1113.3 307.386 1078.77 315.506 1040.51 332.557C1015.63 343.648 998.998 356.506 992.101 369.642H994.623C1001.57 357.347 1017.64 345.234 1041.44 334.621Z" fill="#5D5D5D"/>
<path d="M1048.9 257.406C1042.91 238.481 1016.73 224.353 971.056 215.411C940.984 209.527 910.243 206.537 879.702 206.537C834.813 206.537 789.352 212.956 744.587 225.614C738.521 227.324 732.436 229.196 726.494 231.164C649.25 256.804 604.667 299.534 584.654 369.642H587.023C606.94 300.68 651.027 258.6 727.201 233.304C733.114 231.345 739.161 229.483 745.198 227.782C789.753 215.182 835.014 208.791 879.693 208.791C910.09 208.791 940.687 211.762 970.616 217.628C1015.41 226.397 1041.02 240.01 1046.74 258.084C1051.12 271.926 1043.87 288.825 1025.18 308.313C1005.86 328.46 986.321 348.817 968.773 369.642H971.744C988.939 349.371 1007.97 329.52 1026.82 309.879C1046.11 289.751 1053.54 272.098 1048.9 257.406Z" fill="#5D5D5D"/>
<path d="M869.825 77.831C871.153 78.5665 872.576 78.9391 874.037 78.9391C879.779 78.9391 885.415 73.3411 890.392 68.3928C893.277 65.5269 895.999 62.8234 898.225 61.7535C901.139 60.3588 903.852 59.6902 906.527 59.6902C911.647 59.6902 916.003 62.1356 921.047 64.9728C922.852 65.9854 924.715 67.0363 926.721 68.0298C931.536 70.4084 936.246 71.5643 941.117 71.5643C946.018 71.5643 950.556 70.4467 955.361 69.2621C960.357 68.0298 965.515 66.7593 971.562 66.6351L972.336 66.6255C984.611 66.6255 995.846 72.9781 1006.71 79.1206C1017.52 85.2344 1028.69 91.5584 1040.85 91.5584C1046.7 91.5584 1052.3 90.1445 1057.99 87.25C1062.53 84.9287 1066.01 82.0724 1069.09 79.5504C1074.09 75.4331 1078.42 71.87 1085.71 71.87C1087.84 71.87 1090.12 72.1661 1092.67 72.7679C1113.41 77.659 1122.53 96.7264 1131.34 115.154C1135.48 123.799 1139.75 132.721 1145.14 139.848C1155.95 154.148 1169.9 162.02 1184.42 162.02L1185.17 162.01C1199.74 161.743 1213.72 153.719 1224.54 139.418C1239.22 120.016 1265.91 56.7766 1254.86 25.3095C1251.59 16.0146 1245.32 10.1396 1236.19 7.83737C1232.98 7.02538 1229.99 6.62415 1227.07 6.62415C1217.63 6.62415 1210.58 10.8465 1202.42 15.7185C1200.58 16.817 1198.68 17.9538 1196.67 19.0811C1180.12 28.4524 1163.71 30.3916 1146.33 32.4455C1139.51 33.2479 1132.46 34.079 1125.32 35.3973C1117.37 36.8588 1110.22 39.6292 1103.31 42.3135C1094.2 45.8385 1085.6 49.1725 1076.16 49.1725C1069.76 49.1725 1063.52 47.6344 1057.08 44.4629C1043.78 37.9288 1029.28 31.8723 1013.26 31.8723C1007.95 31.8723 1002.75 32.5028 997.355 33.7924C994.9 34.3847 992.492 34.996 990.123 35.5978C980.857 37.9574 972.107 40.1832 963.232 40.1832C956.02 40.1832 949.256 38.6834 942.55 35.6074L939.694 34.2891C927.495 28.6529 914.885 22.8163 901.979 22.8163C894.863 22.8163 888.281 24.5452 881.861 28.1084C873.78 32.5887 862.966 51.4556 862.985 64.6003C862.994 70.7906 865.364 75.3663 869.825 77.831ZM882.654 29.5032C888.825 26.0833 895.149 24.4115 901.989 24.4115C914.532 24.4115 926.989 30.1623 939.025 35.7316L941.882 37.0499C948.798 40.231 955.791 41.769 963.232 41.769C972.307 41.769 981.153 39.5146 990.515 37.1359C992.875 36.5341 995.272 35.9227 997.728 35.34C1002.99 34.079 1008.07 33.4676 1013.25 33.4676C1028.94 33.4676 1043.24 39.4381 1056.35 45.8958C1063.02 49.1724 1069.5 50.7677 1076.15 50.7677C1085.9 50.7677 1094.63 47.3861 1103.88 43.8038C1110.72 41.1481 1117.8 38.4064 1125.6 36.9735C1132.7 35.6648 1139.72 34.8433 1146.51 34.0408C1164.05 31.9679 1180.63 30.019 1197.47 20.4853C1199.48 19.3485 1201.39 18.2021 1203.24 17.1036C1211.2 12.3463 1218.07 8.22907 1227.06 8.22907C1229.84 8.22907 1232.7 8.61115 1235.78 9.38493C1244.35 11.5534 1250.26 17.0845 1253.32 25.8349C1264.19 56.7956 1237.76 119.242 1223.24 138.434C1212.72 152.324 1199.19 160.119 1185.13 160.377L1184.4 160.386C1170.39 160.386 1156.9 152.744 1146.4 138.854C1141.12 131.862 1137.07 123.398 1132.78 114.437C1123.8 95.666 1114.51 76.2452 1093.02 71.1727C1090.34 70.5422 1087.94 70.2364 1085.68 70.2364C1077.81 70.2364 1073.27 73.962 1068.03 78.2799C1064.87 80.8687 1061.62 83.5531 1057.22 85.7884C1051.77 88.5683 1046.4 89.9249 1040.82 89.9249C1029.08 89.9249 1018.58 83.9925 1007.47 77.7068C996.428 71.4592 985.003 65.0015 972.307 65.0015L971.505 65.011C965.286 65.1448 960.032 66.4344 954.959 67.6859C950.25 68.8418 945.808 69.9403 941.098 69.9403C936.417 69.9403 932.071 68.8704 927.409 66.5681C925.451 65.6033 923.598 64.562 921.811 63.559C916.786 60.7313 912.048 58.0661 906.498 58.0661C903.575 58.0661 900.633 58.7922 897.509 60.292C895.035 61.4765 892.217 64.2755 889.226 67.2369C884.479 71.956 879.081 77.3055 874.009 77.3055C872.805 77.3055 871.678 77.0094 870.57 76.4076C866.596 74.22 864.58 70.2365 864.571 64.5716C864.58 51.2359 875.843 33.2766 882.654 29.5032Z" fill="#5D5D5D"/>
<path d="M661.602 191.949C663.665 192.484 667.381 192.771 672.081 192.771C681.901 192.771 718.345 191.309 775.175 172.538C822.701 156.843 878.269 148.197 931.651 148.197C1019.52 148.197 1077.89 161.361 1153.08 233.332C1158.42 238.443 1165.56 241.032 1174.33 241.032C1207.01 241.032 1256.43 205.467 1286.83 160.052C1310.59 124.583 1345.12 52.1342 1309.46 -34.4718C1294.1 -71.7565 1274.84 -76.8958 1256.29 -76.8958C1233.38 -76.8958 1204.72 -67.6582 1171.48 -56.9495C1126.73 -42.5247 1076.01 -26.1799 1019.78 -26.1799C974.944 -26.1799 933.781 -36.5066 893.936 -57.7616C768.011 -124.918 766.301 -250.022 775.978 -338.29C778.968 -365.63 774.726 -387.258 764.027 -399.189C757.589 -406.373 748.991 -410.013 738.464 -410.013C714.543 -410.013 684.404 -390.467 673.075 -353.125C662.844 -319.385 691.922 -282.635 725.596 -240.058C768.622 -185.674 822.166 -117.992 811.734 -27.2785C808.744 -1.2948 801.809 23.3992 791.119 46.135C774.115 82.302 751.628 113.005 724.287 137.384C706.252 153.471 688.149 164.714 674.928 172.92C662.891 180.39 655.622 184.909 656.147 188.338C656.395 189.905 658.124 191.051 661.602 191.949ZM675.453 173.761C688.703 165.536 706.844 154.263 724.946 138.129C752.392 113.664 774.956 82.8561 792.017 46.5649C802.754 23.7336 809.718 -1.06552 812.718 -27.1447C823.197 -118.25 769.51 -186.113 726.36 -240.641C692.859 -282.989 663.923 -319.566 674.011 -352.81C685.197 -389.703 714.916 -409.009 738.473 -409.009C748.704 -409.009 757.063 -405.475 763.311 -398.511C773.819 -386.79 777.984 -365.43 775.022 -338.366C765.326 -249.821 767.055 -124.316 893.497 -56.8731C933.485 -35.5512 974.801 -25.1769 1019.79 -25.1769C1076.18 -25.1769 1126.99 -41.5504 1171.85 -56.0134C1204.96 -66.6839 1233.54 -75.8929 1256.31 -75.8929C1274.52 -75.8929 1293.44 -70.8298 1308.59 -34.0801C1344.07 52.1055 1309.7 124.22 1286.05 159.537C1256.3 203.948 1206.2 240.086 1174.35 240.086C1165.84 240.086 1158.91 237.583 1153.76 232.654C1117.33 197.777 1083.42 175.605 1047.06 162.88C1015.76 151.933 981.249 147.252 931.67 147.252C878.193 147.252 822.51 155.916 774.898 171.64C718.202 190.364 681.882 191.825 672.1 191.825C667.486 191.825 663.856 191.548 661.869 191.032C658.898 190.268 657.303 189.322 657.131 188.233C656.682 185.406 664.553 180.524 675.453 173.761Z" fill="#5D5D5D"/>
<path d="M1129.22 80.0756C1132.76 81.499 1134.81 82.6548 1137.42 84.1069C1138.45 84.68 1139.56 85.3105 1140.88 86.0174C1154.17 93.1438 1165.32 100.395 1173.12 106.996C1177.53 110.721 1181.14 112.536 1184.17 112.536C1188.6 112.536 1191.18 108.772 1193.25 105.247C1201.07 91.9402 1203.82 81.6709 1207.02 63.6733C1207.41 61.4762 1207.49 58.3907 1205.64 56.1935C1203.31 53.4136 1198.7 52.9265 1191.92 54.7988C1171.46 60.4637 1157.66 63.0811 1140.19 66.3864C1137.13 66.9596 1133.99 67.5614 1130.68 68.1919C1127.31 68.8415 1124.77 71.2105 1124.5 73.9618C1124.39 75.1941 1124.62 78.2223 1129.22 80.0756ZM1131.05 70.0356C1134.35 69.4051 1137.49 68.8032 1140.55 68.2301C1158.06 64.9152 1171.89 62.2977 1192.43 56.6138C1194.97 55.9069 1197.19 55.5534 1199.02 55.5534C1201.45 55.5534 1203.21 56.1744 1204.23 57.4067C1205.62 59.0594 1205.52 61.5622 1205.21 63.3677C1202.04 81.136 1199.34 91.262 1191.66 104.321C1189.41 108.142 1187.28 110.692 1184.18 110.692C1181.61 110.692 1178.39 109.021 1174.33 105.591C1166.43 98.9137 1155.17 91.5868 1141.77 84.3935C1140.46 83.6961 1139.36 83.0752 1138.34 82.502C1135.67 81.0118 1133.57 79.8272 1129.93 78.3656C1127.5 77.3912 1126.21 75.8627 1126.38 74.1719C1126.55 72.2518 1128.52 70.5227 1131.05 70.0356Z" fill="#5D5D5D"/>
<path d="M832.769 114.084C835.74 114.084 839.399 113.836 843.946 113.32C845.914 113.1 892.77 107.855 943.018 107.855C962.602 107.855 980.064 108.667 994.909 110.263C1069.13 118.239 1133.36 153.633 1164.09 185.167C1169.75 190.965 1176.5 193.907 1184.16 193.907C1201.36 193.907 1222.54 178.938 1242.29 152.84C1276.88 107.129 1287.34 19.6351 1270.2 -14.8219C1265.66 -23.964 1259.3 -28.7977 1251.81 -28.7977C1251.18 -28.7977 1250.56 -28.7691 1249.92 -28.7022C1236.35 -27.3171 1217.52 -21.7956 1193.68 -14.7934C1149.03 -1.69644 1087.89 16.2343 1021.58 17.2947C964.933 18.2308 900.174 -4.19919 878.155 -14.9366C870.961 -18.4425 866.309 -20.0092 863.071 -20.0092C856.498 -20.0092 856.221 -13.7616 855.744 -3.41591C855.371 4.80907 854.855 16.0623 850.843 28.93C843.554 52.3057 835.291 70.0263 829.263 82.9704C822.567 97.3283 818.526 106.002 821.392 110.502C822.987 112.985 826.493 114.084 832.769 114.084ZM830.152 83.3811C836.199 70.4179 844.471 52.6592 851.779 29.2261C855.83 16.2343 856.345 4.90464 856.718 -3.3681C857.177 -13.4654 857.425 -19.0348 863.071 -19.0348C866.109 -19.0348 870.77 -17.4586 877.734 -14.0578C899.4 -3.5019 962.258 18.2976 1018.29 18.2976C1019.39 18.2976 1020.5 18.2882 1021.6 18.2691C1088.03 17.1992 1149.25 -0.75062 1193.95 -13.8667C1217.75 -20.8498 1236.55 -26.3618 1250.03 -27.7374C1258.03 -28.5494 1264.54 -24.05 1269.34 -14.3921C1286.37 19.8261 1275.93 106.795 1241.53 152.257C1221.96 178.117 1201.05 192.943 1184.16 192.943C1176.77 192.943 1170.24 190.096 1164.78 184.498C1133.93 152.84 1069.48 117.303 995.005 109.298C980.122 107.703 962.63 106.891 943.009 106.891C892.704 106.891 845.799 112.135 843.831 112.364C839.313 112.88 835.702 113.129 832.76 113.129C826.923 113.129 823.57 112.126 822.204 109.986C819.644 105.926 823.598 97.4428 830.152 83.3811Z" fill="#5D5D5D"/>
<path d="M760.531 151.063C763.53 151.063 767.38 150.299 771.383 148.914C816.587 133.238 869.013 125.615 931.651 125.615C1009.67 125.615 1086.98 132.76 1174.82 219.137C1177.34 221.611 1180.65 222.872 1184.68 222.872C1209.25 222.872 1254.64 175.805 1268.09 147.433C1269.31 144.844 1270.65 142.112 1272.06 139.218C1289.18 104.083 1317.85 45.2753 1288.56 -25.855C1276.86 -54.2842 1265.93 -54.2843 1256.29 -54.2843C1236.93 -54.2843 1209.82 -45.5434 1178.42 -35.427C1132.09 -20.4864 1079.58 -3.55875 1019.78 -3.55875C968.61 -3.55875 927.209 -12.9587 885.53 -34.0417C879.072 -37.3088 872.863 -40.8721 867.379 -44.015C856.403 -50.3103 847.739 -55.2872 842.16 -55.2872C837.813 -55.2872 835.654 -52.2495 835.578 -46.0019C835.568 -45.0084 835.721 -43.4035 835.941 -41.1872C841.911 20.0846 818.182 77.2869 765.431 128.815C756.213 137.814 752.325 144.281 753.844 148.035C754.665 150.013 756.977 151.063 760.531 151.063ZM766.11 129.493C800.041 96.3448 822.28 60.3783 832.196 22.5873C840.173 -7.80021 837.89 -31.2715 836.906 -41.302C836.695 -43.4896 836.543 -45.0753 836.552 -46.0115C836.648 -53.4818 839.8 -54.3415 842.16 -54.3415C847.481 -54.3415 856.479 -49.1735 866.902 -43.1934C872.394 -40.041 878.623 -36.4682 885.1 -33.1915C926.922 -12.032 968.458 -2.60347 1019.78 -2.60347C1079.73 -2.60347 1132.32 -19.5597 1178.72 -34.5194C1210.03 -44.6072 1237.07 -53.3194 1256.28 -53.3194C1265.62 -53.3194 1276.2 -53.3194 1287.66 -25.492C1316.77 45.2371 1288.23 103.806 1271.18 138.798C1269.77 141.692 1268.44 144.424 1267.2 147.013C1253.85 175.184 1208.91 221.898 1184.66 221.898C1180.9 221.898 1177.82 220.732 1175.49 218.439C1134.67 178.308 1092.43 152.038 1046.35 138.1C1005.27 125.682 967.159 124.64 931.632 124.64C868.879 124.64 816.358 132.283 771.048 147.997C767.141 149.353 763.406 150.099 760.512 150.099C758.324 150.099 755.554 149.678 754.732 147.663C753.987 145.771 754.436 140.899 766.11 129.493Z" fill="#5D5D5D"/>
<path d="M643.948 14.9545C666.015 12.4421 686.821 -2.72778 696.947 -23.6962C706.194 -42.8401 711.19 -75.3101 682.522 -121.288C670.209 -141.024 656.787 -160.961 643.805 -180.238C606.682 -235.349 571.624 -287.412 557.142 -339.637C540.768 -398.712 553.922 -447.441 598.524 -492.998C637.146 -532.442 688.206 -555.072 738.598 -555.072C776.465 -555.072 810.244 -541.756 833.725 -517.558C859.527 -490.973 872.414 -452.093 871.009 -405.112C870.685 -394.203 870.169 -382.93 869.615 -371.008C867.666 -328.594 865.45 -280.524 872.299 -240.526C880.18 -194.539 898.865 -166.129 929.415 -153.672C945.77 -147.004 961.274 -143.632 975.498 -143.632C1001.36 -143.632 1023.37 -154.914 1039.15 -176.264C1065.98 -212.575 1072.41 -274.754 1055.15 -330.992C1018.11 -451.653 929.1 -523.691 797.491 -600.811C697.52 -659.389 613.083 -677.473 536.727 -688.296C531.034 -689.099 525.617 -689.509 520.612 -689.509C488.724 -689.509 473.545 -673.269 454.334 -652.712C446.95 -644.821 439.327 -636.653 429.85 -628.323C418.941 -618.732 409.445 -612.886 401.058 -607.737C387.607 -599.464 375.991 -592.328 363.21 -573.223C337.837 -535.288 371.788 -512.018 407.726 -487.381C426.717 -474.361 446.357 -460.901 456.875 -444.976C522.99 -344.815 496.309 -237.957 449.3 -171.364C435.859 -152.325 416.237 -134.356 395.46 -115.317C370.049 -92.0467 343.779 -67.9832 328.752 -41.1206C322.285 -29.5616 320.451 -21.7092 323.135 -17.1239C325.103 -13.7709 329.45 -12.1469 336.414 -12.1469H336.423C348.823 -12.1469 368.521 -17.2863 391.333 -23.2377C423.326 -31.5773 463.142 -41.9612 498.306 -41.9612C516.943 -41.9612 532.925 -38.9904 545.793 -33.1345C558.613 -27.2977 569.465 -18.8625 579.954 -10.7044C597.206 2.71729 613.503 15.3844 636.535 15.3844C638.962 15.3844 641.455 15.241 643.948 14.9545ZM546.204 -34.0228C533.03 -40.022 517.364 -42.9357 498.315 -42.9357C463.018 -42.9357 423.144 -32.5326 391.094 -24.1835C368.349 -18.2512 348.699 -13.1309 336.423 -13.1213H336.414C329.813 -13.1213 325.743 -14.5924 323.967 -17.6302C321.464 -21.8908 323.307 -29.428 329.593 -40.662C344.543 -67.3909 370.756 -91.3972 396.11 -114.62C416.925 -133.688 436.585 -151.695 450.093 -170.81C477.652 -209.852 493.911 -254.359 497.121 -299.534C500.789 -351.186 487.521 -400.297 457.678 -445.511C447.064 -461.598 427.338 -475.115 408.27 -488.183C372.734 -512.543 339.165 -535.546 364.012 -572.688C376.679 -591.621 388.209 -598.71 401.564 -606.916C409.98 -612.093 419.514 -617.949 430.49 -627.597C440.005 -635.966 447.647 -644.143 455.041 -652.053C474.099 -672.438 489.145 -688.535 520.612 -688.535C525.56 -688.535 530.938 -688.134 536.584 -687.331C612.844 -676.527 697.176 -658.463 796.994 -599.971C928.403 -522.965 1017.26 -451.061 1054.21 -330.705C1071.39 -274.745 1065.03 -212.909 1038.37 -176.828C1022.78 -155.735 1001.04 -144.587 975.498 -144.587C961.398 -144.587 946.018 -147.94 929.778 -154.56C899.563 -166.874 881.078 -195.045 873.254 -240.679C866.414 -280.581 868.631 -328.594 870.579 -370.961C871.124 -382.892 871.649 -394.164 871.974 -405.083C873.388 -452.332 860.406 -491.45 834.412 -518.227C810.75 -542.606 776.723 -556.028 738.598 -556.028C687.948 -556.028 636.64 -533.292 597.837 -493.667C574.136 -469.469 559.511 -444.498 553.101 -417.321C547.379 -393.056 548.401 -367.56 556.215 -339.369C570.735 -286.991 605.842 -234.871 643.002 -179.684C655.985 -160.416 669.397 -140.489 681.701 -120.763C710.14 -75.1573 705.21 -43.0312 696.078 -24.1071C686.095 -3.43475 665.585 11.525 643.843 13.9992C641.388 14.2762 638.933 14.4196 636.545 14.4196C613.847 14.4196 597.684 1.84808 580.556 -11.4686C570.028 -19.6649 559.129 -28.1382 546.204 -34.0228Z" fill="#5D5D5D"/>
<path d="M1330.71 352.17C1328.87 352.17 1325.74 352.37 1321.8 352.628C1315.15 353.058 1306.05 353.641 1297 353.641C1274.57 353.641 1262.82 349.953 1262.07 342.674C1260.96 331.736 1286.96 315.477 1304.16 304.711C1311 300.432 1316.91 296.744 1319.66 294.337C1341.08 275.556 1360.87 252.161 1378.47 224.792C1390.13 206.661 1398.71 187.116 1407.78 166.424C1414.61 150.853 1425.48 134.68 1439.64 123.513V122.309C1425.05 133.601 1413.88 150.118 1406.89 166.033C1397.83 186.686 1389.27 206.193 1377.66 224.267C1360.11 251.559 1340.38 274.887 1319.03 293.611C1316.33 295.97 1310.46 299.648 1303.66 303.899C1285.21 315.439 1259.93 331.239 1261.12 342.779C1261.94 350.737 1273.68 354.606 1297.01 354.606C1306.08 354.606 1315.21 354.023 1321.86 353.584C1325.8 353.335 1328.91 353.134 1330.72 353.134C1364.69 353.134 1394.88 358.58 1422.2 369.632H1424.82C1396.78 357.911 1365.73 352.17 1330.71 352.17Z" fill="#5D5D5D"/>
<path d="M637.796 91.0997C685.847 85.6259 743.078 28.5095 758.429 -15.1279C785.072 -90.9009 737.709 -151.915 691.913 -210.913C647.702 -267.857 605.947 -321.65 626.256 -387.134C643.948 -444.193 701.083 -474.972 745.858 -474.972C769.988 -474.972 790.871 -466.413 804.636 -450.861C820.991 -432.395 827.42 -404.358 823.226 -369.758C808.801 -250.863 804.502 -120.801 937.048 -82.4753C952.266 -78.0715 967.273 -75.8456 981.679 -75.8456C1037.48 -75.8456 1073.1 -107.819 1093.15 -134.634C1131.6 -186.057 1144.95 -262.966 1126.38 -326.025C1110.61 -379.501 1079.61 -431.354 1031.58 -484.554C960.204 -563.632 862.985 -631.629 734.385 -692.423L728.825 -695.06C674.727 -720.652 618.776 -747.113 559.883 -761.701C556.387 -762.57 552.527 -763.592 548.401 -764.691C530.203 -769.524 507.553 -775.543 488.132 -775.543C480.356 -775.543 473.612 -774.54 468.109 -772.572C459.722 -769.572 455.003 -763.831 450.436 -758.271C447.026 -754.135 443.511 -749.845 438.467 -746.779C435.19 -744.792 428.828 -742.327 422.093 -739.729C411.203 -735.516 399.931 -731.17 396.358 -726.986C389.48 -718.923 391.371 -714.07 393.205 -709.37C394.524 -705.998 395.766 -702.807 394.151 -698.079L392.881 -694.334C383.099 -665.561 383.099 -665.561 360.563 -659.046C356.207 -657.785 350.791 -656.218 344.371 -654.174C325.801 -648.251 318.177 -639.157 310.822 -630.359C305.157 -623.586 299.807 -617.195 289.729 -612.017C289.462 -612.046 289.156 -612.046 288.831 -612.046C277.196 -612.046 189.071 -606.247 182.308 -584.572C180.483 -578.735 184.447 -572.392 194.086 -565.724C206.161 -557.375 215.313 -556.41 221.14 -556.41C223.987 -556.41 226.556 -556.659 229.04 -556.897C231.17 -557.108 233.176 -557.299 235.087 -557.299C242.175 -557.299 249.349 -555.293 259.189 -531.047C261.606 -525.077 263.478 -520.195 265.026 -516.136C272.639 -496.199 272.897 -495.931 292.251 -487.659C297.047 -485.605 303.017 -483.064 310.621 -479.558C335.535 -468.066 340.646 -455.017 347.103 -438.49C350.523 -429.759 354.392 -419.862 361.719 -408.743C369.562 -396.83 378.771 -387.249 387.684 -377.973C403.465 -361.542 418.377 -346.019 423.125 -320.102C431.35 -275.213 406.971 -232.34 379.411 -192.696C366.047 -173.476 338.582 -151.093 309.504 -127.402C260.125 -87.1754 204.155 -41.5797 203.954 0.653442C203.84 24.7648 210.03 43.2687 222.363 55.6491C235.794 69.1377 256.199 75.7005 284.752 75.7005C326.154 75.7005 377.042 61.7343 421.95 49.4207C457.295 39.7245 487.826 31.3467 507.343 31.3467C511.756 31.3467 515.491 31.7957 518.462 32.6745C537.281 38.2725 552.203 50.2134 566.637 61.7628C585.79 77.0856 603.884 91.5582 629.753 91.5582C632.36 91.5677 635.073 91.4149 637.796 91.0997ZM519.064 30.5251C515.845 29.5698 512.004 29.1017 507.304 29.1017C487.482 29.1017 456.818 37.5082 421.31 47.2521C376.545 59.5275 325.81 73.4459 284.714 73.4555C256.791 73.4555 236.902 67.1125 223.92 54.0729C212.036 42.1318 206.065 24.163 206.171 0.682129C206.362 -40.481 261.892 -85.7232 310.889 -125.644C340.092 -149.431 367.68 -171.909 381.226 -191.387C409.063 -231.433 433.671 -274.783 425.303 -320.494C420.431 -347.079 405.299 -362.841 389.27 -379.521C380.433 -388.72 371.301 -398.225 363.563 -409.965C356.36 -420.894 352.539 -430.666 349.167 -439.293C342.518 -456.287 337.264 -469.718 311.529 -481.593C303.896 -485.108 297.916 -487.668 293.101 -489.722C274.445 -497.689 274.445 -497.689 267.099 -516.928C265.551 -520.988 263.679 -525.889 261.252 -531.879C251.871 -555.016 244.544 -559.544 235.058 -559.544C233.043 -559.544 230.979 -559.343 228.801 -559.133C226.365 -558.904 223.853 -558.655 221.121 -558.655C215.131 -558.655 206.782 -559.668 195.357 -567.568C186.625 -573.605 182.957 -579.098 184.447 -583.884C190.322 -602.722 272.477 -609.772 288.812 -609.772C289.204 -609.772 289.471 -609.763 289.605 -609.753L289.863 -610.794L290.36 -609.811C301.097 -615.237 306.915 -622.181 312.541 -628.907C320.031 -637.858 327.1 -646.302 345.05 -652.025C351.44 -654.059 356.838 -655.626 361.184 -656.877C384.637 -663.66 384.952 -664.004 395.02 -693.608L396.291 -697.343C398.173 -702.855 396.654 -706.743 395.317 -710.182C393.588 -714.634 392.088 -718.474 398.087 -725.505C401.287 -729.25 412.779 -733.692 422.915 -737.608C429.755 -740.245 436.212 -742.748 439.651 -744.84C445.01 -748.107 448.66 -752.539 452.185 -756.819C456.76 -762.379 461.078 -767.633 468.883 -770.422C474.147 -772.304 480.623 -773.269 488.141 -773.269C507.276 -773.269 529.763 -767.289 547.827 -762.493C551.964 -761.395 555.842 -760.363 559.348 -759.494C618.031 -744.964 673.867 -718.541 727.87 -692.997L733.429 -690.36C861.753 -629.7 958.733 -561.874 1029.91 -483.016C1077.7 -430.074 1108.55 -378.508 1124.21 -325.366C1142.6 -262.957 1129.39 -186.84 1091.35 -135.962C1071.6 -109.558 1036.55 -78.0811 981.679 -78.0811C967.493 -78.0811 952.686 -80.2781 937.678 -84.6152C806.833 -122.454 811.151 -251.484 825.461 -369.461C829.741 -404.721 823.121 -433.379 806.327 -452.342C792.122 -468.381 770.638 -477.208 745.848 -477.208C700.262 -477.208 642.095 -445.865 624.088 -387.774C603.435 -321.172 647.502 -264.399 690.117 -209.499C735.55 -150.979 782.521 -90.4615 756.289 -15.8539C741.148 27.1816 684.796 83.4955 637.529 88.8833C634.892 89.1794 632.265 89.3323 629.714 89.3323C604.638 89.3323 586.841 75.0986 568.013 60.0338C553.416 48.3316 538.313 36.2473 519.064 30.5251Z" fill="#5D5D5D"/>
<rect x="1" width="1440" height="387" fill="url(#paint0_linear_2_12603)"/>
</g>
<path d="M1074 234C1098.29 234 1122.35 238.811 1144.8 248.158C1167.24 257.506 1187.64 271.206 1204.81 288.478C1221.99 305.75 1235.62 326.254 1244.92 348.821C1254.21 371.387 1259 395.574 1259 420L1074 420L1074 234Z" fill="#FF7070"/>
<path d="M131 737C131 712.705 135.811 688.649 145.158 666.204C154.506 643.758 168.206 623.364 185.478 606.185C202.75 589.006 223.254 575.379 245.821 566.082C268.387 556.785 292.574 552 317 552L317 737L131 737Z" fill="#8AC69A"/>
<defs>
<linearGradient id="paint0_linear_2_12603" x1="721" y1="0" x2="721" y2="266.954" gradientUnits="userSpaceOnUse">
<stop stop-color="#E5F7EA" stop-opacity="0.77"/>
<stop offset="1" stop-color="#E5F7EA"/>
</linearGradient>
</defs>
</svg>
