<svg width="287" height="305" viewBox="0 0 287 305" fill="none" xmlns="http://www.w3.org/2000/svg">
<g filter="url(#filter0_d_2_12552)">
<rect x="60" y="40" width="147" height="165" rx="5" fill="#F9F9F9"/>
</g>
<path d="M148.938 119.259C145.42 126.774 136.93 137 131.565 137C126.278 137 125.516 125.722 122.627 118.219C121.205 114.525 120.287 115.375 117.623 117.239L116 115.142C119.884 111.727 123.774 107.76 126.16 107.54C128.854 107.285 130.509 109.123 131.125 113.058C131.945 118.231 133.089 126.261 135.083 126.261C136.638 126.261 140.469 119.892 140.668 117.614C141.019 114.279 138.213 114.177 135.781 115.218C139.631 102.612 155.642 104.937 148.938 119.259Z" fill="black"/>
<defs>
<filter id="filter0_d_2_12552" x="0" y="0" width="287" height="305" filterUnits="userSpaceOnUse" color-interpolation-filters="sRGB">
<feFlood flood-opacity="0" result="BackgroundImageFix"/>
<feColorMatrix in="SourceAlpha" type="matrix" values="0 0 0 0 0 0 0 0 0 0 0 0 0 0 0 0 0 0 127 0" result="hardAlpha"/>
<feOffset dx="10" dy="30"/>
<feGaussianBlur stdDeviation="35"/>
<feColorMatrix type="matrix" values="0 0 0 0 0 0 0 0 0 0 0 0 0 0 0 0 0 0 0.1 0"/>
<feBlend mode="normal" in2="BackgroundImageFix" result="effect1_dropShadow_2_12552"/>
<feBlend mode="normal" in="SourceGraphic" in2="effect1_dropShadow_2_12552" result="shape"/>
</filter>
</defs>
</svg>
