<svg width="58" height="57" viewBox="0 0 58 57" fill="none" xmlns="http://www.w3.org/2000/svg">
<rect y="9" width="46" height="48" rx="2" fill="#F5D0D0"/>
<path d="M45.0307 19.1327L45.796 20.1531C46.0511 20.4082 46.3063 20.6634 46.5614 20.6634C46.8164 20.6634 47.0716 20.6634 47.3267 20.4083L52.9389 15.3062C53.4492 14.7959 53.4492 14.0307 52.9389 13.5205L40.9491 0.510251C40.694 0.255177 40.4389 0 40.1838 0C39.9287 0 39.4185 0 39.1634 0.255074L33.5511 5.35717C33.0409 5.86742 33.0409 6.63264 33.5511 7.1429L34.3165 8.16329L25.1328 16.5817L24.3674 15.5613C23.8572 15.051 23.092 15.051 22.5817 15.5613L16.9695 20.6634C16.7144 20.9184 16.4592 21.1736 16.4592 21.4287C16.4592 21.6838 16.4592 22.194 16.7143 22.4491L28.7041 35.7144C28.9592 35.9695 29.2144 36.2246 29.4694 36.2246C29.7245 36.2246 29.9797 36.2246 30.2348 35.9696L35.847 30.8675C36.1021 30.6124 36.3573 30.3572 36.3573 30.1021C36.3573 29.8471 36.3573 29.3368 36.1022 29.0817L35.3369 28.0613L37.1226 26.2756L51.9185 42.3471C52.1736 42.6022 52.4288 42.8574 52.6839 42.8574C52.9389 42.8574 53.1941 42.8574 53.4492 42.6023L57.2757 39.0309C57.786 38.5206 57.786 37.7554 57.2757 37.2451L42.4797 21.1735L45.0307 19.1327ZM40.1838 2.80612L50.6431 14.0306L46.8165 17.347L46.0512 16.3266L37.3777 6.88772L36.6123 5.86732L40.1838 2.80612ZM29.9797 32.9083L19.5204 21.6837L23.3469 18.1122L25.1327 20.153L32.7857 28.5714L33.551 29.5918L29.9797 32.9083ZM26.9184 18.3674L36.3572 9.69384L43.245 17.0918L40.4389 19.6429L36.6123 23.4694L33.8062 26.0204L26.9184 18.3674ZM54.9797 37.7552L53.194 39.5409L39.4185 24.4899L41.2042 22.7042L54.9797 37.7552Z" fill="#3B4951"/>
<path d="M41.7145 48.7247V43.6226C41.7145 42.8573 41.2042 42.3471 40.439 42.3471H36.6125V38.5206C36.6125 37.7553 36.1022 37.2451 35.337 37.2451H12.3776C11.6122 37.2451 11.1021 37.7554 11.1021 38.5206V42.3471H7.27547C6.51025 42.3471 6 42.8574 6 43.6227V48.7248C6 49.4901 6.51025 50.0003 7.27547 50.0003H40.4389C41.2042 50.0003 41.7145 49.49 41.7145 48.7247ZM13.653 39.7961H34.0613V42.3471H13.653V39.7961ZM39.1634 47.4492H8.55105V44.8982H12.3776H35.3368H39.1633V47.4492H39.1634Z" fill="#3B4951"/>
</svg>
