<svg width="164" height="305" viewBox="0 0 164 305" fill="none" xmlns="http://www.w3.org/2000/svg">
<g filter="url(#filter0_d_2_12558)">
<rect x="60" y="40" width="147" height="165" rx="5" fill="#F9F9F9"/>
</g>
<path d="M145.268 128.6C141.57 133.527 133.673 131.864 128.609 132.102C128.609 132.102 127.712 132.153 126.81 132.301C126.81 132.301 127.152 132.156 127.588 132.005C131.143 130.775 132.824 130.528 134.985 129.418C139.044 127.339 143.086 122.808 143.908 118.102C142.362 122.628 137.662 126.524 133.383 128.106C130.454 129.187 125.157 130.239 125.155 130.239C125.158 130.242 124.944 130.128 124.941 130.125C121.339 128.373 121.234 120.569 127.778 118.054C130.648 116.952 133.39 117.557 136.492 116.818C139.799 116.032 143.631 113.553 145.187 110.312C146.932 115.491 149.029 123.591 145.268 128.6ZM145.331 108.709C144.892 109.755 144.354 110.697 143.736 111.54C141.011 108.743 137.207 107 133.001 107C124.728 107 118 113.728 118 121.999C118 126.335 119.85 130.245 122.801 132.984L123.13 133.275C122.582 132.829 122.496 132.023 122.941 131.473C123.389 130.923 124.195 130.839 124.743 131.284C125.293 131.731 125.378 132.538 124.932 133.088C124.489 133.637 123.681 133.721 123.132 133.276L123.355 133.474C125.964 135.673 129.328 137 133.001 137C140.906 137 147.399 130.847 147.955 123.082C148.365 119.279 147.242 114.45 145.331 108.709Z" fill="black"/>
<defs>
<filter id="filter0_d_2_12558" x="0" y="0" width="287" height="305" filterUnits="userSpaceOnUse" color-interpolation-filters="sRGB">
<feFlood flood-opacity="0" result="BackgroundImageFix"/>
<feColorMatrix in="SourceAlpha" type="matrix" values="0 0 0 0 0 0 0 0 0 0 0 0 0 0 0 0 0 0 127 0" result="hardAlpha"/>
<feOffset dx="10" dy="30"/>
<feGaussianBlur stdDeviation="35"/>
<feColorMatrix type="matrix" values="0 0 0 0 0 0 0 0 0 0 0 0 0 0 0 0 0 0 0.1 0"/>
<feBlend mode="normal" in2="BackgroundImageFix" result="effect1_dropShadow_2_12558"/>
<feBlend mode="normal" in="SourceGraphic" in2="effect1_dropShadow_2_12558" result="shape"/>
</filter>
</defs>
</svg>
