<svg width="39" height="47" viewBox="0 0 39 47" fill="none" xmlns="http://www.w3.org/2000/svg">
<path d="M39 46.3139H34.3071C34.3071 38.3971 27.6667 31.9585 19.4988 31.9585C11.3309 31.9585 4.69286 38.3994 4.69286 46.3139H0C0 35.8066 8.74983 27.2656 19.5012 27.2656C30.2502 27.2656 39 35.8066 39 46.3139Z" fill="#3B4951"/>
<path d="M19.501 25.7403C12.4077 25.7403 6.63318 19.9634 6.63318 12.8702C6.63083 5.77456 12.4054 0 19.501 0C26.5989 0 32.3735 5.77222 32.3735 12.8702C32.3735 19.9681 26.5989 25.7403 19.501 25.7403ZM19.501 4.69286C14.9912 4.69286 11.3237 8.36033 11.3237 12.8702C11.3237 17.38 14.9912 21.0475 19.501 21.0475C24.0132 21.0475 27.6807 17.38 27.6807 12.8702C27.6807 8.36033 24.0085 4.69286 19.501 4.69286Z" fill="#3B4951"/>
</svg>
