<svg width="287" height="305" viewBox="0 0 287 305" fill="none" xmlns="http://www.w3.org/2000/svg">
<g filter="url(#filter0_d_2_12555)">
<rect x="60" y="40" width="147" height="165" rx="5" fill="#F9F9F9"/>
</g>
<path d="M125.295 125.957C125.295 127.692 123.884 129.109 122.148 129.109C120.416 129.109 119 127.692 119 125.957C119 124.221 120.416 122.805 122.148 122.805H125.295V125.957ZM126.883 125.957C126.883 124.221 128.296 122.805 130.032 122.805C131.761 122.805 133.178 124.221 133.178 125.957V133.849C133.178 135.584 131.763 137 130.032 137C128.296 137 126.883 135.584 126.883 133.849V125.957ZM130.032 113.304C128.296 113.304 126.883 111.886 126.883 110.151C126.883 108.417 128.296 107 130.032 107C131.761 107 133.178 108.416 133.178 110.151V113.304H130.032ZM130.032 114.891C131.761 114.891 133.178 116.308 133.178 118.043C133.178 119.779 131.763 121.195 130.032 121.195H122.15C120.417 121.195 119.001 119.779 119.001 118.043C119.001 116.308 120.417 114.891 122.15 114.891H130.032ZM142.672 118.043C142.672 116.308 144.083 114.891 145.819 114.891C147.551 114.891 148.967 116.308 148.967 118.043C148.967 119.779 147.551 121.195 145.819 121.195H142.672V118.043ZM141.084 118.043C141.084 119.779 139.671 121.195 137.936 121.195C136.206 121.195 134.789 119.779 134.789 118.043V110.151C134.789 108.416 136.204 107 137.936 107C139.671 107 141.084 108.416 141.084 110.151V118.043ZM137.936 130.696C139.671 130.696 141.084 132.114 141.084 133.849C141.084 135.583 139.671 137 137.936 137C136.206 137 134.789 135.584 134.789 133.849V130.696H137.936ZM137.936 129.109C136.206 129.109 134.789 127.692 134.789 125.957C134.789 124.221 136.204 122.805 137.936 122.805H145.819C147.551 122.805 148.967 124.221 148.967 125.957C148.967 127.692 147.551 129.109 145.819 129.109H137.936Z" fill="black"/>
<defs>
<filter id="filter0_d_2_12555" x="0" y="0" width="287" height="305" filterUnits="userSpaceOnUse" color-interpolation-filters="sRGB">
<feFlood flood-opacity="0" result="BackgroundImageFix"/>
<feColorMatrix in="SourceAlpha" type="matrix" values="0 0 0 0 0 0 0 0 0 0 0 0 0 0 0 0 0 0 127 0" result="hardAlpha"/>
<feOffset dx="10" dy="30"/>
<feGaussianBlur stdDeviation="35"/>
<feColorMatrix type="matrix" values="0 0 0 0 0 0 0 0 0 0 0 0 0 0 0 0 0 0 0.1 0"/>
<feBlend mode="normal" in2="BackgroundImageFix" result="effect1_dropShadow_2_12555"/>
<feBlend mode="normal" in="SourceGraphic" in2="effect1_dropShadow_2_12555" result="shape"/>
</filter>
</defs>
</svg>
