<svg width="175" height="305" viewBox="0 0 175 305" fill="none" xmlns="http://www.w3.org/2000/svg">
<g filter="url(#filter0_d_2_12549)">
<rect x="-52" y="40" width="147" height="165" rx="5" fill="#F9F9F9"/>
</g>
<path d="M39.368 112.66C39.4052 112.6 39.3857 112.529 39.3344 112.489C39.3273 112.481 39.3202 112.474 39.3131 112.471L39.3025 112.467L28.6107 107.119C28.538 107.083 28.4636 107.06 28.3874 107.039C28.2882 107.014 28.1925 107 28.0932 107C27.6838 107 27.2745 107.206 27.0547 107.562L20.898 117.568L28.6231 130.12L39.368 112.66ZM37.4824 136.662C38.5652 137.204 39.4442 136.825 39.4442 135.814V115.767L29.1495 132.495L37.4824 136.662ZM17.5078 115.289V126.677L27.6289 131.737L17.5078 115.289ZM4.98181 132.227L14.1796 136.826C14.4135 136.943 14.6386 137 14.8424 137C15.4148 137 15.8153 136.557 15.8153 135.814V112.609C15.8153 112.565 15.7905 112.524 15.7533 112.504L5.30966 107.285C5.12004 107.19 4.94104 107.145 4.778 107.145C4.32077 107.145 4 107.498 4 108.092V130.64C4 131.244 4.44305 131.958 4.98181 132.227Z" fill="#2C373E"/>
<defs>
<filter id="filter0_d_2_12549" x="-112" y="0" width="287" height="305" filterUnits="userSpaceOnUse" color-interpolation-filters="sRGB">
<feFlood flood-opacity="0" result="BackgroundImageFix"/>
<feColorMatrix in="SourceAlpha" type="matrix" values="0 0 0 0 0 0 0 0 0 0 0 0 0 0 0 0 0 0 127 0" result="hardAlpha"/>
<feOffset dx="10" dy="30"/>
<feGaussianBlur stdDeviation="35"/>
<feColorMatrix type="matrix" values="0 0 0 0 0 0 0 0 0 0 0 0 0 0 0 0 0 0 0.1 0"/>
<feBlend mode="normal" in2="BackgroundImageFix" result="effect1_dropShadow_2_12549"/>
<feBlend mode="normal" in="SourceGraphic" in2="effect1_dropShadow_2_12549" result="shape"/>
</filter>
</defs>
</svg>
