<svg width="1440" height="349" viewBox="0 0 1440 349" fill="none" xmlns="http://www.w3.org/2000/svg">
<path d="M419.839 287.588C413.563 262.817 362.952 256.187 304.346 248.516C289.864 246.625 274.885 244.657 260.345 242.364C196.093 232.219 137.267 199.969 80.3797 168.769C51.8932 153.151 22.7857 137.207 -6.99048 124.081V126.546C22.394 139.557 51.1385 155.319 79.2907 170.756C136.35 202.042 195.348 234.397 259.992 244.6C274.57 246.902 289.558 248.86 304.059 250.761C359.446 258.012 411.758 264.852 417.652 288.142C422.247 306.282 398.613 333.814 345.404 372.292C270.748 426.285 208.101 451.438 148.262 451.428C114.254 451.428 80.5325 442.983 48.0338 426.333C27.8009 415.978 10.004 403.377 -6.99048 390.653V393.471C9.67921 405.899 27.1513 418.175 47.0021 428.348C79.8256 445.161 113.891 453.692 148.262 453.692C148.262 453.692 148.262 453.692 148.272 453.692C208.617 453.692 271.675 428.406 346.732 374.127C401.527 334.501 424.759 307.008 419.839 287.588Z" fill="#5D5D5D"/>
<path d="M498.985 196.693C493.425 196.693 485.592 200.237 479.822 217.108C473.345 236.079 485.831 240.493 499.052 245.155C501.373 245.976 503.771 246.817 506.092 247.753C511.298 249.845 515.683 250.905 519.113 250.905C522.915 250.905 525.656 249.625 527.252 247.094C532.19 239.261 524.271 221.932 520.632 214.843C514.757 203.485 506.665 196.693 498.985 196.693ZM525.886 246.244C523.306 250.342 516.791 250.323 506.694 246.263C504.334 245.317 501.927 244.467 499.587 243.636C486.604 239.05 475.38 235.095 481.35 217.633C485.668 204.985 491.772 198.308 498.985 198.308C506.044 198.308 513.601 204.765 519.189 215.589C526.507 229.841 529 241.305 525.886 246.244Z" fill="#5D5D5D"/>
<path d="M61.8663 399.337C86.398 411.908 107.242 417.764 127.466 417.764C148.635 417.764 167.454 411.402 189.253 404.037C201.615 399.862 215.629 395.124 231.515 391.14C239.568 389.115 246.599 388.886 251.184 388.886C254.27 388.886 257.222 389.01 260.068 389.125C262.772 389.23 265.332 389.335 267.864 389.335C280.951 389.335 291.354 386.24 302.75 370.841C310.44 360.447 313.325 352.423 315.866 345.335C319.669 334.74 322.678 326.372 339.414 314.412C343.703 311.336 349.855 308.919 355.797 306.588C365.369 302.824 373.632 299.576 373.967 294.064C374.244 289.603 369.047 284.626 357.612 278.398C343.914 270.966 324.359 269.963 307.04 269.963C299.311 269.963 291.201 270.202 283.358 270.431C275.477 270.66 267.329 270.899 259.524 270.899C242.138 270.899 229.948 269.695 220.013 266.992C163.833 251.736 111.168 222.848 64.694 197.371C40.3056 183.997 16.6337 171.034 -6.99048 159.895V161.681C16.3757 172.734 39.7897 185.554 63.9202 198.794C110.471 224.319 163.231 253.255 219.593 268.558C229.681 271.3 241.994 272.513 259.533 272.513C267.357 272.513 275.525 272.274 283.416 272.045C291.249 271.816 299.35 271.577 307.049 271.577C324.168 271.577 343.465 272.561 356.848 279.821C367.375 285.553 372.591 290.31 372.362 293.969C372.085 298.449 363.889 301.678 355.205 305.088C349.168 307.467 342.93 309.913 338.478 313.103C321.331 325.369 318.102 334.368 314.357 344.8C311.854 351.773 309.017 359.683 301.461 369.885C290.466 384.74 280.454 387.73 267.873 387.73C265.38 387.73 262.839 387.625 260.145 387.52C257.269 387.405 254.308 387.281 251.194 387.281C246.522 387.281 239.367 387.52 231.133 389.583C215.189 393.586 201.137 398.334 188.747 402.518C167.091 409.835 148.377 416.159 127.475 416.159C107.519 416.159 86.9043 410.361 62.6114 397.913C40.4011 386.526 20.4166 371.385 1.09122 356.731C-1.59313 354.696 -4.27748 352.662 -6.98093 350.627V352.642C-4.61182 354.429 -2.24272 356.225 0.116827 358.011C19.4804 372.703 39.5223 387.892 61.8663 399.337Z" fill="#5D5D5D"/>
<path d="M76.7305 370.325C100.584 382.543 123.969 388.484 148.243 388.494C161.827 388.494 191.164 382.953 216.737 373.668C239.138 365.539 265.857 352.05 265.924 333.89C266.001 312.511 224.723 300.637 200.058 293.548C194.698 292.001 190.065 290.673 186.97 289.555C142.807 273.554 98.979 253.35 49.0273 225.962C29.9599 215.502 11.351 205.299 -6.99048 196.129V197.218C11.1981 206.322 29.6542 216.438 48.5592 226.803C98.5587 254.219 142.425 274.443 186.636 290.463C189.76 291.59 194.402 292.927 199.79 294.475C224.188 301.496 265.026 313.246 264.959 333.89C264.854 365.262 176.405 387.52 148.233 387.52C124.132 387.51 100.89 381.606 77.1795 369.455C57.4529 359.348 38.6147 345.067 20.3975 331.253C11.5802 324.566 2.50503 317.698 -6.98093 311.011V312.196C2.29487 318.749 11.1694 325.474 19.8148 332.027C38.0607 345.869 56.9275 360.179 76.7305 370.325Z" fill="#5D5D5D"/>
<path d="M87.0285 350.206C107.605 360.743 127.609 365.873 148.233 365.892C166.135 365.892 189.511 360.581 198.52 348.926C202.436 343.854 203.544 337.912 201.806 331.263C197.717 315.616 164.941 304.544 141.002 296.462C133.264 293.845 126.587 291.59 122.479 289.689C94.8236 276.86 67.4547 261.843 40.9838 247.322L38.032 245.708C22.7379 237.311 7.74954 229.096 -6.99048 221.482V222.571C7.59669 230.108 22.4322 238.238 37.5735 246.539L40.5253 248.163C67.0057 262.693 94.3937 277.71 122.078 290.558C126.224 292.479 132.93 294.752 140.696 297.37C163.088 304.926 196.915 316.351 200.87 331.502C202.522 337.845 201.481 343.51 197.755 348.324C188.948 359.721 165.916 364.918 148.186 364.918C127.771 364.908 107.911 359.807 87.4774 349.337C69.5181 340.138 51.4824 326.458 34.0294 313.227C21.4101 303.674 7.86417 293.424 -6.99048 283.719V284.875C7.6349 294.456 20.9993 304.572 33.4562 314.011C50.9283 327.27 69.0023 340.969 87.0285 350.206Z" fill="#5D5D5D"/>
<path d="M565.912 19.3535C567.526 12.8385 569.112 6.41895 570.602 0.0185547H568.94C567.479 6.28521 565.921 12.5805 564.345 18.9618C561.384 30.9315 558.317 43.312 555.834 55.9504C547.561 98.0783 540.434 153.303 558.871 206.904C566.361 228.685 585.037 246.482 601.506 262.186C616.169 276.162 628.827 288.227 627.68 298.372C627.155 303.034 623.745 307.18 617.268 311.049C614.278 312.835 609.157 313.733 602.06 313.733C577.28 313.733 533.556 302.795 501.22 291.953C466.047 280.165 422.715 261.374 415.99 238.849C413.85 231.675 415.608 224.424 421.215 217.307C428.408 208.184 436.127 200.15 443.597 192.393C458.29 177.118 472.17 162.694 481.35 141.276C494.447 110.736 496.042 78.8867 486.079 46.6077C483.662 38.7839 481.236 31.5811 479.086 25.2285C475.915 15.8285 473.154 7.63216 471.272 0.0185547H469.591C471.501 7.785 474.31 16.1533 477.548 25.7443C479.688 32.0874 482.114 39.2902 484.531 47.0853C494.38 78.9822 492.814 110.459 479.86 140.636C470.794 161.777 457.01 176.106 442.422 191.266C434.923 199.052 427.176 207.114 419.935 216.304C413.984 223.86 412.13 231.598 414.423 239.307C421.339 262.492 465.149 281.56 500.685 293.472C533.146 304.353 577.07 315.338 602.031 315.338C609.425 315.338 614.822 314.354 618.07 312.425C625.015 308.288 628.683 303.741 629.266 298.544C630.498 287.606 617.574 275.283 602.595 261.011C586.25 245.44 567.736 227.787 560.371 206.379C542.058 153.141 549.156 98.193 557.391 56.2656C559.894 43.6654 562.95 31.3041 565.912 19.3535Z" fill="#5D5D5D"/>
<path d="M97.1736 330.384C103.612 333.68 121.696 339.574 134.831 339.574C139.521 339.574 143.094 338.8 145.454 337.262C150.574 333.938 152.828 330.824 152.351 327.748C151.309 320.946 136.512 316.839 124.628 313.533C119.737 312.177 115.505 311.002 113.108 309.884C84.774 296.739 57.0708 281.541 30.2847 266.839L27.3137 265.215C15.6975 258.843 4.26275 252.586 -6.99048 246.625V248.45C4.01438 254.287 15.1912 260.41 26.5495 266.638L29.5013 268.253C56.3161 282.964 84.0384 298.172 112.429 311.346C114.951 312.511 119.231 313.705 124.189 315.081C135.022 318.09 149.857 322.217 150.746 327.987C151.109 330.346 149.026 333.011 144.565 335.906C142.473 337.262 139.196 337.95 134.821 337.95C122.126 337.95 104.042 332.085 97.8996 328.932C81.7553 320.66 64.5507 307.62 47.8714 294.972C31.9755 282.926 13.8825 269.218 -6.99048 256.742V258.633C13.4812 270.937 31.2782 284.416 46.9448 296.29C63.6431 308.957 80.8955 322.035 97.1736 330.384Z" fill="#5D5D5D"/>
<path d="M405.033 27.9425C427.157 96.8375 436.147 134.275 381.237 166.01C372.229 171.216 361.998 175.066 350.83 177.444C341.363 179.46 330.96 180.482 319.898 180.482C217.836 180.463 77.6481 95.1944 2.33357 49.379L-0.23614 47.8124C-2.54792 46.4081 -4.78329 45.0516 -6.98999 43.7046V45.5961C-5.05077 46.7711 -3.09244 47.9652 -1.07679 49.188L1.49292 50.7546C76.9412 96.6464 217.387 182.077 319.898 182.087C331.075 182.087 341.593 181.055 351.174 179.011C362.504 176.604 372.897 172.696 382.049 167.395C438.029 135.039 428.953 97.1527 406.571 27.4362C403.734 18.6094 400.792 9.40999 398.088 0.0100098H396.407C399.149 9.60105 402.148 18.9533 405.033 27.9425Z" fill="#5D5D5D"/>
<path d="M276.184 18.1116C276.834 20.538 277.732 23.5185 278.763 26.8907C281.677 36.4339 281.152 42.8725 277.216 46.025C275.238 47.6012 272.363 48.4036 268.647 48.4036C252.894 48.4036 226.662 34.3514 218.046 29.7279C213.833 27.4734 210.661 25.773 208.177 24.5311L194.937 17.997C182.796 12.0551 170.95 6.04639 159.477 0.0185547H157.404C169.393 6.34253 181.783 12.6378 194.498 18.8663L207.728 25.4004C210.203 26.6327 213.374 28.3236 217.577 30.5781C226.251 35.2207 252.636 49.3685 268.637 49.3685C272.573 49.3685 275.668 48.4992 277.808 46.7797C282.088 43.3502 282.718 36.5677 279.68 26.6041C278.658 23.251 277.76 20.2706 277.111 17.8346C275.554 11.9978 273.987 6.0846 272.525 0.0185547H271.532C273.013 6.18013 274.608 12.1889 276.184 18.1116Z" fill="#5D5D5D"/>
<path d="M374.597 37.7052C383.558 65.5994 392.117 100.591 378.724 123.7C372.094 135.144 360.469 142.71 344.172 146.178C336.883 147.735 328.715 148.518 319.888 148.518C226.777 148.508 91.5661 66.2586 18.9263 22.0672L5.52373 13.9282C1.43512 11.4444 -2.74902 9.1231 -6.99048 6.9355V8.03408C-2.92097 10.1453 1.09121 12.3711 5.03653 14.7593L18.4392 22.8983C91.1648 67.1374 226.519 149.473 319.907 149.483C328.801 149.483 337.036 148.69 344.391 147.123C360.965 143.598 372.801 135.88 379.584 124.187C393.168 100.744 384.551 65.5039 375.533 37.4186C371.665 25.382 367.834 12.8678 364.557 0.0288086H363.554C366.84 12.9633 370.709 25.5731 374.597 37.7052Z" fill="#5D5D5D"/>
<path d="M298.022 12.2939C298.605 14.4911 299.426 17.1754 300.381 20.2897C305.072 35.6506 312.151 58.864 305.454 69.5727C302.722 73.9479 298.49 76.7946 292.882 78.0461C290.618 78.5524 288.096 78.8103 285.364 78.8103C261.788 78.8103 226.385 59.8288 207.366 49.6264C203.678 47.649 200.487 45.939 198.09 44.7449L196.437 43.9234C194.565 42.9872 192.817 42.1179 191.212 41.3345L184.983 38.2776C159.277 25.6966 134.86 12.8193 112.382 0.0185547H110.433C133.341 13.1059 158.274 26.2793 184.553 39.1565L190.782 42.2134C192.387 43.0063 194.135 43.8756 196.007 44.8022L197.66 45.6238C200.039 46.8083 203.22 48.5183 206.907 50.4957C226.003 60.7363 261.54 79.7942 285.364 79.7942C288.163 79.7942 290.762 79.5267 293.093 79.0109C298.958 77.7022 303.391 74.7026 306.266 70.0981C313.201 59.0168 306.037 35.5455 301.299 20.0126C300.353 16.908 299.531 14.2332 298.949 12.0456C297.888 8.08114 296.828 4.06895 295.806 0.0185547H294.812C295.853 4.15493 296.942 8.25309 298.022 12.2939Z" fill="#5D5D5D"/>
<path d="M319.85 6.47627C324.435 23.7 329.174 41.5065 329.68 59.8766C330.329 83.6345 321.073 97.2377 302.177 100.304C299.369 100.763 296.302 100.992 293.054 100.992C260.231 100.992 213.24 77.5589 188.002 64.9682C185.537 63.7359 183.273 62.6087 181.238 61.6056L175.02 58.5487C135.748 39.338 99.3611 19.3821 68.1043 0.0185547H66.2701C97.8422 19.6592 134.745 39.9207 174.59 59.4371L180.809 62.4941C182.843 63.4971 185.107 64.6243 187.572 65.8471C212.887 78.4759 260.001 101.976 293.054 101.976C296.35 101.976 299.464 101.737 302.33 101.279C321.789 98.1166 331.313 84.1885 330.645 59.867C330.138 41.3727 325.381 23.509 320.786 6.23745C320.242 4.17404 319.688 2.10107 319.143 0.0281075H318.14C318.713 2.18705 319.286 4.33643 319.85 6.47627Z" fill="#5D5D5D"/>
<path d="M353.084 44.621C353.562 46.1017 354.049 47.5824 354.536 49.063C359.695 64.7679 365.035 80.9982 356.418 96.6744C349.225 109.752 334.666 120.356 319.305 123.69C317.739 124.034 316.153 124.292 314.596 124.473C310.756 124.922 306.724 125.142 302.607 125.142C259.266 125.142 208.416 100.152 171.294 81.9057L165.075 78.8583C117.378 55.5017 71.3141 27.4832 30.6763 2.77005C28.9568 1.71923 27.4666 0.811715 26.1578 0.0188302H24.295C27.3519 1.87208 30.1796 3.59159 30.1796 3.59159C70.8364 28.3239 116.91 56.3519 164.655 79.7276L170.864 82.775C208.072 101.059 259.037 126.107 302.607 126.107C306.763 126.107 310.832 125.877 314.711 125.428C316.296 125.247 317.911 124.97 319.516 124.626C335.135 121.235 349.951 110.45 357.268 97.1329C366.086 81.0937 360.688 64.6533 355.463 48.7574C354.976 47.2767 354.489 45.796 354.02 44.3153C349.473 30.1676 345.003 15.3416 341.306 0.00927734H340.312C344.009 15.4658 348.518 30.3777 353.084 44.621Z" fill="#5D5D5D"/>
<path d="M541.351 0.200609C541.409 0.143292 541.466 0.0764226 541.523 0.0191057H540.205C538.18 2.16849 536.136 4.45162 534.731 7.74734C530.719 17.1664 531.856 26.9867 532.954 36.4823C533.566 41.7745 534.206 47.2483 533.948 52.5979C533.547 61.0139 531.827 69.7452 530.175 78.1899C528.809 85.1635 527.395 92.3663 526.716 99.3972C522.58 142.089 526.315 180.701 537.826 214.155C540.215 221.091 549.567 231.771 559.473 243.081C572.14 257.535 585.237 272.485 585.753 281.56C585.868 283.585 585.352 285.181 584.167 286.432C580.747 290.062 571.567 290.731 556.894 288.4C546.223 286.709 535.973 282.257 526.057 277.949C520.268 275.437 514.279 272.829 508.308 270.823C506.617 270.259 504.869 269.676 503.073 269.084C481.608 261.996 452.214 252.3 448.001 235.305C445.995 227.204 449.931 217.938 459.703 207.774C475.112 191.754 491.046 175.189 501.831 150.046C512.168 125.945 524.061 79.0401 519.514 53.6487C518.577 48.4424 516.409 44.9365 514.307 41.5357C511.499 36.9886 508.843 32.6993 510.056 24.9138C510.954 19.1821 513.18 15.8195 515.148 12.8581C517.508 9.30445 519.571 6.08515 518.998 0H518.033C518.606 5.78901 516.696 8.77905 514.346 12.3231C512.32 15.3705 510.028 18.8191 509.101 24.7609C507.831 32.8999 510.582 37.3325 513.486 42.042C515.54 45.3568 517.66 48.7958 518.558 53.8111C523.077 79.0114 511.231 125.667 500.943 149.655C490.225 174.635 474.357 191.133 459.006 207.086C448.985 217.499 444.963 227.071 447.055 235.515C451.392 253.026 481.083 262.827 502.758 269.982C504.554 270.574 506.302 271.157 507.993 271.721C513.925 273.717 519.896 276.306 525.666 278.809C535.639 283.146 545.946 287.626 556.731 289.336C562.501 290.253 567.488 290.721 571.548 290.721C578.197 290.721 582.553 289.527 584.865 287.082C586.221 285.639 586.852 283.757 586.718 281.484C586.173 272.074 572.971 257 560.199 242.422C550.36 231.188 541.065 220.575 538.734 213.821C527.271 180.501 523.545 142.022 527.672 99.4736C528.35 92.5 529.754 85.3068 531.12 78.3619C532.783 69.8789 534.502 61.1094 534.913 52.6265C535.171 47.191 534.531 41.679 533.919 36.3485C532.773 26.5664 531.694 17.3097 535.61 8.12946C537.053 4.74776 539.24 2.43597 541.351 0.200609Z" fill="#5D5D5D"/>
<path d="M435.458 18.1696C455.882 81.7819 477.013 147.563 397.228 193.674C385.306 200.571 371.932 205.625 357.488 208.701C345.834 211.185 333.186 212.436 319.898 212.436C212.037 212.436 77.1317 132.23 -6.99048 81.1132V83.7594C77.4088 135.029 211.922 214.7 319.898 214.7C333.348 214.7 346.149 213.429 357.956 210.917C372.639 207.793 386.233 202.654 398.365 195.642C479.717 148.614 458.309 81.9539 437.608 17.4914C435.726 11.6259 433.853 5.79872 432.077 0.0288086H429.708C431.551 6.01843 433.5 12.0749 435.458 18.1696Z" fill="#5D5D5D"/>
<path d="M213.126 3.21875C219.182 6.28521 227.474 10.4789 234.792 10.4789C237.858 10.4789 240.523 9.72423 242.701 8.23399C242.883 8.1098 243.064 7.97606 243.236 7.84232C245.634 5.93176 247.163 3.18054 248.127 0.0185547H246.437C245.558 2.68379 244.23 4.98603 242.233 6.58135C242.09 6.69598 241.947 6.80106 241.794 6.90614C239.883 8.20533 237.533 8.87403 234.792 8.87403C227.856 8.87403 219.765 4.77586 213.852 1.78583C212.963 1.33685 212.123 0.916521 211.359 0.534407C211.359 0.534407 210.938 0.324245 210.317 0.0281075H206.649L210.642 1.98644C211.416 2.34944 212.247 2.76977 213.126 3.21875Z" fill="#5D5D5D"/>
<path d="M1445.63 6.9348C1440.78 4.43196 1435.84 2.12018 1430.8 0.0185547H1428.18C1434.13 2.42587 1439.95 5.09111 1445.63 8.03338V6.9348Z" fill="#5D5D5D"/>
<path d="M1057.29 17.0324C1062.33 34.0651 1098.38 43.4938 1121.36 43.4938C1154.17 43.4938 1188.55 37.0265 1224.95 30.1867C1261.71 23.2704 1299.73 16.1249 1336.71 16.1249C1377.24 16.1249 1411.29 24.7989 1440.77 42.6531C1442.34 43.5988 1444.01 44.621 1445.63 45.6049V43.7135C1444.3 42.9015 1442.91 42.0513 1441.61 41.2679C1411.85 23.2609 1377.55 14.5009 1336.71 14.5009C1299.58 14.5009 1261.49 21.6655 1224.66 28.5913C1188.33 35.4216 1154.01 41.8698 1121.36 41.8698C1098.38 41.8698 1063.47 32.2405 1058.84 16.5643C1057.28 11.3198 1059.16 5.77919 1064.43 0.00927734H1062.31C1057.37 5.85561 1055.67 11.5491 1057.29 17.0324Z" fill="#5D5D5D"/>
<path d="M1329.57 128.935C1325.33 128.935 1321.21 128.906 1317.15 128.868C1313.24 128.839 1309.41 128.801 1305.64 128.801C1283.63 128.801 1266.11 129.976 1246.79 135.841C1236.68 138.908 1227.23 143.722 1218.07 148.384C1202.79 156.17 1188.36 163.516 1171.08 163.516C1168.23 163.516 1165.32 163.306 1162.46 162.895C1149.71 161.051 1140.18 153.543 1130.94 146.273C1120.58 138.105 1110.78 130.396 1097.03 130.396C1095.79 130.396 1094.51 130.463 1093.23 130.597C1084.75 131.466 1071.18 139.089 1058.05 146.474C1049.61 151.221 1041.63 155.702 1035.99 157.784C1027.76 160.812 1021.6 162.283 1017.1 163.353C1003.54 166.582 1001.83 167.776 995.226 192.757C993.401 199.664 992.083 206.121 990.803 212.359C986.055 235.525 982.31 253.828 957.607 271.31C940.937 283.079 919.787 288.801 892.953 288.801C866.358 288.801 838.559 283.232 814.037 278.322C801.217 275.752 789.095 273.326 780.096 272.37C774.87 271.816 766.808 271.482 758.535 271.482C734.844 271.482 707.084 280.156 705.144 292.603C704.227 298.497 708.832 307.353 735.99 316.036L739.019 317.001C842.543 350.207 914.743 393.538 988.233 466.57C1008.5 486.717 1023.98 496.097 1036.95 496.097C1040 496.097 1042.97 495.563 1045.81 494.512C1059.59 489.363 1069.64 471.977 1081.28 451.83C1087.29 441.427 1094.1 429.638 1102.15 418.299C1141.14 363.351 1197.09 323.201 1259.7 305.251C1278.16 299.949 1296.2 297.265 1313.29 297.265C1369.04 297.265 1408.38 324.557 1445.63 352.652V350.637C1408.45 322.647 1369.08 295.65 1313.29 295.65C1296.04 295.65 1277.87 298.354 1259.25 303.694C1196.29 321.749 1140.04 362.119 1100.83 417.363C1092.74 428.769 1085.91 440.596 1079.88 451.018C1068.4 470.888 1058.48 488.054 1045.24 492.993C1042.6 493.977 1039.81 494.483 1036.95 494.483C1024.44 494.483 1009.32 485.245 989.37 465.423C915.689 392.201 843.307 348.755 739.515 315.463L736.487 314.498C716.149 307.993 705.584 300.312 706.749 292.852C708.364 282.506 733.048 273.096 758.545 273.096C766.76 273.096 774.756 273.431 779.934 273.975C788.856 274.921 800.94 277.347 813.731 279.907C838.33 284.837 866.215 290.425 892.963 290.416C920.15 290.416 941.606 284.598 958.552 272.628C983.772 254.774 987.574 236.203 992.398 212.684C993.678 206.465 994.996 200.027 996.802 193.168C1003.36 168.283 1004.7 167.967 1017.48 164.92C1022.02 163.841 1028.24 162.36 1036.55 159.293C1042.33 157.163 1050.35 152.654 1058.86 147.878C1071.24 140.923 1085.26 133.033 1093.41 132.202C1094.63 132.077 1095.86 132.011 1097.04 132.011C1110.22 132.011 1119.8 139.557 1129.95 147.543C1139.34 154.937 1149.05 162.589 1162.22 164.49C1165.16 164.92 1168.14 165.13 1171.08 165.13C1188.75 165.13 1204.02 157.354 1218.8 149.827C1227.88 145.203 1237.28 140.407 1247.25 137.389C1266.37 131.581 1283.77 130.415 1305.63 130.415C1309.4 130.415 1313.23 130.444 1317.13 130.482C1321.19 130.511 1325.32 130.549 1329.57 130.549C1349.28 130.549 1366.93 132.851 1383.51 137.589C1404.46 143.569 1425.02 151.938 1445.62 161.682V159.895C1425.18 150.256 1404.77 141.984 1383.96 136.042C1367.24 131.256 1349.44 128.935 1329.57 128.935Z" fill="#5D5D5D"/>
<path d="M1022.09 50.0948C1049.95 67.586 1082.42 76.088 1121.37 76.088C1157.2 76.088 1194.71 69.038 1230.98 62.2173C1266.29 55.5781 1302.79 48.7192 1336.71 48.7192C1371.12 48.7192 1399.63 55.8551 1423.89 70.5378C1428.13 73.098 1432.56 75.8014 1437.21 78.6291C1439.96 80.3008 1442.77 82.0108 1445.63 83.7494V81.1032C1443.18 79.613 1440.75 78.1323 1438.38 76.6898C1433.75 73.8717 1429.3 71.1683 1425.06 68.5986C1400.45 53.6962 1371.55 46.4551 1336.71 46.4551C1302.57 46.4551 1265.96 53.3332 1230.56 59.9915C1194.39 66.7931 1156.98 73.824 1121.36 73.824C1082.85 73.824 1050.78 65.4366 1023.28 48.1746C1004.83 36.5775 995.913 24.3976 996.792 11.9503C997.069 7.97634 998.378 3.98325 1000.62 0.00927734H998.101C996.047 3.92594 994.815 7.8617 994.538 11.7879C993.601 25.1428 1002.87 38.02 1022.09 50.0948Z" fill="#5D5D5D"/>
<path d="M1329.57 161.529C1302.43 161.529 1273.56 166.448 1242.94 171.674C1208.49 177.549 1172.87 183.624 1134.93 183.634C1132.19 183.634 1129.48 183.605 1126.87 183.538C1113.7 183.223 1102.53 181.055 1092.67 179.134C1084.15 177.472 1076.8 176.049 1069.74 176.049C1052.96 176.049 1040.63 184.876 1027.17 206.532C1020.68 216.973 1015.95 229.44 1011.36 241.505C1003.26 262.846 994.882 284.913 976.368 297.981C969.997 302.481 957.798 305.967 944.882 309.655C922.318 316.093 896.745 323.392 893.268 338.628C888.941 357.734 928.174 383.861 949.257 397.904C953.184 400.521 956.565 402.776 958.791 404.409C983.514 422.54 1003.96 434.615 1023.39 434.615C1026.05 434.615 1028.7 434.386 1031.26 433.918C1046.75 431.138 1060.83 420.171 1075.56 399.423C1118.81 338.466 1181.01 293.883 1250.7 273.898C1272.1 267.766 1293.15 264.651 1313.28 264.651C1368.97 264.651 1410.18 287.148 1445.62 312.205V311.021C1410.18 286.04 1368.96 263.696 1313.28 263.696C1293.05 263.696 1271.91 266.82 1250.43 272.981C1180.52 293.033 1118.14 337.74 1074.76 398.878C1060.19 419.407 1046.31 430.24 1031.08 432.982C1028.56 433.431 1025.98 433.66 1023.37 433.66C1004.21 433.66 983.915 421.662 959.345 403.635C957.11 401.992 953.709 399.728 949.773 397.111C928.881 383.202 890.011 357.304 894.195 338.858C897.538 324.185 922.825 316.963 945.131 310.6C958.122 306.894 970.398 303.388 976.913 298.793C995.665 285.553 1004.1 263.343 1012.25 241.868C1016.81 229.85 1021.53 217.422 1027.97 207.057C1041.23 185.735 1053.33 177.033 1069.72 177.033C1076.69 177.033 1084 178.456 1092.47 180.099C1102.37 182.029 1113.59 184.207 1126.83 184.522C1129.45 184.589 1132.17 184.618 1134.91 184.618C1172.94 184.618 1208.6 178.533 1243.13 172.638C1273.66 167.432 1302.49 162.513 1329.56 162.513C1346.26 162.513 1361.04 164.414 1374.72 168.321C1398.17 175.017 1421.66 185.239 1445.6 197.227V196.138C1421.76 184.226 1398.36 174.062 1374.98 167.384C1361.24 163.449 1346.38 161.529 1329.57 161.529Z" fill="#5D5D5D"/>
<path d="M593.032 0.0185547H590.663C585.696 17.4143 582.218 36.4721 580.155 57.4024C576.573 93.7987 573.411 141.477 580.871 187.436C586.307 220.928 597.216 235.868 616.236 235.868C616.236 235.868 616.236 235.868 616.246 235.868C628.387 235.868 642.506 229.984 658.851 223.163C670.209 218.425 681.95 213.534 694.502 209.98C695.706 209.636 696.9 209.311 698.113 208.987C733.85 199.405 774.135 198.058 816.874 204.975C828.347 206.828 839.963 210.038 851.207 213.142C867.59 217.67 884.537 222.351 901.741 223.106C911.075 223.517 917.714 222.571 922.414 220.23C936.141 213.4 929.464 196.31 922.395 178.227C918.22 167.527 913.893 156.475 913.186 146.549C909.412 93.8942 938.845 45.8817 977.744 0.0185547H974.773C936.17 45.8053 907.148 93.8273 910.941 146.721C911.676 156.981 916.061 168.206 920.303 179.058C927.276 196.893 933.294 212.302 921.411 218.215C917.121 220.355 910.626 221.233 901.846 220.851C884.9 220.106 868.077 215.464 851.809 210.964C840.508 207.84 828.825 204.621 817.237 202.739C774.182 195.766 733.583 197.141 697.531 206.799C696.298 207.124 695.104 207.458 693.891 207.802C681.205 211.394 669.397 216.314 657.982 221.071C641.866 227.796 627.948 233.595 616.255 233.604C598.563 233.604 588.342 219.256 583.116 187.072C575.703 141.372 578.846 93.8847 582.419 57.6221C584.473 36.5868 587.998 17.4525 593.032 0.0185547Z" fill="#5D5D5D"/>
<path d="M1329.57 184.131C1304.34 184.131 1276.37 188.898 1246.74 193.951C1211.37 199.989 1174.79 206.227 1134.93 206.227C1131.98 206.227 1129.1 206.188 1126.34 206.121C1123.96 206.064 1121.62 205.997 1119.31 205.94C1113.28 205.778 1107.59 205.625 1102.1 205.625C1067.76 205.625 1046.5 212.627 1032.47 249.539C1023.62 272.877 1013.57 299.328 989.475 316.39C982.654 321.214 975.843 325.331 969.824 328.971C955.877 337.396 944.863 344.055 944.452 353.245C944.07 361.689 952.62 371.854 972.155 386.192C990.898 399.939 1006.32 406.626 1019.3 406.626C1020.47 406.626 1021.65 406.568 1022.79 406.463C1041.64 404.715 1054.29 389.135 1070.3 369.408C1077.58 360.447 1085.82 350.283 1095.5 340.606C1137.42 298.679 1188.94 268.1 1244.48 252.176C1267.9 245.46 1291.06 242.05 1313.29 242.05C1368.22 242.05 1410.58 261.92 1445.63 284.875V283.719C1410.57 260.831 1368.2 241.085 1313.29 241.085C1290.96 241.085 1267.72 244.505 1244.21 251.249C1188.51 267.221 1136.85 297.886 1094.81 339.928C1085.11 349.634 1076.84 359.817 1069.56 368.797C1053.69 388.342 1041.16 403.779 1022.72 405.489C1021.6 405.594 1020.45 405.642 1019.32 405.642C1006.55 405.642 991.318 399.022 972.748 385.39C953.499 371.261 945.073 361.355 945.436 353.264C945.828 344.59 956.642 338.056 970.34 329.773C976.368 326.134 983.208 321.997 990.048 317.154C1014.39 299.93 1024.49 273.326 1033.4 249.864C1047.21 213.477 1068.21 206.58 1102.12 206.58C1107.6 206.58 1113.28 206.733 1119.3 206.895C1121.61 206.962 1123.95 207.019 1126.33 207.077C1129.09 207.144 1131.98 207.182 1134.94 207.182C1174.88 207.182 1211.5 200.934 1246.91 194.887C1276.49 189.843 1304.42 185.077 1329.58 185.077C1344.16 185.077 1356.91 186.691 1368.55 190.015C1393.58 197.161 1419.19 208.882 1445.64 222.552V221.463C1419.3 207.86 1393.78 196.215 1368.82 189.089C1357.08 185.755 1344.25 184.131 1329.57 184.131Z" fill="#5D5D5D"/>
<path d="M712.93 92.3756C717.257 92.3756 722.273 91.726 728.253 90.3981C734.204 89.0799 739.831 87.8284 744.922 87.1406C753.558 85.9752 761.926 85.4975 769.358 85.0677C777.832 84.5805 785.455 82.2973 792.648 78.0941C822.701 60.5265 835.263 24.5887 839.266 9.95377C840.231 6.42878 841.186 3.16171 842.132 0.0188302H841.119C840.202 3.08529 839.266 6.26638 838.33 9.69585C834.356 24.2161 821.909 59.8673 792.151 77.2534C785.092 81.3803 777.612 83.6156 769.234 84.0933C761.84 84.5232 753.453 85.0008 744.779 86.1758C739.64 86.8636 734.003 88.1246 728.033 89.4429C722.12 90.7516 717.171 91.3916 712.92 91.3916C705.784 91.3916 700.817 89.5575 697.722 85.7937C693.146 80.2148 692.496 70.2321 695.668 54.3744L696.184 51.7856C700.492 29.9574 707.886 13.1444 719.55 0.00927734H718.27C706.826 13.1635 699.508 29.9192 695.229 51.5946L694.713 54.1834C691.474 70.3468 692.191 80.5874 696.967 86.4051C700.263 90.4268 705.479 92.3756 712.93 92.3756Z" fill="#5D5D5D"/>
<path d="M1329.57 206.398C1306.23 206.398 1279.16 211.012 1250.49 215.903C1214.2 222.093 1176.67 228.494 1134.93 228.494C1131.87 228.494 1128.83 228.465 1125.82 228.389L1118.72 228.207C1112.86 228.045 1107.32 227.901 1102.11 227.901C1056.89 227.901 1054.65 252.758 1052.28 279.076C1050.98 293.51 1049.63 308.441 1041.68 321.118C1038.84 325.646 1031.21 331.378 1023.14 337.444C1005.94 350.369 986.447 365.004 995.799 378.721C999.82 384.625 1004.66 387.615 1010.2 387.615C1013.23 387.615 1016.52 386.717 1019.97 384.931C1035.22 377.069 1051.54 353.76 1064.65 335.036C1072.09 324.414 1078.51 315.233 1082.02 313.132C1085.7 310.935 1089.82 310.638 1093.35 310.638C1094.72 310.638 1096.1 310.686 1097.49 310.734C1098.9 310.782 1100.32 310.829 1101.73 310.829C1107.04 310.829 1112.66 310.189 1117.73 305.575C1123.84 300.006 1124.62 292.803 1125.35 285.83C1126.02 279.563 1126.65 273.64 1130.82 268.663C1143.4 253.627 1187.55 243.109 1216.77 236.155C1225.37 234.111 1232.8 232.343 1238.34 230.748C1263.76 223.459 1288.97 219.762 1313.29 219.762C1367.26 219.762 1410.42 237.454 1445.63 258.623V256.732C1410.39 235.668 1367.22 218.157 1313.29 218.157C1288.82 218.157 1263.45 221.874 1237.89 229.21C1232.38 230.786 1224.97 232.554 1216.39 234.598C1185.21 242.02 1142.51 252.185 1129.58 267.641C1125.1 273 1124.41 279.439 1123.74 285.677C1122.99 292.65 1122.3 299.242 1116.63 304.4C1111.97 308.642 1106.71 309.234 1101.71 309.234C1100.32 309.234 1098.92 309.186 1097.53 309.139C1096.12 309.091 1094.73 309.043 1093.33 309.043C1089.58 309.043 1085.19 309.368 1081.17 311.766C1077.36 314.039 1071.16 322.904 1063.3 334.129C1050.98 351.725 1034.11 375.827 1019.2 383.517C1010.12 388.198 1002.93 386.364 997.107 377.833C988.625 365.395 1007.46 351.238 1024.08 338.762C1032.64 332.333 1040.03 326.783 1043.03 321.997C1051.19 308.986 1052.55 293.864 1053.87 279.238C1056.27 252.567 1058.35 229.535 1102.09 229.535C1107.28 229.535 1112.8 229.688 1118.65 229.841L1125.76 230.022C1128.78 230.099 1131.84 230.127 1134.91 230.127C1176.8 230.127 1214.39 223.708 1250.76 217.508C1279.35 212.636 1306.35 208.031 1329.57 208.031C1341.98 208.031 1352.67 209.359 1362.24 212.091C1388.62 219.629 1416.48 233.012 1445.61 248.469V246.644C1416.67 231.312 1388.97 218.052 1362.68 210.544C1352.98 207.754 1342.15 206.398 1329.57 206.398Z" fill="#5D5D5D"/>
<path d="M719.149 58.3099C721.633 63.1245 726.982 65.5701 735.054 65.5701C737.156 65.5701 739.477 65.3981 741.942 65.0638C751.409 63.7932 760.235 63.2774 768.088 62.8284C770.419 62.6947 772.578 62.3412 774.689 61.7489C777.029 61.0898 779.227 60.1441 781.414 58.864C798.867 48.6616 819.511 18.6179 820.189 0.0185547H818.575C817.858 17.8728 797.339 47.6872 780.602 57.4693C778.539 58.6729 776.456 59.5709 774.249 60.1918C772.253 60.7554 770.209 61.0898 767.935 61.2235C760.121 61.6725 751.256 62.1884 741.732 63.4684C730.574 64.9682 723.362 62.9621 720.582 57.5648C716.818 50.2569 721.298 36.1665 732.265 20.7864C738.226 12.4277 746.288 5.64517 756.921 0.0185547H753.549C743.977 5.48277 736.573 11.9787 730.956 19.8502C719.454 35.9659 715.041 50.3429 719.149 58.3099Z" fill="#5D5D5D"/>
<path d="M643.796 1174.1C691.847 1168.63 749.078 1111.51 764.429 1067.87C791.072 992.099 743.709 931.085 697.913 872.087C653.702 815.143 611.947 761.35 632.256 695.866C649.948 638.807 707.083 608.028 751.858 608.028C775.988 608.028 796.871 616.587 810.636 632.139C826.991 650.605 833.42 678.642 829.226 713.242C814.801 832.137 810.502 962.199 943.048 1000.52C958.266 1004.93 973.273 1007.15 987.679 1007.15C1043.48 1007.15 1079.1 975.181 1099.15 948.366C1137.6 896.943 1150.95 820.034 1132.38 756.975C1116.61 703.499 1085.61 651.646 1037.58 598.446C966.204 519.368 868.985 451.371 740.385 390.577L734.825 387.94C680.727 362.348 624.776 335.887 565.883 321.299C562.387 320.43 558.527 319.408 554.401 318.309C536.203 313.476 513.553 307.457 494.132 307.457C486.356 307.457 479.612 308.46 474.109 310.428C465.722 313.428 461.003 319.169 456.436 324.729C453.026 328.865 449.511 333.155 444.467 336.221C441.19 338.208 434.828 340.673 428.093 343.271C417.203 347.484 405.931 351.83 402.358 356.014C395.48 364.077 397.371 368.93 399.205 373.63C400.524 377.002 401.766 380.193 400.151 384.921L398.881 388.666C389.099 417.439 389.099 417.439 366.563 423.954C362.207 425.215 356.791 426.782 350.371 428.826C331.801 434.749 324.177 443.843 316.822 452.641C311.157 459.414 305.807 465.805 295.729 470.983C295.462 470.954 295.156 470.954 294.831 470.954C283.196 470.954 195.071 476.753 188.308 498.428C186.483 504.265 190.447 510.608 200.086 517.276C212.161 525.625 221.313 526.59 227.14 526.59C229.987 526.59 232.556 526.341 235.04 526.103C237.17 525.892 239.176 525.701 241.087 525.701C248.175 525.701 255.349 527.707 265.189 551.953C267.606 557.923 269.478 562.805 271.026 566.864C278.639 586.801 278.897 587.069 298.251 595.341C303.047 597.395 309.017 599.936 316.621 603.442C341.535 614.934 346.646 627.983 353.103 644.51C356.523 653.241 360.392 663.138 367.719 674.257C375.562 686.17 384.771 695.751 393.684 705.027C409.465 721.458 424.377 736.981 429.125 762.898C437.35 807.787 412.971 850.66 385.411 890.304C372.047 909.524 344.582 931.907 315.504 955.598C266.125 995.825 210.155 1041.42 209.954 1083.65C209.84 1107.76 216.03 1126.27 228.363 1138.65C241.794 1152.14 262.199 1158.7 290.752 1158.7C332.154 1158.7 383.042 1144.73 427.95 1132.42C463.295 1122.72 493.826 1114.35 513.343 1114.35C517.756 1114.35 521.491 1114.8 524.462 1115.67C543.281 1121.27 558.203 1133.21 572.637 1144.76C591.79 1160.09 609.884 1174.56 635.753 1174.56C638.36 1174.57 641.073 1174.41 643.796 1174.1ZM525.064 1113.53C521.845 1112.57 518.004 1112.1 513.304 1112.1C493.482 1112.1 462.818 1120.51 427.31 1130.25C382.545 1142.53 331.81 1156.45 290.714 1156.46C262.791 1156.46 242.902 1150.11 229.92 1137.07C218.036 1125.13 212.065 1107.16 212.171 1083.68C212.362 1042.52 267.892 997.277 316.889 957.356C346.092 933.569 373.68 911.091 387.226 891.613C415.063 851.567 439.671 808.217 431.303 762.506C426.431 735.921 411.299 720.159 395.27 703.479C386.433 694.28 377.301 684.775 369.563 673.035C362.36 662.106 358.539 652.334 355.167 643.707C348.518 626.713 343.264 613.282 317.529 601.407C309.896 597.892 303.916 595.332 299.101 593.278C280.445 585.311 280.445 585.311 273.099 566.072C271.551 562.012 269.679 557.111 267.252 551.121C257.871 527.984 250.544 523.456 241.058 523.456C239.043 523.456 236.979 523.657 234.801 523.867C232.365 524.096 229.853 524.345 227.121 524.345C221.131 524.345 212.782 523.332 201.357 515.432C192.625 509.395 188.957 503.902 190.447 499.116C196.322 480.278 278.477 473.228 294.812 473.228C295.204 473.228 295.471 473.237 295.605 473.247L295.863 472.206L296.36 473.189C307.097 467.763 312.915 460.819 318.541 454.093C326.031 445.142 333.1 436.698 351.05 430.975C357.44 428.941 362.838 427.374 367.184 426.123C390.637 419.34 390.952 418.996 401.02 389.392L402.291 385.657C404.173 380.145 402.654 376.257 401.317 372.818C399.588 368.366 398.088 364.526 404.087 357.495C407.287 353.75 418.779 349.308 428.915 345.392C435.755 342.755 442.212 340.252 445.651 338.16C451.01 334.893 454.66 330.461 458.185 326.181C462.76 320.621 467.078 315.367 474.883 312.578C480.147 310.696 486.623 309.731 494.141 309.731C513.276 309.731 535.763 315.711 553.827 320.507C557.964 321.605 561.842 322.637 565.348 323.506C624.031 338.036 679.867 364.459 733.87 390.003L739.429 392.64C867.753 453.3 964.733 521.126 1035.91 599.984C1083.7 652.926 1114.55 704.492 1130.21 757.634C1148.6 820.043 1135.39 896.16 1097.35 947.038C1077.6 973.442 1042.55 1004.92 987.679 1004.92C973.493 1004.92 958.686 1002.72 943.678 998.385C812.833 960.546 817.151 831.516 831.461 713.539C835.741 678.279 829.121 649.621 812.327 630.658C798.122 614.619 776.638 605.792 751.848 605.792C706.262 605.792 648.095 637.135 630.088 695.226C609.435 761.828 653.502 818.601 696.117 873.501C741.55 932.021 788.521 992.539 762.289 1067.15C747.148 1110.18 690.796 1166.5 643.529 1171.88C640.892 1172.18 638.265 1172.33 635.714 1172.33C610.638 1172.33 592.841 1158.1 574.013 1143.03C559.416 1131.33 544.313 1119.25 525.064 1113.53Z" fill="#5D5D5D"/>
<path d="M699.365 117.519C710.351 117.519 722.464 114.825 733.153 112.456C738.637 111.243 743.805 110.096 747.941 109.533C755.746 108.482 763.331 108.042 770.658 107.622C785.923 106.743 800.348 105.912 811.802 99.4067C821.03 94.1622 827.755 85.5169 832.359 72.9741C840.651 50.4389 850.873 25.1144 865.384 0.0191057H864.266C849.87 25.0189 839.696 50.2097 831.442 72.6397C826.914 84.9533 820.323 93.4267 811.314 98.5565C800.061 104.957 785.751 105.778 770.591 106.648C763.235 107.068 755.641 107.508 747.798 108.568C743.623 109.132 738.426 110.287 732.934 111.501C722.292 113.86 710.236 116.545 699.355 116.545C688.685 116.545 681.129 113.946 676.238 108.606C664.373 95.5952 670.315 65.8954 673.515 49.9326L674.021 47.4011C677.651 29.0119 683.479 13.3549 691.704 0H690.567C682.456 13.3357 676.687 28.926 673.076 47.2101L672.569 49.732C669.34 65.8572 663.332 95.8722 675.531 109.246C680.613 114.825 688.408 117.519 699.365 117.519Z" fill="#5D5D5D"/>
<path d="M949.257 0.0191057H947.031C943.019 4.28922 939.59 8.19633 936.982 11.7404C901.388 60.1351 885.597 104.814 888.711 148.317C889.925 165.245 887.852 176.441 882.359 182.555C878.862 186.452 873.876 188.344 867.122 188.344C857.732 188.344 846.154 184.761 833.907 180.969C822.778 177.53 811.276 173.967 800.424 172.782C792.266 171.894 784.089 171.454 775.415 171.454C748.065 171.454 722.072 175.81 694.55 180.415C689.927 181.189 685.284 181.972 680.622 182.727L680.269 182.784C670.611 184.35 659.673 186.137 649.012 186.137C628.875 186.137 615.978 179.459 609.597 165.713C596.271 137.007 599.996 102.454 603.283 71.9615C603.732 67.8537 604.161 63.7842 604.563 59.7816C606.76 37.5044 610.6 17.6918 616.284 0H614.574C608.957 17.6727 605.145 37.4375 602.958 59.6288C602.566 63.6218 602.127 67.6818 601.687 71.7895C598.382 102.483 594.628 137.274 608.135 166.391C614.803 180.768 628.177 187.751 649.012 187.751C659.797 187.751 670.811 185.955 680.527 184.379L680.88 184.322C685.551 183.558 690.194 182.784 694.818 182.01C722.263 177.415 748.189 173.069 775.415 173.069C784.022 173.069 792.142 173.498 800.243 174.387C810.942 175.552 822.377 179.087 833.429 182.507C845.8 186.337 857.493 189.948 867.122 189.948C874.363 189.948 879.741 187.875 883.562 183.624C889.352 177.167 891.568 165.579 890.316 148.193C887.24 105.1 902.926 60.7751 938.281 12.6957C941.061 8.91279 944.844 4.67133 949.257 0.0191057Z" fill="#5D5D5D"/>
<path d="M938.759 244.715C927.811 252.443 912.832 256.207 892.953 256.207C869.596 256.207 843.479 250.982 820.437 246.358C806.853 243.635 794.024 241.066 783.544 239.948C778.405 239.404 764.639 238.133 747.664 238.133C716.216 238.133 675.884 242.394 662.329 262.693C656.434 271.52 656.196 282.611 661.612 295.66C664.153 301.793 670.735 305.117 677.097 308.337C682.132 310.887 687.338 313.514 690.223 317.45C693.652 322.112 695.668 328.637 697.626 334.941C700.225 343.338 702.919 352.031 709.023 357.161C716.598 363.523 724.919 366.494 735.188 366.494C742.314 366.494 749.613 365.052 756.663 363.657C763.627 362.282 770.839 360.858 777.794 360.858C784.471 360.858 790.289 362.186 795.571 364.909C808.401 371.519 813.798 380.422 819.024 389.03C825.825 400.254 832.254 410.858 853.442 415.816C897.777 426.19 909.928 437.032 939.275 463.207C943.058 466.579 947.127 470.209 951.579 474.117C962.144 483.392 969.949 493.977 977.495 504.208C984.23 513.34 991.185 522.788 1000.15 531.405C1011.17 542.009 1021.54 546.728 1031.58 551.294C1044.97 557.379 1057.6 563.12 1069.06 582.799L1070.85 585.885C1085.26 610.818 1099.84 633.897 1108.8 633.897C1110.23 633.897 1111.48 633.334 1112.5 632.216C1115.72 628.681 1116.6 619.281 1115.17 603.49C1114.33 594.234 1107.64 585.961 1101.18 577.965C1094.2 569.339 1087.61 561.191 1088 552.182C1088.47 541.388 1095 536.076 1101.91 530.45C1106.97 526.332 1112.2 522.081 1115.27 515.48C1122.62 499.642 1124.41 485.456 1126.13 471.738C1128.53 452.642 1130.79 434.606 1147.88 414.211C1178.47 377.7 1221.37 350.13 1268.68 336.556C1284.44 332.037 1299.02 329.84 1313.27 329.84C1361.61 329.84 1396.29 356.139 1433.02 383.976C1437.18 387.128 1441.38 390.3 1445.62 393.462V390.644C1441.85 387.816 1438.1 384.989 1434.39 382.18C1397.35 354.104 1362.38 327.586 1313.28 327.586C1298.82 327.586 1284.03 329.812 1268.06 334.387C1220.32 348.077 1177.03 375.913 1146.15 412.768C1128.63 433.679 1126.33 452.03 1123.89 471.47C1122.19 485.016 1120.43 499.021 1113.22 514.544C1110.38 520.667 1105.35 524.756 1100.49 528.711C1093.5 534.404 1086.26 540.289 1085.75 552.096C1085.32 561.955 1092.48 570.82 1099.42 579.398C1105.68 587.136 1112.14 595.141 1112.93 603.71C1114.61 622.29 1112.72 628.643 1110.83 630.707C1110.25 631.347 1109.6 631.652 1108.8 631.652C1099.91 631.652 1080.91 598.8 1072.8 584.777L1071.01 581.681C1059.18 561.382 1046.23 555.488 1032.52 549.25C1022.65 544.76 1012.46 540.127 1001.72 529.79C992.904 521.298 985.997 511.936 979.32 502.88C971.706 492.544 963.825 481.864 953.078 472.426C948.636 468.519 944.567 464.898 940.794 461.526C911.132 435.074 898.857 424.127 853.968 413.618C833.706 408.88 827.516 398.668 820.963 387.854C815.575 378.98 810.015 369.8 796.613 362.893C791.005 359.998 784.844 358.594 777.803 358.594C770.619 358.594 763.302 360.037 756.233 361.441C749.288 362.817 742.104 364.23 735.198 364.23C725.482 364.23 717.63 361.431 710.484 355.432C704.886 350.723 702.298 342.364 699.795 334.273C697.789 327.786 695.706 321.071 692.057 316.103C688.857 311.738 683.402 308.986 678.129 306.321C671.853 303.15 665.93 300.15 663.704 294.791C658.593 282.487 658.765 272.103 664.21 263.945C677.212 244.476 716.77 240.387 747.664 240.387C764.534 240.387 778.214 241.648 783.306 242.193C793.68 243.301 806.462 245.861 819.988 248.565C843.135 253.198 869.367 258.452 892.943 258.452C913.3 258.452 928.709 254.554 940.048 246.549C968.296 226.574 960.195 196.454 952.362 167.327C943.994 136.214 935.339 104.03 970.14 83.0333C974.314 80.5114 979.884 79.2408 986.714 79.2408C1007.52 79.2408 1036.84 90.6182 1065.18 101.614C1089.87 111.195 1113.18 120.242 1128.35 120.605C1130.54 120.652 1132.71 120.681 1134.9 120.681C1134.91 120.681 1134.91 120.681 1134.92 120.681C1167.52 120.681 1200.49 115.054 1232.36 109.619C1264.18 104.193 1297.08 98.5853 1329.57 98.5853C1352.29 98.5853 1372.81 101.289 1392.29 106.849C1410.3 111.988 1428.07 118.78 1445.62 126.546V124.082C1428.28 116.44 1410.72 109.762 1392.91 104.67C1373.23 99.0534 1352.51 96.3213 1329.57 96.3213C1296.88 96.3213 1263.89 101.948 1231.97 107.393C1200.19 112.809 1167.32 118.417 1134.91 118.417C1132.7 118.484 1130.57 118.398 1128.39 118.341C1113.62 117.997 1090.48 109.017 1065.98 99.5024C1037.44 88.4306 1007.93 76.9768 986.704 76.9768C979.358 76.9768 973.56 78.3238 968.965 81.0941C932.712 102.97 941.586 135.985 950.174 167.91C958.17 197.61 965.717 225.657 938.759 244.715Z" fill="#5D5D5D"/>
<path d="M664.21 162.264C671.117 162.264 679.132 161.414 691.006 159.427C721.126 154.373 751.026 152.023 785.101 152.023C793.661 152.023 802.449 152.166 811.983 152.463C815.298 152.568 818.183 152.615 820.81 152.615C836.582 152.615 845.79 150.705 852.583 146.005C860.702 140.397 865.517 130.558 868.698 113.124C875.987 73.0977 892.045 37.1313 919.175 0.0185547H917.981C891.014 37.0453 875.022 72.9831 867.743 112.952C864.61 130.109 859.91 139.757 852.028 145.212C845.418 149.778 836.371 151.651 820.81 151.651C818.202 151.651 815.317 151.603 812.021 151.498C802.478 151.202 793.68 151.058 785.111 151.058C750.979 151.058 721.031 153.418 690.853 158.471C679.036 160.449 671.069 161.299 664.22 161.299C644.761 161.299 630.804 154.784 625.942 122.954C621.299 92.5282 625.416 60.3256 629.696 38.6693C632.457 24.684 636.268 11.8641 641.064 0.0185547H640.051C635.284 11.7876 631.492 24.5311 628.741 38.4782C624.451 60.2109 620.315 92.5377 624.977 123.097C629.228 150.925 640.596 162.273 664.21 162.264Z" fill="#5D5D5D"/>
<path d="M677.527 138.009C680.555 138.009 683.832 137.713 687.271 137.14C712.92 132.841 740.385 130.31 768.89 129.612C775.539 129.45 781.92 129.612 788.025 129.775C792.123 129.88 795.992 129.985 799.765 129.985C811.372 129.985 823.389 129.087 832.675 122.581C840.374 117.184 845.848 108.233 849.421 95.2029C859.126 59.8575 873.064 28.572 891.759 0.0185547H890.612C872.032 28.5146 858.162 59.7142 848.485 94.945C844.969 107.736 839.619 116.515 832.111 121.779C823.045 128.132 811.2 129.01 799.756 129.01C795.992 129.01 792.132 128.905 788.044 128.8C781.93 128.647 775.539 128.475 768.862 128.638C740.308 129.335 712.806 131.876 687.109 136.185C672.359 138.659 661.383 135.697 654.533 127.377C638.953 108.424 647.34 65.8949 651.849 43.0445C655.002 27.0817 659.701 12.8098 665.93 0.0185547H664.831C658.67 12.7716 654.027 26.9862 650.894 42.8534C646.356 65.8566 637.902 108.682 653.779 127.988C659.253 134.637 667.239 138.009 677.527 138.009Z" fill="#5D5D5D"/>
</svg>
