<svg width="1440" height="465" viewBox="0 0 1440 465" fill="none" xmlns="http://www.w3.org/2000/svg">
<path d="M420.839 287.588C414.563 262.817 363.952 256.187 305.346 248.516C290.864 246.625 275.885 244.657 261.345 242.364C197.093 232.219 138.267 199.969 81.3797 168.769C52.8932 153.151 23.7857 137.207 -5.99048 124.081V126.546C23.394 139.557 52.1385 155.319 80.2907 170.756C137.35 202.042 196.348 234.397 260.992 244.6C275.57 246.902 290.558 248.86 305.059 250.761C360.446 258.012 412.758 264.852 418.652 288.142C423.247 306.282 399.613 333.814 346.404 372.292C271.748 426.285 209.101 451.438 149.262 451.428C115.254 451.428 81.5325 442.983 49.0338 426.333C28.8009 415.978 11.004 403.377 -5.99048 390.653V393.471C10.6792 405.899 28.1513 418.175 48.0021 428.348C80.8256 445.161 114.891 453.692 149.262 453.692C149.262 453.692 149.262 453.692 149.272 453.692C209.617 453.692 272.675 428.406 347.732 374.127C402.527 334.501 425.759 307.008 420.839 287.588Z" fill="#5D5D5D"/>
<path d="M499.985 196.693C494.425 196.693 486.592 200.237 480.822 217.108C474.345 236.079 486.831 240.493 500.052 245.155C502.373 245.976 504.771 246.817 507.092 247.753C512.298 249.845 516.683 250.905 520.113 250.905C523.915 250.905 526.656 249.625 528.252 247.094C533.19 239.261 525.271 221.932 521.632 214.843C515.757 203.485 507.665 196.693 499.985 196.693ZM526.886 246.244C524.306 250.342 517.791 250.323 507.694 246.263C505.334 245.317 502.927 244.467 500.587 243.636C487.604 239.05 476.38 235.095 482.35 217.633C486.668 204.985 492.772 198.308 499.985 198.308C507.044 198.308 514.601 204.765 520.189 215.589C527.506 229.841 530 241.305 526.886 246.244Z" fill="#5D5D5D"/>
<path d="M62.8663 399.337C87.398 411.908 108.242 417.764 128.466 417.764C149.635 417.764 168.454 411.402 190.253 404.037C202.615 399.862 216.629 395.124 232.515 391.14C240.568 389.115 247.599 388.886 252.184 388.886C255.27 388.886 258.222 389.01 261.068 389.125C263.772 389.23 266.332 389.335 268.864 389.335C281.951 389.335 292.354 386.24 303.75 370.841C311.44 360.447 314.325 352.423 316.866 345.335C320.669 334.741 323.678 326.372 340.414 314.412C344.703 311.336 350.855 308.919 356.797 306.588C366.369 302.825 374.632 299.577 374.967 294.065C375.244 289.603 370.047 284.626 358.612 278.398C344.914 270.966 325.359 269.963 308.04 269.963C300.311 269.963 292.201 270.202 284.358 270.431C276.477 270.66 268.329 270.899 260.524 270.899C243.138 270.899 230.948 269.695 221.013 266.992C164.833 251.736 112.168 222.848 65.694 197.371C41.3056 183.997 17.6337 171.034 -5.99048 159.895V161.682C17.3757 172.734 40.7897 185.554 64.9202 198.794C111.471 224.319 164.231 253.255 220.593 268.559C230.681 271.3 242.994 272.513 260.533 272.513C268.357 272.513 276.525 272.275 284.416 272.045C292.249 271.816 300.35 271.577 308.049 271.577C325.168 271.577 344.465 272.561 357.848 279.821C368.375 285.553 373.591 290.31 373.362 293.969C373.085 298.449 364.889 301.678 356.205 305.089C350.168 307.467 343.93 309.913 339.478 313.103C322.331 325.369 319.102 334.368 315.357 344.8C312.854 351.773 310.017 359.683 302.461 369.885C291.466 384.74 281.454 387.73 268.873 387.73C266.38 387.73 263.839 387.625 261.145 387.52C258.269 387.405 255.308 387.281 252.194 387.281C247.522 387.281 240.367 387.52 232.133 389.583C216.189 393.586 202.137 398.334 189.747 402.518C168.091 409.835 149.377 416.159 128.475 416.159C108.519 416.159 87.9043 410.361 63.6114 397.913C41.4011 386.526 21.4166 371.385 2.09122 356.731C-0.59313 354.696 -3.27748 352.662 -5.98093 350.627V352.643C-3.61182 354.429 -1.24272 356.225 1.11683 358.011C20.4804 372.703 40.5222 387.892 62.8663 399.337Z" fill="#5D5D5D"/>
<path d="M77.7305 370.325C101.584 382.543 124.969 388.484 149.243 388.494C162.827 388.494 192.164 382.953 217.737 373.668C240.138 365.539 266.857 352.05 266.924 333.89C267.001 312.511 225.723 300.637 201.058 293.548C195.698 292.001 191.065 290.673 187.97 289.555C143.807 273.554 99.9791 253.35 50.0273 225.962C30.9599 215.502 12.351 205.299 -5.99048 196.129V197.218C12.1981 206.322 30.6542 216.438 49.5592 226.803C99.5587 254.219 143.425 274.443 187.636 290.463C190.76 291.59 195.402 292.927 200.79 294.475C225.188 301.496 266.026 313.246 265.959 333.89C265.854 365.262 177.405 387.52 149.233 387.52C125.132 387.51 101.89 381.606 78.1795 369.455C58.4529 359.348 39.6147 345.067 21.3975 331.253C12.5802 324.566 3.50503 317.698 -5.98093 311.011V312.196C3.29487 318.749 12.1694 325.474 20.8148 332.027C39.0607 345.869 57.9275 360.179 77.7305 370.325Z" fill="#5D5D5D"/>
<path d="M88.0285 350.206C108.605 360.743 128.609 365.873 149.233 365.892C167.135 365.892 190.511 360.581 199.52 348.926C203.436 343.854 204.544 337.912 202.806 331.263C198.717 315.616 165.941 304.544 142.002 296.462C134.264 293.845 127.587 291.59 123.479 289.689C95.8236 276.86 68.4547 261.843 41.9838 247.322L39.032 245.708C23.7379 237.311 8.74954 229.096 -5.99048 221.482V222.571C8.59669 230.108 23.4322 238.238 38.5735 246.539L41.5253 248.163C68.0057 262.693 95.3937 277.71 123.078 290.558C127.224 292.479 133.93 294.752 141.696 297.37C164.088 304.926 197.915 316.351 201.87 331.502C203.522 337.845 202.481 343.51 198.755 348.324C189.948 359.721 166.916 364.918 149.186 364.918C128.771 364.908 108.911 359.807 88.4774 349.337C70.5181 340.138 52.4824 326.458 35.0294 313.227C22.4101 303.674 8.86417 293.424 -5.99048 283.719V284.875C8.6349 294.456 21.9993 304.572 34.4562 314.011C51.9283 327.27 70.0023 340.969 88.0285 350.206Z" fill="#5D5D5D"/>
<path d="M566.912 19.3536C568.526 12.8386 570.112 6.41907 571.602 0.0186768H569.94C568.479 6.28533 566.921 12.5806 565.345 18.9619C562.384 30.9316 559.317 43.3121 556.834 55.9505C548.561 98.0785 541.434 153.303 559.871 206.904C567.361 228.685 586.037 246.482 602.506 262.187C617.169 276.162 629.827 288.228 628.68 298.373C628.155 303.034 624.745 307.18 618.268 311.049C615.278 312.836 610.157 313.734 603.06 313.734C578.28 313.734 534.556 302.796 502.22 291.953C467.047 280.165 423.715 261.375 416.99 238.849C414.85 231.675 416.608 224.424 422.215 217.307C429.408 208.184 437.127 200.15 444.597 192.394C459.29 177.119 473.17 162.694 482.35 141.276C495.447 110.736 497.042 78.8868 487.079 46.6078C484.662 38.7841 482.236 31.5812 480.086 25.2286C476.915 15.8286 474.154 7.63228 472.272 0.0186768H470.591C472.501 7.78513 475.31 16.1534 478.548 25.7444C480.688 32.0875 483.114 39.2904 485.531 47.0855C495.38 78.9824 493.814 110.459 480.86 140.636C471.794 161.777 458.01 176.106 443.422 191.266C435.923 199.052 428.176 207.114 420.935 216.304C414.984 223.861 413.13 231.598 415.423 239.307C422.339 262.492 466.149 281.56 501.685 293.472C534.146 304.353 578.07 315.338 603.031 315.338C610.425 315.338 615.822 314.355 619.07 312.425C626.015 308.288 629.683 303.741 630.266 298.545C631.498 287.607 618.574 275.283 603.595 261.012C587.25 245.44 568.736 227.787 561.371 206.379C543.058 153.141 550.156 98.1931 558.391 56.2657C560.894 43.6656 563.95 31.3042 566.912 19.3536Z" fill="#5D5D5D"/>
<path d="M98.1736 330.384C104.612 333.68 122.696 339.574 135.831 339.574C140.521 339.574 144.094 338.8 146.454 337.262C151.574 333.938 153.828 330.824 153.351 327.748C152.309 320.946 137.512 316.839 125.628 313.533C120.737 312.177 116.505 311.002 114.108 309.884C85.774 296.739 58.0708 281.541 31.2847 266.839L28.3137 265.215C16.6975 258.843 5.26275 252.586 -5.99048 246.625V248.45C5.01438 254.287 16.1912 260.41 27.5495 266.638L30.5013 268.253C57.3161 282.964 85.0384 298.172 113.429 311.346C115.951 312.511 120.231 313.705 125.189 315.081C136.022 318.09 150.857 322.217 151.746 327.987C152.109 330.346 150.026 333.011 145.565 335.906C143.473 337.262 140.196 337.95 135.821 337.95C123.126 337.95 105.042 332.085 98.8996 328.932C82.7553 320.66 65.5507 307.62 48.8714 294.972C32.9755 282.926 14.8825 269.218 -5.99048 256.742V258.633C14.4812 270.937 32.2782 284.416 47.9448 296.29C64.6431 308.957 81.8955 322.035 98.1736 330.384Z" fill="#5D5D5D"/>
<path d="M406.033 27.9425C428.157 96.8375 437.147 134.275 382.237 166.01C373.229 171.216 362.998 175.066 351.83 177.444C342.363 179.46 331.96 180.482 320.898 180.482C218.836 180.463 78.6481 95.1944 3.33357 49.379L0.76386 47.8124C-1.54792 46.4081 -3.78329 45.0516 -5.98999 43.7046V45.5961C-4.05077 46.7711 -2.09244 47.9652 -0.0767892 49.188L2.49292 50.7546C77.9412 96.6464 218.387 182.077 320.898 182.087C332.075 182.087 342.593 181.055 352.174 179.011C363.504 176.604 373.897 172.696 383.049 167.395C439.029 135.039 429.953 97.1527 407.571 27.4362C404.734 18.6094 401.792 9.40999 399.088 0.0100098H397.407C400.149 9.60105 403.148 18.9533 406.033 27.9425Z" fill="#5D5D5D"/>
<path d="M277.184 18.1117C277.834 20.5382 278.732 23.5186 279.763 26.8908C282.677 36.4341 282.152 42.8727 278.216 46.0251C276.238 47.6013 273.363 48.4038 269.647 48.4038C253.894 48.4038 227.662 34.3515 219.046 29.728C214.833 27.4735 211.661 25.7731 209.177 24.5312L195.937 17.9971C183.796 12.0552 171.95 6.04651 160.477 0.0186768H158.404C170.393 6.34265 182.783 12.638 195.498 18.8664L208.728 25.4005C211.203 26.6329 214.374 28.3237 218.577 30.5782C227.251 35.2209 253.636 49.3686 269.637 49.3686C273.573 49.3686 276.668 48.4993 278.808 46.7798C283.088 43.3503 283.718 36.5678 280.68 26.6042C279.658 23.2512 278.76 20.2707 278.111 17.8347C276.554 11.9979 274.987 6.08472 273.525 0.0186768H272.532C274.013 6.18025 275.608 12.189 277.184 18.1117Z" fill="#5D5D5D"/>
<path d="M375.597 37.7053C384.558 65.5995 393.117 100.592 379.724 123.7C373.094 135.144 361.469 142.71 345.172 146.178C337.883 147.735 329.715 148.518 320.888 148.518C227.777 148.509 92.5661 66.2587 19.9263 22.0673L6.52373 13.9283C2.43512 11.4446 -1.74902 9.12322 -5.99048 6.93562V8.0342C-1.92097 10.1454 2.09121 12.3712 6.03653 14.7594L19.4392 22.8984C92.1648 67.1375 227.519 149.473 320.907 149.483C329.801 149.483 338.036 148.69 345.391 147.123C361.965 143.598 373.801 135.88 380.584 124.187C394.168 100.744 385.551 65.504 376.533 37.4187C372.665 25.3821 368.834 12.8679 365.557 0.0289307H364.554C367.84 12.9635 371.709 25.5732 375.597 37.7053Z" fill="#5D5D5D"/>
<path d="M299.022 12.2941C299.605 14.4912 300.426 17.1756 301.381 20.2898C306.072 35.6507 313.151 58.8641 306.454 69.5728C303.722 73.948 299.49 76.7948 293.882 78.0462C291.618 78.5525 289.097 78.8104 286.364 78.8104C262.788 78.8104 227.385 59.8289 208.366 49.6265C204.678 47.6491 201.487 45.9391 199.09 44.745L197.437 43.9235C195.565 42.9873 193.817 42.118 192.212 41.3347L185.983 38.2778C160.277 25.6967 135.86 12.8195 113.382 0.0186768H111.433C134.341 13.1061 159.274 26.2794 185.553 39.1566L191.782 42.2135C193.387 43.0064 195.135 43.8757 197.007 44.8023L198.66 45.6239C201.039 46.8084 204.22 48.5184 207.907 50.4958C227.003 60.7365 262.54 79.7944 286.364 79.7944C289.163 79.7944 291.762 79.5269 294.093 79.011C299.958 77.7023 304.391 74.7027 307.266 70.0982C314.201 59.0169 307.037 35.5456 302.299 20.0127C301.353 16.9081 300.531 14.2333 299.949 12.0457C298.888 8.08126 297.828 4.06908 296.806 0.0186768H295.812C296.853 4.15505 297.942 8.25322 299.022 12.2941Z" fill="#5D5D5D"/>
<path d="M320.85 6.47639C325.435 23.7001 330.174 41.5066 330.68 59.8767C331.329 83.6346 322.073 97.2378 303.177 100.304C300.369 100.763 297.302 100.992 294.054 100.992C261.231 100.992 214.24 77.559 189.002 64.9684C186.537 63.736 184.273 62.6088 182.238 61.6058L176.02 58.5489C136.748 39.3381 100.361 19.3823 69.1043 0.0186768H67.2701C98.8422 19.6593 135.745 39.9208 175.59 59.4373L181.809 62.4942C183.843 63.4972 186.107 64.6245 188.572 65.8472C213.887 78.4761 261.002 101.976 294.054 101.976C297.35 101.976 300.464 101.737 303.33 101.279C322.789 98.1167 332.313 84.1887 331.645 59.8671C331.138 41.3729 326.381 23.5091 321.786 6.23757C321.242 4.17416 320.688 2.10119 320.143 0.0282296H319.14C319.713 2.18717 320.286 4.33656 320.85 6.47639Z" fill="#5D5D5D"/>
<path d="M354.084 44.621C354.562 46.1017 355.049 47.5824 355.536 49.0631C360.695 64.7679 366.035 80.9982 357.418 96.6744C350.225 109.752 335.666 120.356 320.305 123.69C318.739 124.034 317.153 124.292 315.596 124.473C311.756 124.922 307.724 125.142 303.607 125.142C260.266 125.142 209.416 100.152 172.294 81.9057L166.075 78.8583C118.378 55.5017 72.3141 27.4832 31.6763 2.77004C29.9568 1.71923 28.4666 0.811715 27.1578 0.0188302H25.295C28.3519 1.87208 31.1796 3.59159 31.1796 3.59159C71.8364 28.3239 117.91 56.3519 165.655 79.7276L171.864 82.775C209.072 101.059 260.037 126.107 303.607 126.107C307.763 126.107 311.832 125.877 315.711 125.428C317.296 125.247 318.911 124.97 320.516 124.626C336.135 121.235 350.951 110.45 358.268 97.1329C367.086 81.0937 361.688 64.6533 356.463 48.7574C355.976 47.2767 355.489 45.796 355.02 44.3153C350.473 30.1676 346.003 15.3416 342.306 0.00927734H341.312C345.009 15.4658 349.518 30.3777 354.084 44.621Z" fill="#5D5D5D"/>
<path d="M-5.99048 440.997C102.864 502.594 220.173 600.606 241.533 649.316C254.362 678.576 223.268 713.53 183.901 757.788C139.165 808.074 83.5004 870.664 80.0327 945.788C75.8199 1037.36 30.4345 1074.96 -5.99048 1086.34V1088.7C31.2656 1077.35 77.9884 1039.25 82.2968 945.883C85.7262 871.562 141.094 809.306 185.592 759.278C225.494 714.418 257.008 678.987 243.606 648.399C222.083 599.326 103.647 500.473 -5.99048 438.58V440.997Z" fill="#5D5D5D"/>
<path d="M542.351 0.200609C542.409 0.143292 542.466 0.0764226 542.523 0.0191057H541.205C539.18 2.16849 537.136 4.45162 535.731 7.74734C531.719 17.1664 532.856 26.9867 533.954 36.4823C534.566 41.7745 535.206 47.2483 534.948 52.5979C534.547 61.0139 532.827 69.7452 531.175 78.1899C529.809 85.1635 528.395 92.3663 527.716 99.3972C523.58 142.089 527.315 180.701 538.826 214.155C541.215 221.091 550.567 231.771 560.473 243.081C573.14 257.535 586.237 272.485 586.753 281.56C586.868 283.585 586.352 285.181 585.167 286.432C581.747 290.062 572.567 290.731 557.894 288.4C547.223 286.709 536.973 282.257 527.057 277.949C521.268 275.437 515.279 272.829 509.308 270.823C507.617 270.259 505.869 269.676 504.073 269.084C482.608 261.996 453.214 252.3 449.001 235.305C446.995 227.204 450.931 217.938 460.703 207.774C476.112 191.754 492.046 175.189 502.831 150.046C513.168 125.945 525.061 79.0401 520.514 53.6487C519.577 48.4424 517.409 44.9365 515.307 41.5357C512.499 36.9886 509.843 32.6993 511.056 24.9138C511.954 19.1821 514.18 15.8195 516.148 12.8581C518.508 9.30446 520.571 6.08515 519.998 0H519.033C519.606 5.78901 517.696 8.77905 515.346 12.3231C513.32 15.3705 511.028 18.8191 510.101 24.7609C508.831 32.8999 511.582 37.3325 514.486 42.042C516.54 45.3568 518.66 48.7959 519.558 53.8111C524.077 79.0114 512.231 125.667 501.943 149.655C491.225 174.635 475.357 191.133 460.006 207.086C449.985 217.499 445.963 227.071 448.055 235.515C452.392 253.026 482.083 262.827 503.758 269.982C505.554 270.574 507.302 271.157 508.993 271.721C514.925 273.717 520.896 276.306 526.666 278.809C536.639 283.146 546.946 287.626 557.731 289.336C563.501 290.253 568.488 290.721 572.548 290.721C579.197 290.721 583.553 289.527 585.865 287.082C587.221 285.639 587.852 283.757 587.718 281.484C587.173 272.074 573.971 257 561.199 242.422C551.36 231.188 542.065 220.575 539.734 213.821C528.271 180.501 524.545 142.022 528.672 99.4736C529.35 92.5 530.754 85.3068 532.12 78.3619C533.783 69.8789 535.502 61.1094 535.913 52.6265C536.171 47.191 535.531 41.679 534.919 36.3485C533.773 26.5664 532.694 17.3097 536.61 8.12946C538.053 4.74776 540.24 2.43597 542.351 0.200609Z" fill="#5D5D5D"/>
<path d="M436.458 18.1698C456.882 81.782 478.013 147.563 398.228 193.674C386.306 200.571 372.932 205.625 358.488 208.701C346.834 211.185 334.186 212.436 320.898 212.436C213.037 212.436 78.1317 132.231 -5.99048 81.1133V83.7595C78.4088 135.03 212.922 214.7 320.898 214.7C334.348 214.7 347.149 213.43 358.956 210.917C373.639 207.793 387.233 202.654 399.365 195.642C480.717 148.614 459.309 81.954 438.608 17.4915C436.726 11.6261 434.853 5.79884 433.077 0.0289307H430.708C432.551 6.01855 434.5 12.075 436.458 18.1698Z" fill="#5D5D5D"/>
<path d="M214.126 3.21887C220.182 6.28533 228.474 10.479 235.792 10.479C238.858 10.479 241.523 9.72435 243.701 8.23411C243.883 8.10992 244.064 7.97618 244.236 7.84244C246.634 5.93188 248.163 3.18066 249.127 0.0186768H247.437C246.558 2.68392 245.23 4.98615 243.233 6.58147C243.09 6.6961 242.947 6.80119 242.794 6.90627C240.883 8.20545 238.533 8.87415 235.792 8.87415C228.856 8.87415 220.765 4.77599 214.852 1.78595C213.963 1.33697 213.123 0.916643 212.359 0.53453C212.359 0.53453 211.938 0.324367 211.317 0.0282296H207.649L211.642 1.98656C212.416 2.34957 213.247 2.76989 214.126 3.21887Z" fill="#5D5D5D"/>
<path d="M647.91 1131.67C690.735 1126.79 736.675 1077.19 737.267 1035.16C738.184 970.73 701.129 919.259 665.296 869.479C659.211 861.025 652.925 852.294 646.983 843.696L643.411 838.547C626.55 814.264 607.435 786.733 601.235 757.004C595.971 731.785 587.928 673.159 596.688 652.878C603.098 638.043 621.372 629.55 639.045 621.335C651.254 615.66 662.784 610.301 670.875 602.965L671.248 602.621C698.951 577.526 698.951 577.526 717.837 576.876C723.549 576.685 730.657 576.437 740.687 575.491C754.138 574.22 762.086 572.262 767.894 570.839C771.581 569.931 774.256 569.272 776.625 569.272C782.452 569.272 787.315 573.389 803.421 587.031C851.041 627.353 850.143 697.471 849.274 765.277C848.185 850.612 847.058 938.852 943.618 966.784C957.508 970.796 971.025 972.841 983.807 972.841C1020.12 972.841 1051.03 956.62 1073.2 925.936C1105.74 880.914 1114.38 810.653 1094.71 751.1C1049.31 613.635 940.771 535.035 824.036 460.15C717.932 392.086 616.883 373.324 530.496 361.087C524.249 360.199 518.297 359.75 512.814 359.75C477.784 359.75 461.124 377.566 440.041 400.13C431.968 408.775 423.61 417.707 413.245 426.82C401.38 437.252 386.277 444.397 371.671 451.304C347.846 462.567 325.349 473.209 316.054 496.861C296.328 547.052 344.789 586.161 387.548 620.676C407.341 636.648 426.036 651.742 436.984 666.816C480.411 726.607 467.419 827.428 428.042 884.066C415.748 901.749 392.19 923.615 367.238 946.771C325.923 985.126 279.085 1028.59 270.822 1065.11C266.934 1082.29 267.946 1094.28 273.926 1101.77C278.923 1108.01 287.339 1111.05 299.671 1111.05C319.962 1111.05 349.031 1102.68 379.8 1093.84C417.41 1083.01 460.035 1070.75 496.402 1070.75C513.741 1070.75 528.089 1073.44 540.269 1078.99C554.273 1085.37 566.147 1094.59 577.62 1103.52C596.554 1118.24 614.437 1132.15 639.742 1132.15C642.427 1132.13 645.168 1131.97 647.91 1131.67ZM540.957 1077.51C528.557 1071.87 513.989 1069.12 496.421 1069.12C459.834 1069.12 417.085 1081.42 379.38 1092.27C348.716 1101.09 319.751 1109.43 299.69 1109.43C287.883 1109.43 279.878 1106.59 275.207 1100.74C269.551 1093.66 268.634 1082.12 272.408 1065.46C280.566 1029.41 327.203 986.129 368.356 947.936C393.365 924.723 416.99 902.79 429.389 884.964C469.091 827.867 482.149 726.196 438.312 665.841C427.24 650.595 408.459 635.444 388.58 619.396C346.251 585.235 298.277 546.517 317.573 497.425C326.639 474.365 348.859 463.866 372.378 452.737C387.089 445.783 402.297 438.589 414.324 428.014C424.746 418.844 433.124 409.883 441.235 401.209C462.05 378.941 478.491 361.345 512.833 361.345C518.24 361.345 524.115 361.794 530.296 362.663C616.52 374.881 717.369 393.605 823.195 461.487C939.673 536.21 1047.97 614.629 1093.22 751.588C1112.73 810.681 1104.17 880.36 1071.93 924.972C1050.07 955.216 1019.61 971.207 983.845 971.207C971.216 971.207 957.852 969.192 944.105 965.218C901.318 952.837 874.255 927.417 861.359 887.505C849.819 851.768 850.382 807.797 850.927 765.277C851.796 697.098 852.694 626.589 804.5 585.779C781.468 566.272 780.857 565.976 767.55 569.253C761.789 570.667 753.908 572.615 740.582 573.867C730.599 574.813 723.521 575.051 717.827 575.242C698.359 575.911 698.359 575.911 670.216 601.408L669.834 601.752C661.915 608.926 650.499 614.237 638.405 619.854C620.455 628.194 601.904 636.82 595.245 652.219C586.333 672.844 594.395 731.928 599.687 757.31C605.964 787.363 625.174 815.038 642.121 839.445L645.694 844.594C651.645 853.192 657.941 861.942 664.026 870.396C699.706 919.966 736.599 971.217 735.691 1035.12C735.108 1076.45 689.904 1125.25 647.767 1130.04C645.092 1130.35 642.408 1130.5 639.809 1130.5C615.058 1130.5 597.385 1116.76 578.671 1102.21C567.084 1093.25 555.143 1083.97 540.957 1077.51Z" fill="#5D5D5D"/>
<path d="M1446.63 6.93492C1441.78 4.43208 1436.84 2.1203 1431.8 0.0186768H1429.18C1435.13 2.42599 1440.95 5.09123 1446.63 8.0335V6.93492Z" fill="#5D5D5D"/>
<path d="M1058.29 17.0324C1063.33 34.0651 1099.38 43.4938 1122.36 43.4938C1155.17 43.4938 1189.55 37.0265 1225.95 30.1867C1262.71 23.2704 1300.73 16.1249 1337.71 16.1249C1378.24 16.1249 1412.29 24.7989 1441.77 42.6531C1443.34 43.5988 1445.01 44.621 1446.63 45.6049V43.7135C1445.3 42.9015 1443.91 42.0513 1442.61 41.2679C1412.85 23.2609 1378.55 14.5009 1337.71 14.5009C1300.58 14.5009 1262.49 21.6655 1225.66 28.5913C1189.33 35.4216 1155.01 41.8698 1122.36 41.8698C1099.38 41.8698 1064.47 32.2405 1059.84 16.5643C1058.28 11.3198 1060.16 5.77919 1065.43 0.00927734H1063.31C1058.37 5.85561 1056.67 11.5491 1058.29 17.0324Z" fill="#5D5D5D"/>
<path d="M1330.57 128.935C1326.33 128.935 1322.21 128.906 1318.15 128.868C1314.24 128.839 1310.41 128.801 1306.64 128.801C1284.63 128.801 1267.11 129.976 1247.79 135.841C1237.68 138.908 1228.23 143.722 1219.07 148.384C1203.79 156.17 1189.36 163.516 1172.08 163.516C1169.23 163.516 1166.32 163.306 1163.46 162.895C1150.71 161.051 1141.18 153.543 1131.94 146.273C1121.58 138.105 1111.78 130.396 1098.03 130.396C1096.79 130.396 1095.51 130.463 1094.23 130.597C1085.75 131.466 1072.18 139.089 1059.05 146.474C1050.61 151.221 1042.63 155.702 1036.99 157.784C1028.76 160.812 1022.6 162.284 1018.1 163.353C1004.54 166.582 1002.83 167.776 996.226 192.757C994.401 199.664 993.083 206.121 991.803 212.359C987.055 235.525 983.31 253.828 958.607 271.31C941.937 283.079 920.787 288.801 893.953 288.801C867.358 288.801 839.559 283.232 815.037 278.322C802.217 275.752 790.095 273.326 781.096 272.37C775.87 271.816 767.808 271.482 759.535 271.482C735.844 271.482 708.084 280.156 706.144 292.603C705.227 298.497 709.832 307.353 736.99 316.036L740.019 317.001C843.543 350.207 915.743 393.538 989.233 466.57C1009.5 486.717 1024.98 496.098 1037.95 496.098C1041 496.098 1043.97 495.563 1046.81 494.512C1060.59 489.363 1070.64 471.977 1082.28 451.83C1088.29 441.427 1095.1 429.639 1103.15 418.299C1142.14 363.351 1198.09 323.201 1260.7 305.251C1279.16 299.949 1297.2 297.265 1314.29 297.265C1370.04 297.265 1409.38 324.557 1446.63 352.652V350.637C1409.45 322.647 1370.08 295.651 1314.29 295.651C1297.04 295.651 1278.87 298.354 1260.25 303.694C1197.29 321.749 1141.04 362.119 1101.83 417.363C1093.74 428.769 1086.91 440.596 1080.88 451.018C1069.4 470.888 1059.48 488.054 1046.24 492.993C1043.6 493.977 1040.81 494.483 1037.95 494.483C1025.44 494.483 1010.32 485.246 990.37 465.423C916.689 392.201 844.307 348.755 740.515 315.463L737.487 314.498C717.149 307.993 706.584 300.312 707.749 292.852C709.364 282.506 734.048 273.096 759.545 273.096C767.76 273.096 775.756 273.431 780.934 273.975C789.856 274.921 801.94 277.347 814.731 279.908C839.33 284.837 867.215 290.425 893.963 290.416C921.15 290.416 942.606 284.598 959.552 272.628C984.772 254.774 988.574 236.203 993.398 212.684C994.678 206.465 995.996 200.027 997.802 193.168C1004.36 168.283 1005.7 167.967 1018.48 164.92C1023.02 163.841 1029.24 162.36 1037.55 159.294C1043.33 157.163 1051.35 152.654 1059.86 147.878C1072.24 140.923 1086.26 133.033 1094.41 132.202C1095.63 132.078 1096.86 132.011 1098.04 132.011C1111.22 132.011 1120.8 139.557 1130.95 147.544C1140.34 154.937 1150.05 162.589 1163.22 164.49C1166.16 164.92 1169.14 165.13 1172.08 165.13C1189.75 165.13 1205.02 157.354 1219.8 149.827C1228.88 145.203 1238.28 140.408 1248.25 137.389C1267.37 131.581 1284.77 130.415 1306.63 130.415C1310.4 130.415 1314.23 130.444 1318.13 130.482C1322.19 130.511 1326.32 130.549 1330.57 130.549C1350.28 130.549 1367.93 132.851 1384.51 137.59C1405.46 143.57 1426.02 151.938 1446.62 161.682V159.895C1426.18 150.257 1405.77 141.984 1384.96 136.042C1368.24 131.256 1350.44 128.935 1330.57 128.935Z" fill="#5D5D5D"/>
<path d="M1262.14 855.847C1263.97 858.245 1267.4 861.502 1276.03 862.209C1308.29 864.846 1357.05 868.839 1398.23 906.343L1398.7 906.764C1412.77 919.622 1424.2 935.89 1432.67 955.12C1435.01 960.432 1438.81 963.469 1443.1 963.469C1444.26 963.469 1445.46 963.231 1446.63 962.743V961.587C1445.47 962.142 1444.28 962.495 1443.1 962.495C1439.21 962.495 1435.73 959.658 1433.55 954.719C1425.02 935.365 1413.52 918.991 1399.35 906.038L1398.87 905.608C1357.45 867.884 1308.5 863.881 1276.1 861.225C1267.86 860.547 1264.62 857.49 1262.9 855.245C1258.79 849.867 1258.27 841.585 1258.75 839.034C1263.24 819.279 1268.82 794.69 1266.71 767.78C1263.18 722.222 1244.97 683.084 1227.36 645.226C1213.22 614.848 1197.2 580.411 1202.76 564.715C1212.66 536.783 1253.14 496.728 1270.08 480.803C1280.84 470.687 1293.63 465.557 1308.09 465.557C1316.36 465.557 1323.5 467.295 1328.02 468.757C1357.71 478.329 1399.76 500.262 1446.61 530.382V529.246C1399.89 499.259 1357.97 477.402 1328.32 467.85C1323.72 466.369 1316.48 464.602 1308.09 464.602C1293.38 464.602 1280.36 469.817 1269.41 480.115C1252.41 496.088 1211.81 536.276 1201.84 564.41C1196.15 580.477 1212.25 615.106 1226.48 645.656C1244.05 683.428 1262.22 722.49 1265.75 767.875C1267.83 794.642 1262.27 819.145 1257.79 838.881C1257.29 841.547 1257.84 850.23 1262.14 855.847Z" fill="#5D5D5D"/>
<path d="M1023.09 50.0948C1050.95 67.586 1083.42 76.088 1122.37 76.088C1158.2 76.088 1195.71 69.038 1231.98 62.2173C1267.29 55.5781 1303.79 48.7191 1337.71 48.7191C1372.12 48.7191 1400.63 55.8551 1424.89 70.5378C1429.13 73.098 1433.56 75.8014 1438.21 78.6291C1440.96 80.3008 1443.77 82.0108 1446.63 83.7494V81.1032C1444.18 79.613 1441.75 78.1323 1439.38 76.6898C1434.75 73.8718 1430.3 71.1683 1426.06 68.5986C1401.45 53.6962 1372.55 46.4551 1337.71 46.4551C1303.57 46.4551 1266.96 53.3332 1231.56 59.9915C1195.39 66.7931 1157.98 73.824 1122.36 73.824C1083.85 73.824 1051.78 65.4366 1024.28 48.1746C1005.83 36.5775 996.913 24.3976 997.792 11.9503C998.069 7.97634 999.378 3.98325 1001.62 0.00927734H999.101C997.047 3.92594 995.815 7.8617 995.538 11.7879C994.601 25.1428 1003.87 38.02 1023.09 50.0948Z" fill="#5D5D5D"/>
<path d="M1330.57 161.529C1303.43 161.529 1274.56 166.448 1243.94 171.674C1209.49 177.549 1173.87 183.624 1135.93 183.634C1133.19 183.634 1130.48 183.605 1127.87 183.538C1114.7 183.223 1103.53 181.055 1093.67 179.134C1085.15 177.472 1077.8 176.049 1070.74 176.049C1053.96 176.049 1041.63 184.876 1028.17 206.532C1021.68 216.973 1016.95 229.44 1012.36 241.505C1004.26 262.846 995.882 284.913 977.368 297.981C970.997 302.481 958.798 305.967 945.882 309.655C923.318 316.093 897.745 323.392 894.268 338.628C889.941 357.734 929.174 383.861 950.257 397.904C954.184 400.521 957.565 402.776 959.791 404.409C984.514 422.541 1004.96 434.615 1024.39 434.615C1027.05 434.615 1029.7 434.386 1032.26 433.918C1047.75 431.138 1061.83 420.171 1076.56 399.423C1119.81 338.466 1182.01 293.883 1251.7 273.898C1273.1 267.766 1294.15 264.651 1314.28 264.651C1369.97 264.651 1411.18 287.148 1446.62 312.205V311.021C1411.18 286.04 1369.96 263.696 1314.28 263.696C1294.05 263.696 1272.91 266.82 1251.43 272.981C1181.52 293.033 1119.14 337.74 1075.76 398.878C1061.19 419.407 1047.31 430.24 1032.08 432.982C1029.56 433.431 1026.98 433.66 1024.37 433.66C1005.21 433.66 984.915 421.662 960.345 403.635C958.11 401.992 954.709 399.728 950.773 397.111C929.881 383.202 891.011 357.304 895.195 338.858C898.538 324.185 923.825 316.963 946.131 310.6C959.122 306.894 971.398 303.388 977.913 298.793C996.665 285.553 1005.1 263.343 1013.25 241.868C1017.81 229.85 1022.53 217.422 1028.97 207.057C1042.23 185.735 1054.33 177.033 1070.72 177.033C1077.69 177.033 1085 178.456 1093.47 180.099C1103.37 182.029 1114.59 184.207 1127.83 184.522C1130.45 184.589 1133.17 184.618 1135.91 184.618C1173.94 184.618 1209.6 178.533 1244.13 172.638C1274.66 167.432 1303.49 162.513 1330.56 162.513C1347.26 162.513 1362.04 164.414 1375.72 168.321C1399.17 175.017 1422.66 185.239 1446.6 197.227V196.138C1422.76 184.226 1399.36 174.062 1375.98 167.384C1362.24 163.449 1347.38 161.529 1330.57 161.529Z" fill="#5D5D5D"/>
<path d="M1402.87 1088.55C1407.02 1091.21 1413.75 1092.66 1421.83 1092.66C1429.04 1092.66 1437.56 1091.46 1446.62 1088.7V1086.34C1437.55 1089.18 1429.02 1090.41 1421.83 1090.41C1414.29 1090.41 1407.82 1089.04 1404.08 1086.65C1385.12 1074.54 1376.73 1053.15 1367.86 1030.52C1360.2 1010.99 1352.28 990.781 1336.91 976.538L1336.86 975.87L1336.19 975.889C1318.52 960.298 1294.69 952.713 1263.39 952.713C1232.87 952.713 1200.74 960.04 1174.93 965.935C1157.3 969.956 1142.07 973.433 1132.27 973.433C1126.51 973.433 1123.01 972.249 1121.57 969.813C1119.65 966.565 1121.1 960.499 1125.88 951.758C1148.18 911.025 1193.23 813.93 1190.11 773.741C1187.65 742.035 1172.41 709.288 1157.68 677.621C1136.35 631.767 1114.28 584.347 1130.34 539.047C1148.67 487.367 1229.4 394.991 1286.85 387.157C1290.2 386.699 1293.82 386.47 1297.6 386.47C1334.97 386.47 1389.63 408.737 1446.62 440.988V438.571C1389.62 406.397 1335 384.206 1297.6 384.206C1293.71 384.206 1289.99 384.444 1286.55 384.912C1228.37 392.851 1146.71 486.115 1128.21 538.283C1111.83 584.452 1134.1 632.292 1155.62 678.566C1170.28 710.053 1185.42 742.609 1187.86 773.913C1190.64 809.736 1151.33 900.565 1123.89 950.669C1118.55 960.423 1117.19 966.871 1119.62 970.959C1121.5 974.14 1125.64 975.688 1132.27 975.688C1142.33 975.688 1157.67 972.192 1175.44 968.132C1201.13 962.266 1233.13 954.968 1263.39 954.968C1294.32 954.968 1317.75 962.457 1335.03 977.866C1350.23 991.775 1358.12 1011.87 1365.74 1031.32C1374.78 1054.33 1383.29 1076.04 1402.87 1088.55Z" fill="#5D5D5D"/>
<path d="M594.032 0.0186768H591.663C586.696 17.4144 583.218 36.4723 581.155 57.4025C577.573 93.7988 574.411 141.477 581.871 187.436C587.307 220.928 598.216 235.868 617.236 235.868C617.236 235.868 617.236 235.868 617.246 235.868C629.387 235.868 643.506 229.984 659.851 223.163C671.209 218.425 682.95 213.534 695.502 209.98C696.706 209.636 697.9 209.312 699.113 208.987C734.85 199.405 775.135 198.058 817.874 204.975C829.347 206.828 840.963 210.038 852.207 213.142C868.59 217.67 885.537 222.351 902.741 223.106C912.075 223.517 918.714 222.571 923.414 220.23C937.141 213.4 930.464 196.31 923.395 178.227C919.22 167.528 914.893 156.475 914.186 146.55C910.412 93.8943 939.845 45.8818 978.744 0.0186768H975.773C937.17 45.8054 908.148 93.8275 911.941 146.721C912.676 156.981 917.061 168.206 921.303 179.058C928.276 196.893 934.294 212.302 922.411 218.215C918.121 220.355 911.626 221.234 902.846 220.851C885.9 220.106 869.077 215.464 852.809 210.964C841.508 207.84 829.825 204.621 818.237 202.739C775.182 195.766 734.583 197.141 698.531 206.799C697.298 207.124 696.104 207.458 694.891 207.802C682.205 211.394 670.397 216.314 658.982 221.071C642.866 227.796 628.948 233.595 617.255 233.604C599.563 233.604 589.342 219.256 584.116 187.073C576.703 141.372 579.846 93.8848 583.419 57.6222C585.473 36.5869 588.998 17.4526 594.032 0.0186768Z" fill="#5D5D5D"/>
<path d="M525.596 637.499C528.385 637.499 530.592 633.573 532.751 624.755C540.852 591.808 567.628 548.189 609.183 524.995C651.234 501.524 679.272 495.429 694.337 492.162C701.817 490.538 705.571 489.717 706.469 487.749C706.813 486.994 706.708 486.115 706.135 485.064C703.24 479.763 651.129 450.607 576.197 444.57L573.035 444.312C566.281 443.758 560.444 443.28 554.846 443.28C535.301 443.28 519.53 448.754 482.742 479.829C476.934 484.74 470.982 489.296 465.231 493.7C447.434 507.342 432.064 519.12 433.067 532.485C433.841 542.754 444.005 552.937 465.059 564.553C488.378 577.412 502.573 602.898 511.973 619.759C517.944 630.439 521.88 637.499 525.596 637.499ZM465.537 563.694C445.075 552.412 434.777 542.181 434.041 532.408C433.077 519.56 448.256 507.934 465.833 494.464C471.594 490.051 477.545 485.485 483.372 480.565C519.921 449.671 535.55 444.236 554.856 444.236C560.416 444.236 566.233 444.713 572.968 445.267L576.13 445.525C649.343 451.429 702.552 480.489 705.304 485.523C705.858 486.545 705.743 487.051 705.609 487.347C704.912 488.876 700.861 489.755 694.146 491.216C679.033 494.503 650.91 500.616 608.724 524.154C566.921 547.492 539.973 591.378 531.824 624.536C529.837 632.608 527.802 636.534 525.605 636.534C522.453 636.534 518.211 628.92 512.843 619.282C503.376 602.316 489.094 576.686 465.537 563.694Z" fill="#5D5D5D"/>
<path d="M531.7 692.924C534.499 692.924 536.438 689.562 537.804 682.33C546.192 637.89 564.361 574.937 625.079 541.349C643.841 530.966 665.029 522.741 689.857 516.197C694.853 514.879 700.202 511.277 705.371 507.8C712.067 503.291 718.983 498.629 725.374 498.629C726.11 498.629 726.845 498.696 727.543 498.811C731.125 499.451 733.8 501.514 736.379 503.511C739.293 505.765 742.044 507.895 745.836 507.895C747.269 507.895 748.74 507.59 750.317 506.969C753.03 505.899 754.443 503.797 755.81 501.763C757.739 498.887 759.554 496.184 765.038 496.652C770.483 497.11 773.415 501.266 776.53 505.66C778.708 508.736 780.953 511.917 784.134 513.684C786.465 514.974 790.658 516.369 794.365 516.369C796.954 516.369 798.788 515.681 799.819 514.334C800.794 513.044 800.966 511.22 800.316 508.899C798.205 501.285 781.879 494.178 771.084 489.478C767.894 488.092 765.143 486.889 763.366 485.953C747.288 477.441 731.249 470.219 717.675 464.287C660.463 439.258 608.314 423.983 558.257 417.602C552.621 416.886 547.739 416.532 543.316 416.532C518.67 416.532 499.555 427.317 461.516 462.682C452.182 471.356 442.582 478.817 433.287 486.019C412.49 502.164 396.06 514.917 396.451 530.966C396.766 543.623 407.762 557.121 431.052 573.428C468.556 599.679 493.46 639.543 509.939 665.918C520.113 682.187 526.819 692.924 531.7 692.924ZM431.625 572.645C408.602 556.529 397.741 543.279 397.435 530.956C397.053 515.394 413.312 502.775 433.898 486.803C443.203 479.581 452.822 472.111 462.184 463.408C500.013 428.234 518.966 417.516 543.326 417.516C547.701 417.516 552.544 417.86 558.142 418.577C608.113 424.948 660.167 440.195 717.293 465.185C730.848 471.117 746.868 478.32 762.917 486.822C764.722 487.777 767.493 488.99 770.693 490.385C781.325 495.018 797.393 502.011 799.38 509.176C799.944 511.191 799.829 512.739 799.036 513.77C797.995 515.136 795.922 515.423 794.355 515.423C790.983 515.423 786.894 514.133 784.592 512.853C781.602 511.191 779.415 508.106 777.303 505.116C774.199 500.731 770.998 496.193 765.104 495.697C759.029 495.162 756.994 498.266 754.997 501.237C753.66 503.234 752.39 505.116 749.954 506.08C748.482 506.663 747.136 506.94 745.827 506.94C742.369 506.94 739.742 504.915 736.962 502.766C734.277 500.693 731.517 498.553 727.696 497.875C726.941 497.741 726.148 497.674 725.355 497.674C718.668 497.674 711.628 502.422 704.817 507.007C699.476 510.599 694.433 514 689.599 515.27C664.695 521.833 643.43 530.087 624.592 540.509C563.511 574.288 545.256 637.527 536.83 682.158C535.588 688.759 533.897 691.959 531.681 691.959C527.335 691.959 520.39 680.83 510.76 665.431C494.253 638.979 469.282 599.01 431.625 572.645Z" fill="#5D5D5D"/>
<path d="M650.948 1097.95C673.015 1095.44 693.821 1080.27 703.947 1059.3C713.194 1040.16 718.19 1007.69 689.522 961.712C677.209 941.976 663.787 922.039 650.805 902.762C613.682 847.651 578.624 795.588 564.142 743.363C547.768 684.288 560.922 635.559 605.524 590.002C644.146 550.558 695.206 527.928 745.598 527.928C783.465 527.928 817.244 541.244 840.725 565.442C866.527 592.027 879.414 630.907 878.009 677.888C877.684 688.797 877.169 700.07 876.615 711.992C874.666 754.406 872.45 802.476 879.299 842.474C887.18 888.461 905.865 916.871 936.415 929.328C952.77 935.996 968.274 939.368 982.498 939.368C1008.36 939.368 1030.37 928.086 1046.15 906.736C1072.98 870.425 1079.41 808.246 1062.15 752.008C1025.11 631.347 936.1 559.309 804.491 482.189C704.52 423.611 620.083 405.527 543.727 394.704C538.034 393.901 532.617 393.491 527.612 393.491C495.724 393.491 480.545 409.731 461.334 430.288C453.95 438.179 446.327 446.347 436.85 454.677C425.941 464.268 416.445 470.114 408.058 475.263C394.607 483.536 382.991 490.672 370.21 509.777C344.837 547.712 378.788 570.982 414.726 595.619C433.717 608.639 453.357 622.099 463.875 638.024C529.99 738.185 503.309 845.043 456.3 911.636C442.859 930.675 423.237 948.644 402.46 967.683C377.049 990.953 350.779 1015.02 335.752 1041.88C329.285 1053.44 327.451 1061.29 330.135 1065.88C332.103 1069.23 336.45 1070.85 343.414 1070.85H343.423C355.823 1070.85 375.521 1065.71 398.333 1059.76C430.326 1051.42 470.142 1041.04 505.306 1041.04C523.943 1041.04 539.925 1044.01 552.793 1049.87C565.613 1055.7 576.465 1064.14 586.954 1072.3C604.206 1085.72 620.503 1098.38 643.535 1098.38C645.962 1098.38 648.455 1098.24 650.948 1097.95ZM553.204 1048.98C540.03 1042.98 524.364 1040.06 505.315 1040.06C470.018 1040.06 430.144 1050.47 398.094 1058.82C375.349 1064.75 355.699 1069.87 343.423 1069.88H343.414C336.813 1069.88 332.743 1068.41 330.967 1065.37C328.464 1061.11 330.307 1053.57 336.593 1042.34C351.543 1015.61 377.756 991.603 403.11 968.38C423.925 949.312 443.585 931.305 457.093 912.19C484.652 873.148 500.911 828.641 504.121 783.466C507.789 731.814 494.521 682.703 464.678 637.489C454.064 621.402 434.338 607.885 415.27 594.817C379.734 570.457 346.165 547.454 371.012 510.312C383.679 491.379 395.209 484.29 408.564 476.084C416.98 470.907 426.514 465.051 437.49 455.403C447.005 447.034 454.647 438.857 462.041 430.947C481.099 410.562 496.145 394.465 527.612 394.465C532.56 394.465 537.938 394.866 543.584 395.669C619.844 406.473 704.176 424.537 803.994 483.029C935.403 560.035 1024.26 631.939 1061.21 752.295C1078.39 808.255 1072.03 870.091 1045.37 906.172C1029.78 927.265 1008.04 938.413 982.498 938.413C968.398 938.413 953.018 935.06 936.778 928.44C906.563 916.126 888.078 887.955 880.254 842.321C873.414 802.419 875.631 754.406 877.579 712.039C878.124 700.108 878.649 688.836 878.974 677.917C880.388 630.668 867.406 591.55 841.412 564.773C817.75 540.394 783.723 526.972 745.598 526.972C694.948 526.972 643.64 549.708 604.837 589.333C581.136 613.531 566.511 638.502 560.101 665.679C554.379 689.944 555.401 715.44 563.215 743.631C577.735 796.009 612.842 848.129 650.002 903.316C662.985 922.584 676.397 942.511 688.701 962.237C717.14 1007.84 712.21 1039.97 703.078 1058.89C693.095 1079.57 672.585 1094.52 650.843 1097C648.388 1097.28 645.933 1097.42 643.545 1097.42C620.847 1097.42 604.684 1084.85 587.556 1071.53C577.028 1063.34 566.129 1054.86 553.204 1048.98Z" fill="#5D5D5D"/>
<path d="M1330.57 184.131C1305.34 184.131 1277.37 188.898 1247.74 193.951C1212.37 199.988 1175.79 206.226 1135.93 206.226C1132.98 206.226 1130.1 206.188 1127.34 206.121C1124.96 206.064 1122.62 205.997 1120.31 205.94C1114.28 205.777 1108.59 205.625 1103.1 205.625C1068.76 205.625 1047.5 212.627 1033.47 249.539C1024.62 272.877 1014.57 299.328 990.475 316.39C983.654 321.214 976.843 325.331 970.824 328.971C956.877 337.396 945.863 344.055 945.452 353.244C945.07 361.689 953.62 371.853 973.155 386.192C991.898 399.939 1007.32 406.626 1020.3 406.626C1021.47 406.626 1022.65 406.568 1023.79 406.463C1042.64 404.715 1055.29 389.134 1071.3 369.408C1078.58 360.447 1086.82 350.283 1096.5 340.606C1138.42 298.679 1189.94 268.1 1245.48 252.176C1268.9 245.46 1292.06 242.05 1314.29 242.05C1369.22 242.05 1411.58 261.919 1446.63 284.875V283.719C1411.57 260.83 1369.2 241.085 1314.29 241.085C1291.96 241.085 1268.72 244.505 1245.21 251.249C1189.51 267.221 1137.85 297.886 1095.81 339.928C1086.11 349.634 1077.84 359.817 1070.56 368.796C1054.69 388.342 1042.16 403.779 1023.72 405.489C1022.6 405.594 1021.45 405.642 1020.32 405.642C1007.55 405.642 992.318 399.022 973.748 385.39C954.499 371.261 946.073 361.355 946.436 353.264C946.828 344.59 957.642 338.055 971.34 329.773C977.368 326.134 984.208 321.997 991.048 317.154C1015.39 299.93 1025.49 273.326 1034.4 249.864C1048.21 213.477 1069.21 206.58 1103.12 206.58C1108.6 206.58 1114.28 206.733 1120.3 206.895C1122.61 206.962 1124.95 207.019 1127.33 207.077C1130.09 207.144 1132.98 207.182 1135.94 207.182C1175.88 207.182 1212.5 200.934 1247.91 194.887C1277.49 189.843 1305.42 185.076 1330.58 185.076C1345.16 185.076 1357.91 186.691 1369.55 190.015C1394.58 197.161 1420.19 208.882 1446.64 222.552V221.463C1420.3 207.86 1394.78 196.215 1369.82 189.089C1358.08 185.755 1345.25 184.131 1330.57 184.131Z" fill="#5D5D5D"/>
<path d="M549.936 548.371C571.927 508.316 612.097 494.34 644.643 486.631C647.767 485.895 648.063 484.29 647.958 483.402C647.194 476.877 616.73 464.382 571.239 464.382C566.109 464.382 560.855 464.545 555.639 464.86C534.853 466.121 485.847 495.104 468.241 516.56C463.665 522.129 461.592 526.772 462.079 530.335C463.292 539.238 471.231 543.193 480.421 547.769C490.136 552.612 501.16 558.096 506.519 570.887C509.643 578.338 513.741 582.111 518.708 582.111C527.143 582.111 537.652 570.763 549.936 548.371ZM508.009 570.266C502.411 556.921 491.11 551.294 481.137 546.326C472.358 541.951 464.773 538.178 463.674 530.115C463.254 527.049 465.26 522.712 469.483 517.582C486.897 496.375 535.254 467.707 555.725 466.474C560.913 466.159 566.128 465.997 571.23 465.997C615.937 465.997 645.732 478.368 646.344 483.584C646.439 484.415 645.083 484.864 644.261 485.055C611.39 492.84 570.809 506.978 548.513 547.587C530 581.338 516.081 589.505 508.009 570.266Z" fill="#5D5D5D"/>
<path d="M1184.65 924.236C1186.95 927.551 1192.57 928.974 1203.46 928.974C1210.26 928.974 1218.38 928.429 1227.78 927.809C1239.41 927.035 1252.59 926.156 1266.24 926.156C1309.41 926.156 1338.5 935.327 1357.91 955.091C1375.96 968.972 1385.91 991.602 1394.69 1011.57C1405.36 1035.83 1414.58 1056.79 1434.94 1056.79C1437.1 1056.79 1439.38 1056.54 1441.72 1056.06C1443.28 1055.74 1444.93 1055.32 1446.63 1054.8V1053.11C1444.81 1053.69 1443.05 1054.14 1441.39 1054.49C1439.15 1054.95 1436.97 1055.19 1434.93 1055.19C1415.63 1055.19 1406.61 1034.68 1396.16 1010.93C1387.3 990.781 1377.26 967.95 1358.98 953.897C1339.32 933.875 1309.85 924.551 1266.23 924.551C1252.54 924.551 1239.32 925.43 1227.66 926.213C1218.29 926.834 1210.2 927.379 1203.46 927.379C1193.44 927.379 1187.88 926.089 1185.97 923.338C1184.92 921.828 1184.91 919.784 1185.92 917.09C1206.45 862.19 1223.65 792.693 1221.99 771.295C1219.07 733.819 1202.6 698.407 1186.67 664.17C1167.18 622.3 1148.78 582.741 1160.48 549.765C1176.74 503.921 1250.98 424.346 1291.19 418.853C1293.11 418.595 1295.28 418.461 1297.62 418.461C1328.93 418.461 1384.11 440.882 1446.64 477.947V476.074C1384.18 439.153 1329.05 416.837 1297.62 416.837C1295.21 416.837 1292.97 416.971 1290.97 417.248C1250.31 422.789 1175.34 503.013 1158.96 549.211C1147.05 582.818 1165.58 622.663 1185.21 664.838C1201.09 698.951 1217.49 734.22 1220.38 771.41C1221.83 790.162 1206.44 857.624 1184.41 916.517C1183.19 919.727 1183.27 922.258 1184.65 924.236Z" fill="#5D5D5D"/>
<path d="M713.93 92.3756C718.257 92.3756 723.273 91.726 729.253 90.3981C735.204 89.0799 740.831 87.8284 745.922 87.1406C754.558 85.9752 762.926 85.4975 770.358 85.0677C778.832 84.5805 786.455 82.2973 793.648 78.0941C823.701 60.5265 836.263 24.5887 840.266 9.95377C841.231 6.42878 842.186 3.16171 843.132 0.0188302H842.119C841.202 3.08529 840.266 6.26638 839.33 9.69585C835.356 24.2161 822.909 59.8673 793.151 77.2535C786.092 81.3803 778.612 83.6156 770.234 84.0933C762.84 84.5232 754.453 85.0008 745.779 86.1758C740.64 86.8636 735.003 88.1246 729.033 89.4429C723.12 90.7516 718.171 91.3916 713.92 91.3916C706.784 91.3916 701.817 89.5575 698.722 85.7937C694.146 80.2148 693.496 70.2321 696.668 54.3744L697.184 51.7856C701.492 29.9574 708.886 13.1444 720.55 0.00927734H719.27C707.826 13.1635 700.508 29.9192 696.229 51.5946L695.713 54.1834C692.474 70.3468 693.191 80.5874 697.967 86.4051C701.263 90.4268 706.479 92.3756 713.93 92.3756Z" fill="#5D5D5D"/>
<path d="M1330.57 206.398C1307.23 206.398 1280.16 211.012 1251.49 215.903C1215.2 222.093 1177.67 228.494 1135.93 228.494C1132.87 228.494 1129.83 228.465 1126.82 228.389L1119.72 228.207C1113.86 228.045 1108.32 227.901 1103.11 227.901C1057.89 227.901 1055.65 252.758 1053.28 279.076C1051.98 293.51 1050.63 308.441 1042.68 321.118C1039.84 325.646 1032.21 331.378 1024.14 337.444C1006.94 350.369 987.447 365.004 996.799 378.721C1000.82 384.625 1005.66 387.615 1011.2 387.615C1014.23 387.615 1017.52 386.717 1020.97 384.931C1036.22 377.069 1052.54 353.76 1065.65 335.036C1073.09 324.414 1079.51 315.233 1083.02 313.132C1086.7 310.935 1090.82 310.638 1094.35 310.638C1095.72 310.638 1097.1 310.686 1098.49 310.734C1099.9 310.782 1101.32 310.829 1102.73 310.829C1108.04 310.829 1113.66 310.189 1118.73 305.575C1124.84 300.006 1125.62 292.803 1126.35 285.83C1127.02 279.563 1127.65 273.64 1131.82 268.663C1144.4 253.627 1188.55 243.109 1217.77 236.155C1226.37 234.111 1233.8 232.343 1239.34 230.748C1264.76 223.459 1289.97 219.762 1314.29 219.762C1368.26 219.762 1411.42 237.454 1446.63 258.623V256.732C1411.39 235.668 1368.22 218.157 1314.29 218.157C1289.82 218.157 1264.45 221.874 1238.89 229.21C1233.38 230.786 1225.97 232.554 1217.39 234.598C1186.21 242.02 1143.51 252.185 1130.58 267.641C1126.1 273 1125.41 279.439 1124.74 285.677C1123.99 292.65 1123.3 299.242 1117.63 304.4C1112.97 308.642 1107.71 309.234 1102.71 309.234C1101.32 309.234 1099.92 309.186 1098.53 309.139C1097.12 309.091 1095.73 309.043 1094.33 309.043C1090.58 309.043 1086.19 309.368 1082.17 311.766C1078.36 314.039 1072.16 322.904 1064.3 334.129C1051.98 351.725 1035.11 375.827 1020.2 383.517C1011.12 388.198 1003.93 386.364 998.107 377.833C989.625 365.395 1008.46 351.238 1025.08 338.762C1033.64 332.333 1041.03 326.783 1044.03 321.997C1052.19 308.986 1053.55 293.864 1054.87 279.238C1057.27 252.567 1059.35 229.535 1103.09 229.535C1108.28 229.535 1113.8 229.688 1119.65 229.841L1126.76 230.022C1129.78 230.099 1132.84 230.127 1135.91 230.127C1177.8 230.127 1215.39 223.708 1251.76 217.508C1280.35 212.636 1307.35 208.031 1330.57 208.031C1342.98 208.031 1353.67 209.359 1363.24 212.091C1389.62 219.629 1417.48 233.012 1446.61 248.469V246.644C1417.67 231.312 1389.97 218.052 1363.68 210.544C1353.98 207.754 1343.15 206.398 1330.57 206.398Z" fill="#5D5D5D"/>
<path d="M720.149 58.31C722.633 63.1247 727.982 65.5702 736.054 65.5702C738.156 65.5702 740.477 65.3982 742.942 65.0639C752.409 63.7934 761.235 63.2775 769.088 62.8285C771.419 62.6948 773.578 62.3413 775.689 61.7491C778.029 61.0899 780.227 60.1442 782.414 58.8641C799.867 48.6617 820.511 18.618 821.189 0.0186768H819.575C818.858 17.8729 798.339 47.6873 781.602 57.4694C779.539 58.673 777.456 59.571 775.249 60.1919C773.253 60.7556 771.209 61.0899 768.935 61.2236C761.121 61.6726 752.256 62.1885 742.732 63.4686C731.574 64.9684 724.362 62.9623 721.582 57.5649C717.818 50.257 722.298 36.1666 733.265 20.7865C739.226 12.4278 747.288 5.64529 757.921 0.0186768H754.549C744.977 5.48289 737.573 11.9788 731.956 19.8503C720.454 35.966 716.041 50.343 720.149 58.31Z" fill="#5D5D5D"/>
<path d="M1233.39 882.194C1239.4 890.83 1252.08 891.795 1269.63 893.142C1271.53 893.285 1273.5 893.438 1275.5 893.601C1281.05 894.059 1286.86 894.25 1293.01 894.46C1321.55 895.435 1353.9 896.543 1383.11 923.147L1383.46 923.463C1399.66 937.649 1409.3 962.629 1417.8 984.677C1426.37 1006.88 1433.76 1026.06 1445.52 1026.06C1445.89 1026.06 1446.26 1025.98 1446.63 1025.95V1024.97C1446.26 1025.01 1445.89 1025.09 1445.52 1025.09C1434.43 1025.09 1427.14 1006.19 1418.7 984.324C1410.16 962.171 1400.47 937.075 1384.1 922.737L1383.75 922.421C1354.29 895.578 1321.76 894.47 1293.05 893.486C1286.91 893.276 1281.11 893.075 1275.59 892.626C1273.57 892.464 1271.6 892.311 1269.7 892.168C1252.42 890.84 1239.93 889.884 1234.19 881.631C1228.75 873.807 1229.51 859.172 1236.69 834.172C1243.32 811.035 1245.77 789.895 1244.2 769.538C1240.98 728.05 1223.64 690.794 1206.87 654.742C1189.36 617.113 1172.83 581.576 1181.48 557.169C1195.89 516.541 1265.42 444.818 1294.22 440.892C1294.86 440.806 1295.96 440.701 1297.63 440.701C1321.68 440.701 1376.09 460.714 1446.65 503.931V502.794C1376.16 459.702 1321.75 439.736 1297.63 439.736C1295.91 439.736 1294.75 439.841 1294.08 439.937C1265.07 443.892 1195.06 516.006 1180.58 556.854C1171.8 581.634 1188.41 617.342 1206.02 655.181C1222.74 691.138 1240.04 728.308 1243.24 769.624C1244.82 789.866 1242.37 810.892 1235.77 833.914C1228.4 859.564 1227.69 873.998 1233.39 882.194Z" fill="#5D5D5D"/>
<path d="M644.796 1174.1C692.847 1168.63 750.078 1111.51 765.429 1067.87C792.072 992.099 744.709 931.085 698.913 872.087C654.702 815.143 612.947 761.35 633.256 695.866C650.948 638.807 708.084 608.028 752.858 608.028C776.988 608.028 797.871 616.587 811.636 632.139C827.991 650.605 834.42 678.642 830.226 713.242C815.801 832.137 811.502 962.199 944.048 1000.52C959.266 1004.93 974.273 1007.15 988.679 1007.15C1044.48 1007.15 1080.1 975.181 1100.15 948.366C1138.6 896.943 1151.95 820.034 1133.38 756.975C1117.61 703.499 1086.61 651.646 1038.58 598.446C967.204 519.368 869.985 451.371 741.385 390.577L735.825 387.94C681.727 362.348 625.776 335.887 566.883 321.299C563.387 320.43 559.527 319.408 555.401 318.309C537.203 313.476 514.553 307.457 495.132 307.457C487.356 307.457 480.612 308.46 475.109 310.428C466.722 313.428 462.003 319.169 457.436 324.729C454.026 328.865 450.511 333.155 445.467 336.221C442.19 338.208 435.828 340.673 429.093 343.271C418.203 347.484 406.931 351.83 403.358 356.014C396.48 364.077 398.371 368.93 400.205 373.63C401.524 377.002 402.766 380.193 401.151 384.921L399.881 388.666C390.099 417.439 390.099 417.439 367.563 423.954C363.207 425.215 357.791 426.782 351.371 428.826C332.801 434.749 325.177 443.843 317.822 452.641C312.157 459.414 306.807 465.805 296.729 470.983C296.462 470.954 296.156 470.954 295.831 470.954C284.196 470.954 196.071 476.753 189.308 498.428C187.483 504.265 191.447 510.608 201.086 517.276C213.161 525.625 222.313 526.59 228.14 526.59C230.987 526.59 233.556 526.341 236.04 526.103C238.17 525.892 240.176 525.701 242.087 525.701C249.175 525.701 256.349 527.707 266.189 551.953C268.606 557.923 270.478 562.805 272.026 566.864C279.639 586.801 279.897 587.069 299.251 595.341C304.047 597.395 310.017 599.936 317.621 603.442C342.535 614.934 347.646 627.983 354.103 644.51C357.523 653.241 361.392 663.138 368.719 674.257C376.562 686.17 385.771 695.751 394.684 705.027C410.465 721.458 425.377 736.981 430.125 762.898C438.35 807.787 413.971 850.66 386.411 890.304C373.047 909.524 345.582 931.907 316.504 955.598C267.125 995.825 211.155 1041.42 210.954 1083.65C210.84 1107.76 217.03 1126.27 229.363 1138.65C242.794 1152.14 263.199 1158.7 291.752 1158.7C333.154 1158.7 384.042 1144.73 428.95 1132.42C464.295 1122.72 494.826 1114.35 514.343 1114.35C518.756 1114.35 522.491 1114.8 525.462 1115.67C544.281 1121.27 559.203 1133.21 573.637 1144.76C592.79 1160.09 610.884 1174.56 636.753 1174.56C639.36 1174.57 642.073 1174.41 644.796 1174.1ZM526.064 1113.53C522.845 1112.57 519.004 1112.1 514.304 1112.1C494.482 1112.1 463.818 1120.51 428.31 1130.25C383.545 1142.53 332.81 1156.45 291.714 1156.46C263.791 1156.46 243.902 1150.11 230.92 1137.07C219.036 1125.13 213.065 1107.16 213.171 1083.68C213.362 1042.52 268.892 997.277 317.889 957.356C347.092 933.569 374.68 911.091 388.226 891.613C416.063 851.567 440.671 808.217 432.303 762.506C427.431 735.921 412.299 720.159 396.27 703.479C387.433 694.28 378.301 684.775 370.563 673.035C363.36 662.106 359.539 652.334 356.167 643.707C349.518 626.713 344.264 613.282 318.529 601.407C310.896 597.892 304.916 595.332 300.101 593.278C281.445 585.311 281.445 585.311 274.099 566.072C272.551 562.012 270.679 557.111 268.252 551.121C258.871 527.984 251.544 523.456 242.058 523.456C240.043 523.456 237.979 523.657 235.801 523.867C233.365 524.096 230.853 524.345 228.121 524.345C222.131 524.345 213.782 523.332 202.357 515.432C193.625 509.395 189.957 503.902 191.447 499.116C197.322 480.278 279.477 473.228 295.812 473.228C296.204 473.228 296.471 473.237 296.605 473.247L296.863 472.206L297.36 473.189C308.097 467.763 313.915 460.819 319.541 454.093C327.031 445.142 334.1 436.698 352.05 430.975C358.44 428.941 363.838 427.374 368.184 426.123C391.637 419.34 391.952 418.996 402.02 389.392L403.291 385.657C405.173 380.145 403.654 376.257 402.317 372.818C400.588 368.366 399.088 364.526 405.087 357.495C408.287 353.75 419.779 349.308 429.915 345.392C436.755 342.755 443.212 340.252 446.651 338.16C452.01 334.893 455.66 330.461 459.185 326.181C463.76 320.621 468.078 315.367 475.883 312.578C481.147 310.696 487.623 309.731 495.141 309.731C514.276 309.731 536.763 315.711 554.827 320.507C558.964 321.605 562.842 322.637 566.348 323.506C625.031 338.036 680.867 364.459 734.87 390.003L740.429 392.64C868.753 453.3 965.733 521.126 1036.91 599.984C1084.7 652.926 1115.55 704.492 1131.21 757.634C1149.6 820.043 1136.39 896.16 1098.35 947.038C1078.6 973.442 1043.55 1004.92 988.679 1004.92C974.493 1004.92 959.686 1002.72 944.678 998.385C813.833 960.546 818.151 831.516 832.461 713.539C836.741 678.279 830.121 649.621 813.327 630.658C799.122 614.619 777.638 605.792 752.848 605.792C707.262 605.792 649.095 637.135 631.088 695.226C610.435 761.828 654.502 818.601 697.117 873.501C742.55 932.021 789.521 992.539 763.289 1067.15C748.148 1110.18 691.796 1166.5 644.529 1171.88C641.892 1172.18 639.265 1172.33 636.714 1172.33C611.638 1172.33 593.841 1158.1 575.013 1143.03C560.416 1131.33 545.313 1119.25 526.064 1113.53Z" fill="#5D5D5D"/>
<path d="M700.365 117.519C711.351 117.519 723.464 114.825 734.153 112.456C739.637 111.243 744.805 110.096 748.941 109.533C756.746 108.482 764.331 108.042 771.658 107.622C786.923 106.743 801.348 105.912 812.802 99.4067C822.03 94.1622 828.755 85.5169 833.359 72.9741C841.651 50.4389 851.873 25.1144 866.384 0.0191057H865.266C850.87 25.0189 840.696 50.2097 832.442 72.6397C827.914 84.9533 821.323 93.4267 812.314 98.5565C801.061 104.957 786.751 105.778 771.591 106.648C764.235 107.068 756.641 107.508 748.798 108.568C744.623 109.132 739.426 110.287 733.934 111.501C723.292 113.86 711.236 116.545 700.355 116.545C689.685 116.545 682.129 113.946 677.238 108.606C665.373 95.5952 671.315 65.8954 674.515 49.9326L675.021 47.4011C678.651 29.0119 684.479 13.3549 692.704 0H691.567C683.456 13.3357 677.687 28.926 674.076 47.2101L673.569 49.732C670.34 65.8572 664.332 95.8722 676.531 109.246C681.613 114.825 689.408 117.519 700.365 117.519Z" fill="#5D5D5D"/>
<path d="M950.257 0.0191057H948.031C944.019 4.28922 940.59 8.19633 937.982 11.7404C902.388 60.1351 886.597 104.814 889.711 148.317C890.925 165.245 888.852 176.441 883.359 182.555C879.863 186.452 874.876 188.344 868.122 188.344C858.732 188.344 847.154 184.761 834.907 180.969C823.778 177.53 812.276 173.967 801.424 172.782C793.266 171.894 785.089 171.454 776.415 171.454C749.065 171.454 723.072 175.81 695.55 180.415C690.927 181.189 686.284 181.972 681.622 182.727L681.269 182.784C671.611 184.35 660.673 186.137 650.012 186.137C629.875 186.137 616.978 179.459 610.597 165.713C597.271 137.007 600.996 102.454 604.283 71.9615C604.732 67.8537 605.161 63.7842 605.563 59.7816C607.76 37.5044 611.6 17.6918 617.284 0H615.574C609.957 17.6727 606.145 37.4375 603.958 59.6288C603.566 63.6218 603.127 67.6818 602.687 71.7895C599.382 102.483 595.628 137.274 609.135 166.391C615.803 180.768 629.177 187.751 650.012 187.751C660.797 187.751 671.811 185.955 681.527 184.379L681.88 184.322C686.551 183.558 691.194 182.784 695.818 182.01C723.263 177.415 749.189 173.069 776.415 173.069C785.022 173.069 793.142 173.498 801.243 174.387C811.942 175.552 823.377 179.087 834.429 182.507C846.8 186.337 858.493 189.948 868.122 189.948C875.363 189.948 880.741 187.875 884.563 183.624C890.352 177.167 892.568 165.579 891.316 148.193C888.24 105.1 903.926 60.7751 939.281 12.6957C942.061 8.91279 945.844 4.67133 950.257 0.0191057Z" fill="#5D5D5D"/>
<path d="M939.759 244.715C928.811 252.443 913.832 256.207 893.953 256.207C870.596 256.207 844.479 250.982 821.437 246.358C807.853 243.635 795.024 241.066 784.544 239.948C779.405 239.404 765.639 238.133 748.664 238.133C717.216 238.133 676.884 242.394 663.329 262.693C657.434 271.52 657.196 282.611 662.612 295.66C665.153 301.793 671.735 305.117 678.097 308.337C683.132 310.887 688.338 313.514 691.223 317.45C694.652 322.112 696.668 328.637 698.626 334.941C701.225 343.338 703.919 352.031 710.023 357.161C717.598 363.523 725.919 366.494 736.188 366.494C743.314 366.494 750.613 365.052 757.663 363.657C764.627 362.282 771.839 360.858 778.794 360.858C785.471 360.858 791.289 362.186 796.571 364.909C809.401 371.519 814.798 380.422 820.024 389.03C826.825 400.254 833.254 410.858 854.442 415.816C898.777 426.19 910.928 437.032 940.275 463.207C944.058 466.579 948.127 470.209 952.579 474.117C963.144 483.392 970.949 493.977 978.495 504.208C985.23 513.34 992.185 522.788 1001.15 531.405C1012.17 542.009 1022.54 546.728 1032.58 551.294C1045.97 557.379 1058.6 563.12 1070.06 582.799L1071.85 585.885C1086.26 610.818 1100.84 633.897 1109.8 633.897C1111.23 633.897 1112.48 633.334 1113.5 632.216C1116.72 628.681 1117.6 619.281 1116.17 603.49C1115.33 594.234 1108.64 585.961 1102.18 577.965C1095.2 569.339 1088.61 561.191 1089 552.182C1089.47 541.388 1096 536.076 1102.91 530.45C1107.97 526.332 1113.2 522.081 1116.27 515.48C1123.62 499.642 1125.41 485.456 1127.13 471.738C1129.53 452.642 1131.79 434.606 1148.88 414.211C1179.47 377.7 1222.37 350.13 1269.68 336.556C1285.44 332.037 1300.02 329.84 1314.27 329.84C1362.61 329.84 1397.29 356.139 1434.02 383.976C1438.18 387.128 1442.38 390.3 1446.62 393.462V390.644C1442.85 387.816 1439.1 384.989 1435.39 382.18C1398.35 354.104 1363.38 327.586 1314.28 327.586C1299.82 327.586 1285.03 329.812 1269.06 334.387C1221.32 348.077 1178.03 375.913 1147.15 412.768C1129.63 433.679 1127.33 452.03 1124.89 471.47C1123.19 485.016 1121.43 499.021 1114.22 514.544C1111.38 520.667 1106.35 524.756 1101.49 528.711C1094.5 534.404 1087.26 540.289 1086.75 552.096C1086.32 561.955 1093.48 570.82 1100.42 579.398C1106.68 587.136 1113.14 595.141 1113.93 603.71C1115.61 622.29 1113.72 628.643 1111.83 630.707C1111.25 631.347 1110.6 631.652 1109.8 631.652C1100.91 631.652 1081.91 598.8 1073.8 584.777L1072.01 581.681C1060.18 561.382 1047.23 555.488 1033.52 549.25C1023.65 544.76 1013.46 540.127 1002.72 529.79C993.904 521.298 986.997 511.936 980.32 502.88C972.706 492.544 964.825 481.864 954.078 472.426C949.636 468.519 945.567 464.898 941.794 461.526C912.132 435.074 899.857 424.127 854.968 413.618C834.706 408.88 828.516 398.668 821.963 387.855C816.575 378.98 811.015 369.8 797.613 362.893C792.005 359.998 785.844 358.594 778.803 358.594C771.619 358.594 764.302 360.037 757.233 361.441C750.288 362.817 743.104 364.23 736.198 364.23C726.482 364.23 718.63 361.431 711.484 355.432C705.886 350.723 703.298 342.364 700.795 334.273C698.789 327.786 696.706 321.071 693.057 316.103C689.857 311.738 684.402 308.986 679.129 306.321C672.853 303.15 666.93 300.15 664.704 294.791C659.593 282.487 659.765 272.103 665.21 263.945C678.212 244.476 717.77 240.387 748.664 240.387C765.534 240.387 779.214 241.648 784.306 242.193C794.68 243.301 807.462 245.861 820.988 248.565C844.135 253.198 870.367 258.452 893.943 258.452C914.3 258.452 929.709 254.554 941.048 246.549C969.296 226.574 961.195 196.454 953.362 167.327C944.994 136.214 936.339 104.03 971.14 83.0333C975.314 80.5114 980.884 79.2408 987.714 79.2408C1008.52 79.2408 1037.84 90.6182 1066.18 101.614C1090.87 111.195 1114.18 120.242 1129.35 120.605C1131.54 120.652 1133.71 120.681 1135.9 120.681C1135.91 120.681 1135.91 120.681 1135.92 120.681C1168.52 120.681 1201.49 115.054 1233.36 109.619C1265.18 104.193 1298.08 98.5853 1330.57 98.5853C1353.29 98.5853 1373.81 101.289 1393.29 106.849C1411.3 111.988 1429.07 118.78 1446.62 126.546V124.082C1429.28 116.44 1411.72 109.762 1393.91 104.67C1374.23 99.0534 1353.51 96.3213 1330.57 96.3213C1297.88 96.3213 1264.89 101.948 1232.97 107.393C1201.19 112.809 1168.32 118.417 1135.91 118.417C1133.7 118.484 1131.57 118.398 1129.39 118.341C1114.62 117.997 1091.48 109.017 1066.98 99.5024C1038.44 88.4306 1008.93 76.9768 987.704 76.9768C980.358 76.9768 974.56 78.3238 969.965 81.0941C933.712 102.97 942.586 135.985 951.174 167.91C959.17 197.61 966.717 225.657 939.759 244.715Z" fill="#5D5D5D"/>
<path d="M665.21 162.264C672.117 162.264 680.132 161.414 692.006 159.427C722.126 154.373 752.026 152.023 786.101 152.023C794.661 152.023 803.449 152.167 812.983 152.463C816.298 152.568 819.183 152.616 821.81 152.616C837.582 152.616 846.791 150.705 853.583 146.005C861.702 140.398 866.517 130.558 869.698 113.124C876.987 73.0978 893.045 37.1314 920.175 0.0186768H918.981C892.014 37.0454 876.022 72.9832 868.743 112.952C865.61 130.109 860.91 139.757 853.028 145.212C846.418 149.778 837.371 151.651 821.81 151.651C819.202 151.651 816.317 151.603 813.021 151.498C803.478 151.202 794.68 151.058 786.111 151.058C751.979 151.058 722.031 153.418 691.853 158.471C680.036 160.449 672.069 161.299 665.22 161.299C645.761 161.299 631.804 154.784 626.942 122.954C622.299 92.5283 626.416 60.3257 630.696 38.6694C633.457 24.6841 637.268 11.8642 642.064 0.0186768H641.051C636.284 11.7878 632.492 24.5312 629.741 38.4784C625.451 60.211 621.315 92.5378 625.977 123.097C630.228 150.925 641.596 162.273 665.21 162.264Z" fill="#5D5D5D"/>
<path d="M678.527 138.009C681.555 138.009 684.832 137.713 688.271 137.14C713.92 132.841 741.385 130.31 769.89 129.612C776.539 129.45 782.92 129.612 789.025 129.775C793.123 129.88 796.992 129.985 800.765 129.985C812.372 129.985 824.389 129.087 833.675 122.581C841.374 117.184 846.848 108.233 850.421 95.2031C860.126 59.8576 874.064 28.5721 892.759 0.0186768H891.612C873.032 28.5148 859.162 59.7143 849.485 94.9451C845.969 107.736 840.619 116.515 833.111 121.779C824.045 128.132 812.2 129.011 800.756 129.011C796.992 129.011 793.132 128.905 789.044 128.8C782.93 128.648 776.539 128.476 769.862 128.638C741.308 129.335 713.806 131.876 688.109 136.185C673.359 138.659 662.383 135.698 655.533 127.377C639.953 108.424 648.34 65.895 652.849 43.0446C656.002 27.0818 660.701 12.8099 666.93 0.0186768H665.831C659.67 12.7717 655.027 26.9863 651.894 42.8536C647.356 65.8568 638.902 108.682 654.779 127.988C660.253 134.637 668.239 138.009 678.527 138.009Z" fill="#5D5D5D"/>
</svg>
