<svg width="1440" height="636" viewBox="0 0 1440 636" fill="none" xmlns="http://www.w3.org/2000/svg">
<mask id="mask0_2_12443" style="mask-type:alpha" maskUnits="userSpaceOnUse" x="0" y="0" width="1444" height="636">
<rect width="1444" height="636" fill="#F7E5E5"/>
</mask>
<g mask="url(#mask0_2_12443)">
<path d="M420.839 458.588C414.563 433.817 363.952 427.187 305.346 419.516C290.864 417.625 275.885 415.657 261.345 413.364C197.093 403.219 138.267 370.969 81.3797 339.769C52.8932 324.151 23.7857 308.207 -5.99048 295.081V297.546C23.394 310.557 52.1385 326.319 80.2907 341.756C137.35 373.042 196.348 405.397 260.992 415.6C275.57 417.902 290.558 419.86 305.059 421.761C360.446 429.012 412.758 435.852 418.652 459.142C423.247 477.282 399.613 504.814 346.404 543.292C271.748 597.285 209.101 622.438 149.262 622.428C115.254 622.428 81.5325 613.983 49.0338 597.333C28.8009 586.978 11.004 574.377 -5.99048 561.653V564.471C10.6792 576.899 28.1513 589.175 48.0021 599.348C80.8256 616.161 114.891 624.692 149.262 624.692C149.262 624.692 149.262 624.692 149.272 624.692C209.617 624.692 272.675 599.406 347.732 545.127C402.527 505.501 425.759 478.008 420.839 458.588Z" fill="#5D5D5D"/>
<path d="M499.985 367.693C494.425 367.693 486.592 371.237 480.822 388.108C474.345 407.079 486.831 411.493 500.052 416.155C502.373 416.976 504.771 417.817 507.092 418.753C512.298 420.845 516.683 421.905 520.113 421.905C523.915 421.905 526.656 420.625 528.252 418.094C533.19 410.261 525.271 392.932 521.632 385.843C515.757 374.485 507.665 367.693 499.985 367.693ZM526.886 417.244C524.306 421.342 517.791 421.323 507.694 417.263C505.334 416.317 502.927 415.467 500.587 414.636C487.604 410.05 476.38 406.095 482.35 388.633C486.668 375.985 492.772 369.308 499.985 369.308C507.044 369.308 514.601 375.765 520.189 386.589C527.506 400.841 530 412.305 526.886 417.244Z" fill="#5D5D5D"/>
<path d="M62.8663 570.337C87.398 582.908 108.242 588.764 128.466 588.764C149.635 588.764 168.454 582.402 190.253 575.037C202.615 570.862 216.629 566.124 232.515 562.14C240.568 560.115 247.599 559.886 252.184 559.886C255.27 559.886 258.222 560.01 261.068 560.125C263.772 560.23 266.332 560.335 268.864 560.335C281.951 560.335 292.354 557.24 303.75 541.841C311.44 531.447 314.325 523.423 316.866 516.335C320.669 505.741 323.678 497.372 340.414 485.412C344.703 482.336 350.855 479.919 356.797 477.588C366.369 473.825 374.632 470.577 374.967 465.065C375.244 460.603 370.047 455.626 358.612 449.398C344.914 441.966 325.359 440.963 308.04 440.963C300.311 440.963 292.201 441.202 284.358 441.431C276.477 441.66 268.329 441.899 260.524 441.899C243.138 441.899 230.948 440.695 221.013 437.992C164.833 422.736 112.168 393.848 65.694 368.371C41.3056 354.997 17.6337 342.034 -5.99048 330.895V332.682C17.3757 343.734 40.7897 356.554 64.9202 369.794C111.471 395.319 164.231 424.255 220.593 439.559C230.681 442.3 242.994 443.513 260.533 443.513C268.357 443.513 276.525 443.275 284.416 443.045C292.249 442.816 300.35 442.577 308.049 442.577C325.168 442.577 344.465 443.561 357.848 450.821C368.375 456.553 373.591 461.31 373.362 464.969C373.085 469.449 364.889 472.678 356.205 476.089C350.168 478.467 343.93 480.913 339.478 484.103C322.331 496.369 319.102 505.368 315.357 515.8C312.854 522.773 310.017 530.683 302.461 540.885C291.466 555.74 281.454 558.73 268.873 558.73C266.38 558.73 263.839 558.625 261.145 558.52C258.269 558.405 255.308 558.281 252.194 558.281C247.522 558.281 240.367 558.52 232.133 560.583C216.189 564.586 202.137 569.334 189.747 573.518C168.091 580.835 149.377 587.159 128.475 587.159C108.519 587.159 87.9043 581.361 63.6114 568.913C41.4011 557.526 21.4166 542.385 2.09122 527.731C-0.59313 525.696 -3.27748 523.662 -5.98093 521.627V523.643C-3.61182 525.429 -1.24272 527.225 1.11683 529.011C20.4804 543.703 40.5222 558.892 62.8663 570.337Z" fill="#5D5D5D"/>
<path d="M77.7305 541.325C101.584 553.543 124.969 559.484 149.243 559.494C162.827 559.494 192.164 553.953 217.737 544.668C240.138 536.539 266.857 523.05 266.924 504.89C267.001 483.511 225.723 471.637 201.058 464.548C195.698 463.001 191.065 461.673 187.97 460.555C143.807 444.554 99.9791 424.35 50.0273 396.962C30.9599 386.502 12.351 376.299 -5.99048 367.129V368.218C12.1981 377.322 30.6542 387.438 49.5592 397.803C99.5587 425.219 143.425 445.443 187.636 461.463C190.76 462.59 195.402 463.927 200.79 465.475C225.188 472.496 266.026 484.246 265.959 504.89C265.854 536.262 177.405 558.52 149.233 558.52C125.132 558.51 101.89 552.606 78.1795 540.455C58.4529 530.348 39.6147 516.067 21.3975 502.253C12.5802 495.566 3.50503 488.698 -5.98093 482.011V483.196C3.29487 489.749 12.1694 496.474 20.8148 503.027C39.0607 516.869 57.9275 531.179 77.7305 541.325Z" fill="#5D5D5D"/>
<path d="M88.0285 521.206C108.605 531.743 128.609 536.873 149.233 536.892C167.135 536.892 190.511 531.581 199.52 519.926C203.436 514.854 204.544 508.912 202.806 502.263C198.717 486.616 165.941 475.544 142.002 467.462C134.264 464.845 127.587 462.59 123.479 460.689C95.8236 447.86 68.4547 432.843 41.9838 418.322L39.032 416.708C23.7379 408.311 8.74954 400.096 -5.99048 392.482V393.571C8.59669 401.108 23.4322 409.238 38.5735 417.539L41.5253 419.163C68.0057 433.693 95.3937 448.71 123.078 461.558C127.224 463.479 133.93 465.752 141.696 468.37C164.088 475.926 197.915 487.351 201.87 502.502C203.522 508.845 202.481 514.51 198.755 519.324C189.948 530.721 166.916 535.918 149.186 535.918C128.771 535.908 108.911 530.807 88.4774 520.337C70.5181 511.138 52.4824 497.458 35.0294 484.227C22.4101 474.674 8.86417 464.424 -5.99048 454.719V455.875C8.6349 465.456 21.9993 475.572 34.4562 485.011C51.9283 498.27 70.0023 511.969 88.0285 521.206Z" fill="#5D5D5D"/>
<path d="M566.912 190.354C568.526 183.839 570.112 177.419 571.602 171.019H569.94C568.479 177.285 566.921 183.581 565.345 189.962C562.384 201.932 559.317 214.312 556.834 226.95C548.561 269.078 541.434 324.303 559.871 377.904C567.361 399.685 586.037 417.482 602.506 433.187C617.169 447.162 629.827 459.228 628.68 469.373C628.155 474.034 624.745 478.18 618.268 482.049C615.278 483.836 610.157 484.734 603.06 484.734C578.28 484.734 534.556 473.796 502.22 462.953C467.047 451.165 423.715 432.375 416.99 409.849C414.85 402.675 416.608 395.424 422.215 388.307C429.408 379.184 437.127 371.15 444.597 363.394C459.29 348.119 473.17 333.694 482.35 312.276C495.447 281.736 497.042 249.887 487.079 217.608C484.662 209.784 482.236 202.581 480.086 196.229C476.915 186.829 474.154 178.632 472.272 171.019H470.591C472.501 178.785 475.31 187.153 478.548 196.744C480.688 203.088 483.114 210.29 485.531 218.085C495.38 249.982 493.814 281.459 480.86 311.636C471.794 332.777 458.01 347.106 443.422 362.266C435.923 370.052 428.176 378.114 420.935 387.304C414.984 394.861 413.13 402.598 415.423 410.307C422.339 433.492 466.149 452.56 501.685 464.472C534.146 475.353 578.07 486.338 603.031 486.338C610.425 486.338 615.822 485.355 619.07 483.425C626.015 479.288 629.683 474.741 630.266 469.545C631.498 458.607 618.574 446.283 603.595 432.012C587.25 416.44 568.736 398.787 561.371 377.379C543.058 324.141 550.156 269.193 558.391 227.266C560.894 214.666 563.95 202.304 566.912 190.354Z" fill="#5D5D5D"/>
<path d="M98.1736 501.384C104.612 504.68 122.696 510.574 135.831 510.574C140.521 510.574 144.094 509.8 146.454 508.262C151.574 504.938 153.828 501.824 153.351 498.748C152.309 491.946 137.512 487.839 125.628 484.533C120.737 483.177 116.505 482.002 114.108 480.884C85.774 467.739 58.0708 452.541 31.2847 437.839L28.3137 436.215C16.6975 429.843 5.26275 423.586 -5.99048 417.625V419.45C5.01438 425.287 16.1912 431.41 27.5495 437.638L30.5013 439.253C57.3161 453.964 85.0384 469.172 113.429 482.346C115.951 483.511 120.231 484.705 125.189 486.081C136.022 489.09 150.857 493.217 151.746 498.987C152.109 501.346 150.026 504.011 145.565 506.906C143.473 508.262 140.196 508.95 135.821 508.95C123.126 508.95 105.042 503.085 98.8996 499.932C82.7553 491.66 65.5507 478.62 48.8714 465.972C32.9755 453.926 14.8825 440.218 -5.99048 427.742V429.633C14.4812 441.937 32.2782 455.416 47.9448 467.29C64.6431 479.957 81.8955 493.035 98.1736 501.384Z" fill="#5D5D5D"/>
<path d="M406.033 198.942C428.157 267.837 437.147 305.275 382.237 337.01C373.229 342.216 362.998 346.066 351.83 348.444C342.363 350.46 331.96 351.482 320.898 351.482C218.836 351.463 78.6481 266.194 3.33357 220.379L0.76386 218.812C-1.54792 217.408 -3.78329 216.052 -5.98999 214.705V216.596C-4.05077 217.771 -2.09244 218.965 -0.0767892 220.188L2.49292 221.755C77.9412 267.646 218.387 353.077 320.898 353.087C332.075 353.087 342.593 352.055 352.174 350.011C363.504 347.604 373.897 343.696 383.049 338.395C439.029 306.039 429.953 268.153 407.571 198.436C404.734 189.609 401.792 180.41 399.088 171.01H397.407C400.149 180.601 403.148 189.953 406.033 198.942Z" fill="#5D5D5D"/>
<path d="M277.184 189.112C277.834 191.538 278.732 194.519 279.763 197.891C282.677 207.434 282.152 213.873 278.216 217.025C276.238 218.601 273.363 219.404 269.647 219.404C253.894 219.404 227.662 205.352 219.046 200.728C214.833 198.474 211.661 196.773 209.177 195.531L195.937 188.997C183.796 183.055 171.95 177.047 160.477 171.019H158.404C170.393 177.343 182.783 183.638 195.498 189.866L208.728 196.401C211.203 197.633 214.374 199.324 218.577 201.578C227.251 206.221 253.636 220.369 269.637 220.369C273.573 220.369 276.668 219.499 278.808 217.78C283.088 214.35 283.718 207.568 280.68 197.604C279.658 194.251 278.76 191.271 278.111 188.835C276.554 182.998 274.987 177.085 273.525 171.019H272.532C274.013 177.18 275.608 183.189 277.184 189.112Z" fill="#5D5D5D"/>
<path d="M375.597 208.705C384.558 236.6 393.117 271.592 379.724 294.7C373.094 306.144 361.469 313.71 345.172 317.178C337.883 318.735 329.715 319.518 320.888 319.518C227.777 319.509 92.5661 237.259 19.9263 193.067L6.52373 184.928C2.43512 182.445 -1.74902 180.123 -5.99048 177.936V179.034C-1.92097 181.145 2.09121 183.371 6.03653 185.759L19.4392 193.898C92.1648 238.138 227.519 320.473 320.907 320.483C329.801 320.483 338.036 319.69 345.391 318.123C361.965 314.598 373.801 306.88 380.584 295.187C394.168 271.744 385.551 236.504 376.533 208.419C372.665 196.382 368.834 183.868 365.557 171.029H364.554C367.84 183.963 371.709 196.573 375.597 208.705Z" fill="#5D5D5D"/>
<path d="M299.022 183.294C299.605 185.491 300.426 188.176 301.381 191.29C306.072 206.651 313.151 229.864 306.454 240.573C303.722 244.948 299.49 247.795 293.882 249.046C291.618 249.552 289.097 249.81 286.364 249.81C262.788 249.81 227.385 230.829 208.366 220.627C204.678 218.649 201.487 216.939 199.09 215.745L197.437 214.923C195.565 213.987 193.817 213.118 192.212 212.335L185.983 209.278C160.277 196.697 135.86 183.819 113.382 171.019H111.433C134.341 184.106 159.274 197.279 185.553 210.157L191.782 213.214C193.387 214.006 195.135 214.876 197.007 215.802L198.66 216.624C201.039 217.808 204.22 219.518 207.907 221.496C227.003 231.736 262.54 250.794 286.364 250.794C289.163 250.794 291.762 250.527 294.093 250.011C299.958 248.702 304.391 245.703 307.266 241.098C314.201 230.017 307.037 206.546 302.299 191.013C301.353 187.908 300.531 185.233 299.949 183.046C298.888 179.081 297.828 175.069 296.806 171.019H295.812C296.853 175.155 297.942 179.253 299.022 183.294Z" fill="#5D5D5D"/>
<path d="M320.85 177.476C325.435 194.7 330.174 212.507 330.68 230.877C331.329 254.635 322.073 268.238 303.177 271.304C300.369 271.763 297.302 271.992 294.054 271.992C261.231 271.992 214.24 248.559 189.002 235.968C186.537 234.736 184.273 233.609 182.238 232.606L176.02 229.549C136.748 210.338 100.361 190.382 69.1043 171.019H67.2701C98.8422 190.659 135.745 210.921 175.59 230.437L181.809 233.494C183.843 234.497 186.107 235.624 188.572 236.847C213.887 249.476 261.002 272.976 294.054 272.976C297.35 272.976 300.464 272.737 303.33 272.279C322.789 269.117 332.313 255.189 331.645 230.867C331.138 212.373 326.381 194.509 321.786 177.238C321.242 175.174 320.688 173.101 320.143 171.028H319.14C319.713 173.187 320.286 175.337 320.85 177.476Z" fill="#5D5D5D"/>
<path d="M354.084 215.621C354.562 217.102 355.049 218.582 355.536 220.063C360.695 235.768 366.035 251.998 357.418 267.674C350.225 280.752 335.666 291.356 320.305 294.69C318.739 295.034 317.153 295.292 315.596 295.473C311.756 295.922 307.724 296.142 303.607 296.142C260.266 296.142 209.416 271.152 172.294 252.906L166.075 249.858C118.378 226.502 72.3141 198.483 31.6763 173.77C29.9568 172.719 28.4666 171.812 27.1578 171.019H25.295C28.3519 172.872 31.1796 174.592 31.1796 174.592C71.8364 199.324 117.91 227.352 165.655 250.728L171.864 253.775C209.072 272.059 260.037 297.107 303.607 297.107C307.763 297.107 311.832 296.877 315.711 296.428C317.296 296.247 318.911 295.97 320.516 295.626C336.135 292.235 350.951 281.45 358.268 268.133C367.086 252.094 361.688 235.653 356.463 219.757C355.976 218.277 355.489 216.796 355.02 215.315C350.473 201.168 346.003 186.342 342.306 171.009H341.312C345.009 186.466 349.518 201.378 354.084 215.621Z" fill="#5D5D5D"/>
<path d="M-5.99048 611.997C102.864 673.594 220.173 771.606 241.533 820.316C254.362 849.576 223.268 884.53 183.901 928.788C139.165 979.074 83.5004 1041.66 80.0327 1116.79C75.8199 1208.36 30.4345 1245.96 -5.99048 1257.34V1259.7C31.2656 1248.35 77.9884 1210.25 82.2968 1116.88C85.7262 1042.56 141.094 980.306 185.592 930.278C225.494 885.418 257.008 849.987 243.606 819.399C222.083 770.326 103.647 671.473 -5.99048 609.58V611.997Z" fill="#5D5D5D"/>
<path d="M542.351 171.201C542.409 171.143 542.466 171.076 542.523 171.019H541.205C539.18 173.168 537.136 175.452 535.731 178.747C531.719 188.166 532.856 197.987 533.954 207.482C534.566 212.775 535.206 218.248 534.948 223.598C534.547 232.014 532.827 240.745 531.175 249.19C529.809 256.163 528.395 263.366 527.716 270.397C523.58 313.089 527.315 351.701 538.826 385.155C541.215 392.091 550.567 402.771 560.473 414.081C573.14 428.535 586.237 443.485 586.753 452.56C586.868 454.585 586.352 456.181 585.167 457.432C581.747 461.062 572.567 461.731 557.894 459.4C547.223 457.709 536.973 453.257 527.057 448.949C521.268 446.437 515.279 443.829 509.308 441.823C507.617 441.259 505.869 440.676 504.073 440.084C482.608 432.996 453.214 423.3 449.001 406.305C446.995 398.204 450.931 388.938 460.703 378.774C476.112 362.754 492.046 346.189 502.831 321.046C513.168 296.945 525.061 250.04 520.514 224.649C519.577 219.442 517.409 215.937 515.307 212.536C512.499 207.989 509.843 203.699 511.056 195.914C511.954 190.182 514.18 186.819 516.148 183.858C518.508 180.304 520.571 177.085 519.998 171H519.033C519.606 176.789 517.696 179.779 515.346 183.323C513.32 186.371 511.028 189.819 510.101 195.761C508.831 203.9 511.582 208.332 514.486 213.042C516.54 216.357 518.66 219.796 519.558 224.811C524.077 250.011 512.231 296.667 501.943 320.655C491.225 345.635 475.357 362.133 460.006 378.086C449.985 388.499 445.963 398.071 448.055 406.515C452.392 424.026 482.083 433.827 503.758 440.982C505.554 441.574 507.302 442.157 508.993 442.721C514.925 444.717 520.896 447.306 526.666 449.809C536.639 454.146 546.946 458.626 557.731 460.336C563.501 461.253 568.488 461.721 572.548 461.721C579.197 461.721 583.553 460.527 585.865 458.082C587.221 456.639 587.852 454.757 587.718 452.484C587.173 443.074 573.971 428 561.199 413.422C551.36 402.188 542.065 391.575 539.734 384.821C528.271 351.501 524.545 313.022 528.672 270.474C529.35 263.5 530.754 256.307 532.12 249.362C533.783 240.879 535.502 232.109 535.913 223.627C536.171 218.191 535.531 212.679 534.919 207.349C533.773 197.566 532.694 188.31 536.61 179.129C538.053 175.748 540.24 173.436 542.351 171.201Z" fill="#5D5D5D"/>
<path d="M436.458 189.17C456.882 252.782 478.013 318.563 398.228 364.674C386.306 371.571 372.932 376.625 358.488 379.701C346.834 382.185 334.186 383.436 320.898 383.436C213.037 383.436 78.1317 303.231 -5.99048 252.113V254.759C78.4088 306.03 212.922 385.7 320.898 385.7C334.348 385.7 347.149 384.43 358.956 381.917C373.639 378.793 387.233 373.654 399.365 366.642C480.717 319.614 459.309 252.954 438.608 188.492C436.726 182.626 434.853 176.799 433.077 171.029H430.708C432.551 177.019 434.5 183.075 436.458 189.17Z" fill="#5D5D5D"/>
<path d="M214.126 174.219C220.182 177.285 228.474 181.479 235.792 181.479C238.858 181.479 241.523 180.724 243.701 179.234C243.883 179.11 244.064 178.976 244.236 178.842C246.634 176.932 248.163 174.181 249.127 171.019H247.437C246.558 173.684 245.23 175.986 243.233 177.581C243.09 177.696 242.947 177.801 242.794 177.906C240.883 179.205 238.533 179.874 235.792 179.874C228.856 179.874 220.765 175.776 214.852 172.786C213.963 172.337 213.123 171.917 212.359 171.535C212.359 171.535 211.938 171.324 211.317 171.028H207.649L211.642 172.987C212.416 173.35 213.247 173.77 214.126 174.219Z" fill="#5D5D5D"/>
<path d="M647.91 1302.67C690.735 1297.79 736.675 1248.19 737.267 1206.16C738.184 1141.73 701.129 1090.26 665.296 1040.48C659.211 1032.02 652.925 1023.29 646.983 1014.7L643.411 1009.55C626.55 985.264 607.435 957.733 601.235 928.004C595.971 902.785 587.928 844.159 596.688 823.878C603.098 809.043 621.372 800.55 639.045 792.335C651.254 786.66 662.784 781.301 670.875 773.965L671.248 773.621C698.951 748.526 698.951 748.526 717.837 747.876C723.549 747.685 730.657 747.437 740.687 746.491C754.138 745.22 762.086 743.262 767.894 741.839C771.581 740.931 774.256 740.272 776.625 740.272C782.452 740.272 787.315 744.389 803.421 758.031C851.041 798.353 850.143 868.471 849.274 936.277C848.185 1021.61 847.058 1109.85 943.618 1137.78C957.508 1141.8 971.025 1143.84 983.807 1143.84C1020.12 1143.84 1051.03 1127.62 1073.2 1096.94C1105.74 1051.91 1114.38 981.653 1094.71 922.1C1049.31 784.635 940.771 706.035 824.036 631.15C717.932 563.086 616.883 544.324 530.496 532.087C524.249 531.199 518.297 530.75 512.814 530.75C477.784 530.75 461.124 548.566 440.041 571.13C431.968 579.775 423.61 588.707 413.245 597.82C401.38 608.252 386.277 615.397 371.671 622.304C347.846 633.567 325.349 644.209 316.054 667.861C296.328 718.052 344.789 757.161 387.548 791.676C407.341 807.648 426.036 822.742 436.984 837.816C480.411 897.607 467.419 998.428 428.042 1055.07C415.748 1072.75 392.19 1094.62 367.238 1117.77C325.923 1156.13 279.085 1199.59 270.822 1236.11C266.934 1253.29 267.946 1265.28 273.926 1272.77C278.923 1279.01 287.339 1282.05 299.671 1282.05C319.962 1282.05 349.031 1273.68 379.8 1264.84C417.41 1254.01 460.035 1241.75 496.402 1241.75C513.741 1241.75 528.089 1244.44 540.269 1249.99C554.273 1256.37 566.147 1265.59 577.62 1274.52C596.554 1289.24 614.437 1303.15 639.742 1303.15C642.427 1303.13 645.168 1302.97 647.91 1302.67ZM540.957 1248.51C528.557 1242.87 513.989 1240.12 496.421 1240.12C459.834 1240.12 417.085 1252.42 379.38 1263.27C348.716 1272.09 319.751 1280.43 299.69 1280.43C287.883 1280.43 279.878 1277.59 275.207 1271.74C269.551 1264.66 268.634 1253.12 272.408 1236.46C280.566 1200.41 327.203 1157.13 368.356 1118.94C393.365 1095.72 416.99 1073.79 429.389 1055.96C469.091 998.867 482.149 897.196 438.312 836.841C427.24 821.595 408.459 806.444 388.58 790.396C346.251 756.235 298.277 717.517 317.573 668.425C326.639 645.365 348.859 634.866 372.378 623.737C387.089 616.783 402.297 609.589 414.324 599.014C424.746 589.844 433.124 580.883 441.235 572.209C462.05 549.941 478.491 532.345 512.833 532.345C518.24 532.345 524.115 532.794 530.296 533.663C616.52 545.881 717.369 564.605 823.195 632.487C939.673 707.21 1047.97 785.629 1093.22 922.588C1112.73 981.681 1104.17 1051.36 1071.93 1095.97C1050.07 1126.22 1019.61 1142.21 983.845 1142.21C971.216 1142.21 957.852 1140.19 944.105 1136.22C901.318 1123.84 874.255 1098.42 861.359 1058.51C849.819 1022.77 850.382 978.797 850.927 936.277C851.796 868.098 852.694 797.589 804.5 756.779C781.468 737.272 780.857 736.976 767.55 740.253C761.789 741.667 753.908 743.615 740.582 744.867C730.599 745.813 723.521 746.051 717.827 746.242C698.359 746.911 698.359 746.911 670.216 772.408L669.834 772.752C661.915 779.926 650.499 785.237 638.405 790.854C620.455 799.194 601.904 807.82 595.245 823.219C586.333 843.844 594.395 902.928 599.687 928.31C605.964 958.363 625.174 986.038 642.121 1010.45L645.694 1015.59C651.645 1024.19 657.941 1032.94 664.026 1041.4C699.706 1090.97 736.599 1142.22 735.691 1206.12C735.108 1247.45 689.904 1296.25 647.767 1301.04C645.092 1301.35 642.408 1301.5 639.809 1301.5C615.058 1301.5 597.385 1287.76 578.671 1273.21C567.084 1264.25 555.143 1254.97 540.957 1248.51Z" fill="#5D5D5D"/>
<path d="M1446.63 177.935C1441.78 175.432 1436.84 173.12 1431.8 171.019H1429.18C1435.13 173.426 1440.95 176.091 1446.63 179.034V177.935Z" fill="#5D5D5D"/>
<path d="M1058.29 188.032C1063.33 205.065 1099.38 214.494 1122.36 214.494C1155.17 214.494 1189.55 208.026 1225.95 201.187C1262.71 194.27 1300.73 187.125 1337.71 187.125C1378.24 187.125 1412.29 195.799 1441.77 213.653C1443.34 214.599 1445.01 215.621 1446.63 216.605V214.713C1445.3 213.901 1443.91 213.051 1442.61 212.268C1412.85 194.261 1378.55 185.501 1337.71 185.501C1300.58 185.501 1262.49 192.666 1225.66 199.591C1189.33 206.422 1155.01 212.87 1122.36 212.87C1099.38 212.87 1064.47 203.241 1059.84 187.564C1058.28 182.32 1060.16 176.779 1065.43 171.009H1063.31C1058.37 176.856 1056.67 182.549 1058.29 188.032Z" fill="#5D5D5D"/>
<path d="M1330.57 299.935C1326.33 299.935 1322.21 299.906 1318.15 299.868C1314.24 299.839 1310.41 299.801 1306.64 299.801C1284.63 299.801 1267.11 300.976 1247.79 306.841C1237.68 309.908 1228.23 314.722 1219.07 319.384C1203.79 327.17 1189.36 334.516 1172.08 334.516C1169.23 334.516 1166.32 334.306 1163.46 333.895C1150.71 332.051 1141.18 324.543 1131.94 317.273C1121.58 309.105 1111.78 301.396 1098.03 301.396C1096.79 301.396 1095.51 301.463 1094.23 301.597C1085.75 302.466 1072.18 310.089 1059.05 317.474C1050.61 322.221 1042.63 326.702 1036.99 328.784C1028.76 331.812 1022.6 333.284 1018.1 334.353C1004.54 337.582 1002.83 338.776 996.226 363.757C994.401 370.664 993.083 377.121 991.803 383.359C987.055 406.525 983.31 424.828 958.607 442.31C941.937 454.079 920.787 459.801 893.953 459.801C867.358 459.801 839.559 454.232 815.037 449.322C802.217 446.752 790.095 444.326 781.096 443.37C775.87 442.816 767.808 442.482 759.535 442.482C735.844 442.482 708.084 451.156 706.144 463.603C705.227 469.497 709.832 478.353 736.99 487.036L740.019 488.001C843.543 521.207 915.743 564.538 989.233 637.57C1009.5 657.717 1024.98 667.098 1037.95 667.098C1041 667.098 1043.97 666.563 1046.81 665.512C1060.59 660.363 1070.64 642.977 1082.28 622.83C1088.29 612.427 1095.1 600.639 1103.15 589.299C1142.14 534.351 1198.09 494.201 1260.7 476.251C1279.16 470.949 1297.2 468.265 1314.29 468.265C1370.04 468.265 1409.38 495.557 1446.63 523.652V521.637C1409.45 493.647 1370.08 466.651 1314.29 466.651C1297.04 466.651 1278.87 469.354 1260.25 474.694C1197.29 492.749 1141.04 533.119 1101.83 588.363C1093.74 599.769 1086.91 611.596 1080.88 622.018C1069.4 641.888 1059.48 659.054 1046.24 663.993C1043.6 664.977 1040.81 665.483 1037.95 665.483C1025.44 665.483 1010.32 656.246 990.37 636.423C916.689 563.201 844.307 519.755 740.515 486.463L737.487 485.498C717.149 478.993 706.584 471.312 707.749 463.852C709.364 453.506 734.048 444.096 759.545 444.096C767.76 444.096 775.756 444.431 780.934 444.975C789.856 445.921 801.94 448.347 814.731 450.908C839.33 455.837 867.215 461.425 893.963 461.416C921.15 461.416 942.606 455.598 959.552 443.628C984.772 425.774 988.574 407.203 993.398 383.684C994.678 377.465 995.996 371.027 997.802 364.168C1004.36 339.283 1005.7 338.967 1018.48 335.92C1023.02 334.841 1029.24 333.36 1037.55 330.294C1043.33 328.163 1051.35 323.654 1059.86 318.878C1072.24 311.923 1086.26 304.033 1094.41 303.202C1095.63 303.078 1096.86 303.011 1098.04 303.011C1111.22 303.011 1120.8 310.557 1130.95 318.544C1140.34 325.937 1150.05 333.589 1163.22 335.49C1166.16 335.92 1169.14 336.13 1172.08 336.13C1189.75 336.13 1205.02 328.354 1219.8 320.827C1228.88 316.203 1238.28 311.408 1248.25 308.389C1267.37 302.581 1284.77 301.415 1306.63 301.415C1310.4 301.415 1314.23 301.444 1318.13 301.482C1322.19 301.511 1326.32 301.549 1330.57 301.549C1350.28 301.549 1367.93 303.851 1384.51 308.59C1405.46 314.57 1426.02 322.938 1446.62 332.682V330.895C1426.18 321.257 1405.77 312.984 1384.96 307.042C1368.24 302.256 1350.44 299.935 1330.57 299.935Z" fill="#5D5D5D"/>
<path d="M1262.14 1026.85C1263.97 1029.25 1267.4 1032.5 1276.03 1033.21C1308.29 1035.85 1357.05 1039.84 1398.23 1077.34L1398.7 1077.76C1412.77 1090.62 1424.2 1106.89 1432.67 1126.12C1435.01 1131.43 1438.81 1134.47 1443.1 1134.47C1444.26 1134.47 1445.46 1134.23 1446.63 1133.74V1132.59C1445.47 1133.14 1444.28 1133.5 1443.1 1133.5C1439.21 1133.5 1435.73 1130.66 1433.55 1125.72C1425.02 1106.37 1413.52 1089.99 1399.35 1077.04L1398.87 1076.61C1357.45 1038.88 1308.5 1034.88 1276.1 1032.23C1267.86 1031.55 1264.62 1028.49 1262.9 1026.25C1258.79 1020.87 1258.27 1012.58 1258.75 1010.03C1263.24 990.279 1268.82 965.69 1266.71 938.78C1263.18 893.222 1244.97 854.084 1227.36 816.226C1213.22 785.848 1197.2 751.411 1202.76 735.715C1212.66 707.783 1253.14 667.728 1270.08 651.803C1280.84 641.687 1293.63 636.557 1308.09 636.557C1316.36 636.557 1323.5 638.295 1328.02 639.757C1357.71 649.329 1399.76 671.262 1446.61 701.382V700.246C1399.89 670.259 1357.97 648.402 1328.32 638.85C1323.72 637.369 1316.48 635.602 1308.09 635.602C1293.38 635.602 1280.36 640.817 1269.41 651.115C1252.41 667.088 1211.81 707.276 1201.84 735.41C1196.15 751.477 1212.25 786.106 1226.48 816.656C1244.05 854.428 1262.22 893.49 1265.75 938.875C1267.83 965.642 1262.27 990.145 1257.79 1009.88C1257.29 1012.55 1257.84 1021.23 1262.14 1026.85Z" fill="#5D5D5D"/>
<path d="M1023.09 221.095C1050.95 238.586 1083.42 247.088 1122.37 247.088C1158.2 247.088 1195.71 240.038 1231.98 233.217C1267.29 226.578 1303.79 219.719 1337.71 219.719C1372.12 219.719 1400.63 226.855 1424.89 241.538C1429.13 244.098 1433.56 246.801 1438.21 249.629C1440.96 251.301 1443.77 253.011 1446.63 254.749V252.103C1444.18 250.613 1441.75 249.132 1439.38 247.69C1434.75 244.872 1430.3 242.168 1426.06 239.599C1401.45 224.696 1372.55 217.455 1337.71 217.455C1303.57 217.455 1266.96 224.333 1231.56 230.991C1195.39 237.793 1157.98 244.824 1122.36 244.824C1083.85 244.824 1051.78 236.437 1024.28 219.175C1005.83 207.578 996.913 195.398 997.792 182.95C998.069 178.976 999.378 174.983 1001.62 171.009H999.101C997.047 174.926 995.815 178.862 995.538 182.788C994.601 196.143 1003.87 209.02 1023.09 221.095Z" fill="#5D5D5D"/>
<path d="M1330.57 332.529C1303.43 332.529 1274.56 337.448 1243.94 342.674C1209.49 348.549 1173.87 354.624 1135.93 354.634C1133.19 354.634 1130.48 354.605 1127.87 354.538C1114.7 354.223 1103.53 352.055 1093.67 350.134C1085.15 348.472 1077.8 347.049 1070.74 347.049C1053.96 347.049 1041.63 355.876 1028.17 377.532C1021.68 387.973 1016.95 400.44 1012.36 412.505C1004.26 433.846 995.882 455.913 977.368 468.981C970.997 473.481 958.798 476.967 945.882 480.655C923.318 487.093 897.745 494.392 894.268 509.628C889.941 528.734 929.174 554.861 950.257 568.904C954.184 571.521 957.565 573.776 959.791 575.409C984.514 593.541 1004.96 605.615 1024.39 605.615C1027.05 605.615 1029.7 605.386 1032.26 604.918C1047.75 602.138 1061.83 591.171 1076.56 570.423C1119.81 509.466 1182.01 464.883 1251.7 444.898C1273.1 438.766 1294.15 435.651 1314.28 435.651C1369.97 435.651 1411.18 458.148 1446.62 483.205V482.021C1411.18 457.04 1369.96 434.696 1314.28 434.696C1294.05 434.696 1272.91 437.82 1251.43 443.981C1181.52 464.033 1119.14 508.74 1075.76 569.878C1061.19 590.407 1047.31 601.24 1032.08 603.982C1029.56 604.431 1026.98 604.66 1024.37 604.66C1005.21 604.66 984.915 592.662 960.345 574.635C958.11 572.992 954.709 570.728 950.773 568.111C929.881 554.202 891.011 528.304 895.195 509.858C898.538 495.185 923.825 487.963 946.131 481.6C959.122 477.894 971.398 474.388 977.913 469.793C996.665 456.553 1005.1 434.343 1013.25 412.868C1017.81 400.85 1022.53 388.422 1028.97 378.057C1042.23 356.735 1054.33 348.033 1070.72 348.033C1077.69 348.033 1085 349.456 1093.47 351.099C1103.37 353.029 1114.59 355.207 1127.83 355.522C1130.45 355.589 1133.17 355.618 1135.91 355.618C1173.94 355.618 1209.6 349.533 1244.13 343.638C1274.66 338.432 1303.49 333.513 1330.56 333.513C1347.26 333.513 1362.04 335.414 1375.72 339.321C1399.17 346.017 1422.66 356.239 1446.6 368.227V367.138C1422.76 355.226 1399.36 345.062 1375.98 338.384C1362.24 334.449 1347.38 332.529 1330.57 332.529Z" fill="#5D5D5D"/>
<path d="M1402.87 1259.55C1407.02 1262.21 1413.75 1263.66 1421.83 1263.66C1429.04 1263.66 1437.56 1262.46 1446.62 1259.7V1257.34C1437.55 1260.18 1429.02 1261.41 1421.83 1261.41C1414.29 1261.41 1407.82 1260.04 1404.08 1257.65C1385.12 1245.54 1376.73 1224.15 1367.86 1201.52C1360.2 1181.99 1352.28 1161.78 1336.91 1147.54L1336.86 1146.87L1336.19 1146.89C1318.52 1131.3 1294.69 1123.71 1263.39 1123.71C1232.87 1123.71 1200.74 1131.04 1174.93 1136.93C1157.3 1140.96 1142.07 1144.43 1132.27 1144.43C1126.51 1144.43 1123.01 1143.25 1121.57 1140.81C1119.65 1137.57 1121.1 1131.5 1125.88 1122.76C1148.18 1082.02 1193.23 984.93 1190.11 944.741C1187.65 913.035 1172.41 880.288 1157.68 848.621C1136.35 802.767 1114.28 755.347 1130.34 710.047C1148.67 658.367 1229.4 565.991 1286.85 558.157C1290.2 557.699 1293.82 557.47 1297.6 557.47C1334.97 557.47 1389.63 579.737 1446.62 611.988V609.571C1389.62 577.397 1335 555.206 1297.6 555.206C1293.71 555.206 1289.99 555.444 1286.55 555.912C1228.37 563.851 1146.71 657.115 1128.21 709.283C1111.83 755.452 1134.1 803.292 1155.62 849.566C1170.28 881.053 1185.42 913.609 1187.86 944.913C1190.64 980.736 1151.33 1071.56 1123.89 1121.67C1118.55 1131.42 1117.19 1137.87 1119.62 1141.96C1121.5 1145.14 1125.64 1146.69 1132.27 1146.69C1142.33 1146.69 1157.67 1143.19 1175.44 1139.13C1201.13 1133.27 1233.13 1125.97 1263.39 1125.97C1294.32 1125.97 1317.75 1133.46 1335.03 1148.87C1350.23 1162.77 1358.12 1182.87 1365.74 1202.32C1374.78 1225.33 1383.29 1247.04 1402.87 1259.55Z" fill="#5D5D5D"/>
<path d="M594.032 171.019H591.663C586.696 188.414 583.218 207.472 581.155 228.403C577.573 264.799 574.411 312.477 581.871 358.436C587.307 391.928 598.216 406.868 617.236 406.868C617.236 406.868 617.236 406.868 617.246 406.868C629.387 406.868 643.506 400.984 659.851 394.163C671.209 389.425 682.95 384.534 695.502 380.98C696.706 380.636 697.9 380.312 699.113 379.987C734.85 370.405 775.135 369.058 817.874 375.975C829.347 377.828 840.963 381.038 852.207 384.142C868.59 388.67 885.537 393.351 902.741 394.106C912.075 394.517 918.714 393.571 923.414 391.23C937.141 384.4 930.464 367.31 923.395 349.227C919.22 338.528 914.893 327.475 914.186 317.55C910.412 264.894 939.845 216.882 978.744 171.019H975.773C937.17 216.805 908.148 264.827 911.941 317.721C912.676 327.981 917.061 339.206 921.303 350.058C928.276 367.893 934.294 383.302 922.411 389.215C918.121 391.355 911.626 392.234 902.846 391.851C885.9 391.106 869.077 386.464 852.809 381.964C841.508 378.84 829.825 375.621 818.237 373.739C775.182 366.766 734.583 368.141 698.531 377.799C697.298 378.124 696.104 378.458 694.891 378.802C682.205 382.394 670.397 387.314 658.982 392.071C642.866 398.796 628.948 404.595 617.255 404.604C599.563 404.604 589.342 390.256 584.116 358.073C576.703 312.372 579.846 264.885 583.419 228.622C585.473 207.587 588.998 188.453 594.032 171.019Z" fill="#5D5D5D"/>
<path d="M525.596 808.499C528.385 808.499 530.592 804.573 532.751 795.755C540.852 762.808 567.628 719.189 609.183 695.995C651.234 672.524 679.272 666.429 694.337 663.162C701.817 661.538 705.571 660.717 706.469 658.749C706.813 657.994 706.708 657.115 706.135 656.064C703.24 650.763 651.129 621.607 576.197 615.57L573.035 615.312C566.281 614.758 560.444 614.28 554.846 614.28C535.301 614.28 519.53 619.754 482.742 650.829C476.934 655.74 470.982 660.296 465.231 664.7C447.434 678.342 432.064 690.12 433.067 703.485C433.841 713.754 444.005 723.937 465.059 735.553C488.378 748.412 502.573 773.898 511.973 790.759C517.944 801.439 521.88 808.499 525.596 808.499ZM465.537 734.694C445.075 723.412 434.777 713.181 434.041 703.408C433.077 690.56 448.256 678.934 465.833 665.464C471.594 661.051 477.545 656.485 483.372 651.565C519.921 620.671 535.55 615.236 554.856 615.236C560.416 615.236 566.233 615.713 572.968 616.267L576.13 616.525C649.343 622.429 702.552 651.489 705.304 656.523C705.858 657.545 705.743 658.051 705.609 658.347C704.912 659.876 700.861 660.755 694.146 662.216C679.033 665.503 650.91 671.616 608.724 695.154C566.921 718.492 539.973 762.378 531.824 795.536C529.837 803.608 527.802 807.534 525.605 807.534C522.453 807.534 518.211 799.92 512.843 790.282C503.376 773.316 489.094 747.686 465.537 734.694Z" fill="#5D5D5D"/>
<path d="M531.7 863.924C534.499 863.924 536.438 860.562 537.804 853.33C546.192 808.89 564.361 745.937 625.079 712.349C643.841 701.966 665.029 693.741 689.857 687.197C694.853 685.879 700.202 682.277 705.371 678.8C712.067 674.291 718.983 669.629 725.374 669.629C726.11 669.629 726.845 669.696 727.543 669.811C731.125 670.451 733.8 672.514 736.379 674.511C739.293 676.765 742.044 678.895 745.836 678.895C747.269 678.895 748.74 678.59 750.317 677.969C753.03 676.899 754.443 674.797 755.81 672.763C757.739 669.887 759.554 667.184 765.038 667.652C770.483 668.11 773.415 672.266 776.53 676.66C778.708 679.736 780.953 682.917 784.134 684.684C786.465 685.974 790.658 687.369 794.365 687.369C796.954 687.369 798.788 686.681 799.819 685.334C800.794 684.044 800.966 682.22 800.316 679.899C798.205 672.285 781.879 665.178 771.084 660.478C767.894 659.092 765.143 657.889 763.366 656.953C747.288 648.441 731.249 641.219 717.675 635.287C660.463 610.258 608.314 594.983 558.257 588.602C552.621 587.886 547.739 587.532 543.316 587.532C518.67 587.532 499.555 598.317 461.516 633.682C452.182 642.356 442.582 649.817 433.287 657.019C412.49 673.164 396.06 685.917 396.451 701.966C396.766 714.623 407.762 728.121 431.052 744.428C468.556 770.679 493.46 810.543 509.939 836.918C520.113 853.187 526.819 863.924 531.7 863.924ZM431.625 743.645C408.602 727.529 397.741 714.279 397.435 701.956C397.053 686.394 413.312 673.775 433.898 657.803C443.203 650.581 452.822 643.111 462.184 634.408C500.013 599.234 518.966 588.516 543.326 588.516C547.701 588.516 552.544 588.86 558.142 589.577C608.113 595.948 660.167 611.195 717.293 636.185C730.848 642.117 746.868 649.32 762.917 657.822C764.722 658.777 767.493 659.99 770.693 661.385C781.325 666.018 797.393 673.011 799.38 680.176C799.944 682.191 799.829 683.739 799.036 684.77C797.995 686.136 795.922 686.423 794.355 686.423C790.983 686.423 786.894 685.133 784.592 683.853C781.602 682.191 779.415 679.106 777.303 676.116C774.199 671.731 770.998 667.193 765.104 666.697C759.029 666.162 756.994 669.266 754.997 672.237C753.66 674.234 752.39 676.116 749.954 677.08C748.482 677.663 747.136 677.94 745.827 677.94C742.369 677.94 739.742 675.915 736.962 673.766C734.277 671.693 731.517 669.553 727.696 668.875C726.941 668.741 726.148 668.674 725.355 668.674C718.668 668.674 711.628 673.422 704.817 678.007C699.476 681.599 694.433 685 689.599 686.27C664.695 692.833 643.43 701.087 624.592 711.509C563.511 745.288 545.256 808.527 536.83 853.158C535.588 859.759 533.897 862.959 531.681 862.959C527.335 862.959 520.39 851.83 510.76 836.431C494.253 809.979 469.282 770.01 431.625 743.645Z" fill="#5D5D5D"/>
<path d="M650.948 1268.95C673.015 1266.44 693.821 1251.27 703.947 1230.3C713.194 1211.16 718.19 1178.69 689.522 1132.71C677.209 1112.98 663.787 1093.04 650.805 1073.76C613.682 1018.65 578.624 966.588 564.142 914.363C547.768 855.288 560.922 806.559 605.524 761.002C644.146 721.558 695.206 698.928 745.598 698.928C783.465 698.928 817.244 712.244 840.725 736.442C866.527 763.027 879.414 801.907 878.009 848.888C877.684 859.797 877.169 871.07 876.615 882.992C874.666 925.406 872.45 973.476 879.299 1013.47C887.18 1059.46 905.865 1087.87 936.415 1100.33C952.77 1107 968.274 1110.37 982.498 1110.37C1008.36 1110.37 1030.37 1099.09 1046.15 1077.74C1072.98 1041.43 1079.41 979.246 1062.15 923.008C1025.11 802.347 936.1 730.309 804.491 653.189C704.52 594.611 620.083 576.527 543.727 565.704C538.034 564.901 532.617 564.491 527.612 564.491C495.724 564.491 480.545 580.731 461.334 601.288C453.95 609.179 446.327 617.347 436.85 625.677C425.941 635.268 416.445 641.114 408.058 646.263C394.607 654.536 382.991 661.672 370.21 680.777C344.837 718.712 378.788 741.982 414.726 766.619C433.717 779.639 453.357 793.099 463.875 809.024C529.99 909.185 503.309 1016.04 456.3 1082.64C442.859 1101.67 423.237 1119.64 402.46 1138.68C377.049 1161.95 350.779 1186.02 335.752 1212.88C329.285 1224.44 327.451 1232.29 330.135 1236.88C332.103 1240.23 336.45 1241.85 343.414 1241.85H343.423C355.823 1241.85 375.521 1236.71 398.333 1230.76C430.326 1222.42 470.142 1212.04 505.306 1212.04C523.943 1212.04 539.925 1215.01 552.793 1220.87C565.613 1226.7 576.465 1235.14 586.954 1243.3C604.206 1256.72 620.503 1269.38 643.535 1269.38C645.962 1269.38 648.455 1269.24 650.948 1268.95ZM553.204 1219.98C540.03 1213.98 524.364 1211.06 505.315 1211.06C470.018 1211.06 430.144 1221.47 398.094 1229.82C375.349 1235.75 355.699 1240.87 343.423 1240.88H343.414C336.813 1240.88 332.743 1239.41 330.967 1236.37C328.464 1232.11 330.307 1224.57 336.593 1213.34C351.543 1186.61 377.756 1162.6 403.11 1139.38C423.925 1120.31 443.585 1102.31 457.093 1083.19C484.652 1044.15 500.911 999.641 504.121 954.466C507.789 902.814 494.521 853.703 464.678 808.489C454.064 792.402 434.338 778.885 415.27 765.817C379.734 741.457 346.165 718.454 371.012 681.312C383.679 662.379 395.209 655.29 408.564 647.084C416.98 641.907 426.514 636.051 437.49 626.403C447.005 618.034 454.647 609.857 462.041 601.947C481.099 581.562 496.145 565.465 527.612 565.465C532.56 565.465 537.938 565.866 543.584 566.669C619.844 577.473 704.176 595.537 803.994 654.029C935.403 731.035 1024.26 802.939 1061.21 923.295C1078.39 979.255 1072.03 1041.09 1045.37 1077.17C1029.78 1098.26 1008.04 1109.41 982.498 1109.41C968.398 1109.41 953.018 1106.06 936.778 1099.44C906.563 1087.13 888.078 1058.95 880.254 1013.32C873.414 973.419 875.631 925.406 877.579 883.039C878.124 871.108 878.649 859.836 878.974 848.917C880.388 801.668 867.406 762.55 841.412 735.773C817.75 711.394 783.723 697.972 745.598 697.972C694.948 697.972 643.64 720.708 604.837 760.333C581.136 784.531 566.511 809.502 560.101 836.679C554.379 860.944 555.401 886.44 563.215 914.631C577.735 967.009 612.842 1019.13 650.002 1074.32C662.985 1093.58 676.397 1113.51 688.701 1133.24C717.14 1178.84 712.21 1210.97 703.078 1229.89C693.095 1250.57 672.585 1265.52 650.843 1268C648.388 1268.28 645.933 1268.42 643.545 1268.42C620.847 1268.42 604.684 1255.85 587.556 1242.53C577.028 1234.34 566.129 1225.86 553.204 1219.98Z" fill="#5D5D5D"/>
<path d="M1330.57 355.131C1305.34 355.131 1277.37 359.898 1247.74 364.951C1212.37 370.988 1175.79 377.226 1135.93 377.226C1132.98 377.226 1130.1 377.188 1127.34 377.121C1124.96 377.064 1122.62 376.997 1120.31 376.94C1114.28 376.777 1108.59 376.625 1103.1 376.625C1068.76 376.625 1047.5 383.627 1033.47 420.539C1024.62 443.877 1014.57 470.328 990.475 487.39C983.654 492.214 976.843 496.331 970.824 499.971C956.877 508.396 945.863 515.055 945.452 524.244C945.07 532.689 953.62 542.853 973.155 557.192C991.898 570.939 1007.32 577.626 1020.3 577.626C1021.47 577.626 1022.65 577.568 1023.79 577.463C1042.64 575.715 1055.29 560.134 1071.3 540.408C1078.58 531.447 1086.82 521.283 1096.5 511.606C1138.42 469.679 1189.94 439.1 1245.48 423.176C1268.9 416.46 1292.06 413.05 1314.29 413.05C1369.22 413.05 1411.58 432.919 1446.63 455.875V454.719C1411.57 431.83 1369.2 412.085 1314.29 412.085C1291.96 412.085 1268.72 415.505 1245.21 422.249C1189.51 438.221 1137.85 468.886 1095.81 510.928C1086.11 520.634 1077.84 530.817 1070.56 539.796C1054.69 559.342 1042.16 574.779 1023.72 576.489C1022.6 576.594 1021.45 576.642 1020.32 576.642C1007.55 576.642 992.318 570.022 973.748 556.39C954.499 542.261 946.073 532.355 946.436 524.264C946.828 515.59 957.642 509.055 971.34 500.773C977.368 497.134 984.208 492.997 991.048 488.154C1015.39 470.93 1025.49 444.326 1034.4 420.864C1048.21 384.477 1069.21 377.58 1103.12 377.58C1108.6 377.58 1114.28 377.733 1120.3 377.895C1122.61 377.962 1124.95 378.019 1127.33 378.077C1130.09 378.144 1132.98 378.182 1135.94 378.182C1175.88 378.182 1212.5 371.934 1247.91 365.887C1277.49 360.843 1305.42 356.076 1330.58 356.076C1345.16 356.076 1357.91 357.691 1369.55 361.015C1394.58 368.161 1420.19 379.882 1446.64 393.552V392.463C1420.3 378.86 1394.78 367.215 1369.82 360.089C1358.08 356.755 1345.25 355.131 1330.57 355.131Z" fill="#5D5D5D"/>
<path d="M549.936 719.371C571.927 679.316 612.097 665.34 644.643 657.631C647.767 656.895 648.063 655.29 647.958 654.402C647.194 647.877 616.73 635.382 571.239 635.382C566.109 635.382 560.855 635.545 555.639 635.86C534.853 637.121 485.847 666.104 468.241 687.56C463.665 693.129 461.592 697.772 462.079 701.335C463.292 710.238 471.231 714.193 480.421 718.769C490.136 723.612 501.16 729.096 506.519 741.887C509.643 749.338 513.741 753.111 518.708 753.111C527.143 753.111 537.652 741.763 549.936 719.371ZM508.009 741.266C502.411 727.921 491.11 722.294 481.137 717.326C472.358 712.951 464.773 709.178 463.674 701.115C463.254 698.049 465.26 693.712 469.483 688.582C486.897 667.375 535.254 638.707 555.725 637.474C560.913 637.159 566.128 636.997 571.23 636.997C615.937 636.997 645.732 649.368 646.344 654.584C646.439 655.415 645.083 655.864 644.261 656.055C611.39 663.84 570.809 677.978 548.513 718.587C530 752.338 516.081 760.505 508.009 741.266Z" fill="#5D5D5D"/>
<path d="M1184.65 1095.24C1186.95 1098.55 1192.57 1099.97 1203.46 1099.97C1210.26 1099.97 1218.38 1099.43 1227.78 1098.81C1239.41 1098.03 1252.59 1097.16 1266.24 1097.16C1309.41 1097.16 1338.5 1106.33 1357.91 1126.09C1375.96 1139.97 1385.91 1162.6 1394.69 1182.57C1405.36 1206.83 1414.58 1227.79 1434.94 1227.79C1437.1 1227.79 1439.38 1227.54 1441.72 1227.06C1443.28 1226.74 1444.93 1226.32 1446.63 1225.8V1224.11C1444.81 1224.69 1443.05 1225.14 1441.39 1225.49C1439.15 1225.95 1436.97 1226.19 1434.93 1226.19C1415.63 1226.19 1406.61 1205.68 1396.16 1181.93C1387.3 1161.78 1377.26 1138.95 1358.98 1124.9C1339.32 1104.87 1309.85 1095.55 1266.23 1095.55C1252.54 1095.55 1239.32 1096.43 1227.66 1097.21C1218.29 1097.83 1210.2 1098.38 1203.46 1098.38C1193.44 1098.38 1187.88 1097.09 1185.97 1094.34C1184.92 1092.83 1184.91 1090.78 1185.92 1088.09C1206.45 1033.19 1223.65 963.693 1221.99 942.295C1219.07 904.819 1202.6 869.407 1186.67 835.17C1167.18 793.3 1148.78 753.741 1160.48 720.765C1176.74 674.921 1250.98 595.346 1291.19 589.853C1293.11 589.595 1295.28 589.461 1297.62 589.461C1328.93 589.461 1384.11 611.882 1446.64 648.947V647.074C1384.18 610.153 1329.05 587.837 1297.62 587.837C1295.21 587.837 1292.97 587.971 1290.97 588.248C1250.31 593.789 1175.34 674.013 1158.96 720.211C1147.05 753.818 1165.58 793.663 1185.21 835.838C1201.09 869.951 1217.49 905.22 1220.38 942.41C1221.83 961.162 1206.44 1028.62 1184.41 1087.52C1183.19 1090.73 1183.27 1093.26 1184.65 1095.24Z" fill="#5D5D5D"/>
<path d="M713.93 263.376C718.257 263.376 723.273 262.726 729.253 261.398C735.204 260.08 740.831 258.828 745.922 258.141C754.558 256.975 762.926 256.498 770.358 256.068C778.832 255.58 786.455 253.297 793.648 249.094C823.701 231.526 836.263 195.589 840.266 180.954C841.231 177.429 842.186 174.162 843.132 171.019H842.119C841.202 174.085 840.266 177.266 839.33 180.696C835.356 195.216 822.909 230.867 793.151 248.253C786.092 252.38 778.612 254.616 770.234 255.093C762.84 255.523 754.453 256.001 745.779 257.176C740.64 257.864 735.003 259.125 729.033 260.443C723.12 261.752 718.171 262.392 713.92 262.392C706.784 262.392 701.817 260.557 698.722 256.794C694.146 251.215 693.496 241.232 696.668 225.374L697.184 222.786C701.492 200.957 708.886 184.144 720.55 171.009H719.27C707.826 184.164 700.508 200.919 696.229 222.595L695.713 225.183C692.474 241.347 693.191 251.587 697.967 257.405C701.263 261.427 706.479 263.376 713.93 263.376Z" fill="#5D5D5D"/>
<path d="M1330.57 377.398C1307.23 377.398 1280.16 382.012 1251.49 386.903C1215.2 393.093 1177.67 399.494 1135.93 399.494C1132.87 399.494 1129.83 399.465 1126.82 399.389L1119.72 399.207C1113.86 399.045 1108.32 398.901 1103.11 398.901C1057.89 398.901 1055.65 423.758 1053.28 450.076C1051.98 464.51 1050.63 479.441 1042.68 492.118C1039.84 496.646 1032.21 502.378 1024.14 508.444C1006.94 521.369 987.447 536.004 996.799 549.721C1000.82 555.625 1005.66 558.615 1011.2 558.615C1014.23 558.615 1017.52 557.717 1020.97 555.931C1036.22 548.069 1052.54 524.76 1065.65 506.036C1073.09 495.414 1079.51 486.233 1083.02 484.132C1086.7 481.935 1090.82 481.638 1094.35 481.638C1095.72 481.638 1097.1 481.686 1098.49 481.734C1099.9 481.782 1101.32 481.829 1102.73 481.829C1108.04 481.829 1113.66 481.189 1118.73 476.575C1124.84 471.006 1125.62 463.803 1126.35 456.83C1127.02 450.563 1127.65 444.64 1131.82 439.663C1144.4 424.627 1188.55 414.109 1217.77 407.155C1226.37 405.111 1233.8 403.343 1239.34 401.748C1264.76 394.459 1289.97 390.762 1314.29 390.762C1368.26 390.762 1411.42 408.454 1446.63 429.623V427.732C1411.39 406.668 1368.22 389.157 1314.29 389.157C1289.82 389.157 1264.45 392.874 1238.89 400.21C1233.38 401.786 1225.97 403.554 1217.39 405.598C1186.21 413.02 1143.51 423.185 1130.58 438.641C1126.1 444 1125.41 450.439 1124.74 456.677C1123.99 463.65 1123.3 470.242 1117.63 475.4C1112.97 479.642 1107.71 480.234 1102.71 480.234C1101.32 480.234 1099.92 480.186 1098.53 480.139C1097.12 480.091 1095.73 480.043 1094.33 480.043C1090.58 480.043 1086.19 480.368 1082.17 482.766C1078.36 485.039 1072.16 493.904 1064.3 505.129C1051.98 522.725 1035.11 546.827 1020.2 554.517C1011.12 559.198 1003.93 557.364 998.107 548.833C989.625 536.395 1008.46 522.238 1025.08 509.762C1033.64 503.333 1041.03 497.783 1044.03 492.997C1052.19 479.986 1053.55 464.864 1054.87 450.238C1057.27 423.567 1059.35 400.535 1103.09 400.535C1108.28 400.535 1113.8 400.688 1119.65 400.841L1126.76 401.022C1129.78 401.099 1132.84 401.127 1135.91 401.127C1177.8 401.127 1215.39 394.708 1251.76 388.508C1280.35 383.636 1307.35 379.031 1330.57 379.031C1342.98 379.031 1353.67 380.359 1363.24 383.091C1389.62 390.629 1417.48 404.012 1446.61 419.469V417.644C1417.67 402.312 1389.97 389.052 1363.68 381.544C1353.98 378.754 1343.15 377.398 1330.57 377.398Z" fill="#5D5D5D"/>
<path d="M720.149 229.31C722.633 234.125 727.982 236.57 736.054 236.57C738.156 236.57 740.477 236.398 742.942 236.064C752.409 234.793 761.235 234.278 769.088 233.829C771.419 233.695 773.578 233.341 775.689 232.749C778.029 232.09 780.227 231.144 782.414 229.864C799.867 219.662 820.511 189.618 821.189 171.019H819.575C818.858 188.873 798.339 218.687 781.602 228.469C779.539 229.673 777.456 230.571 775.249 231.192C773.253 231.756 771.209 232.09 768.935 232.224C761.121 232.673 752.256 233.188 742.732 234.469C731.574 235.968 724.362 233.962 721.582 228.565C717.818 221.257 722.298 207.167 733.265 191.787C739.226 183.428 747.288 176.645 757.921 171.019H754.549C744.977 176.483 737.573 182.979 731.956 190.85C720.454 206.966 716.041 221.343 720.149 229.31Z" fill="#5D5D5D"/>
<path d="M1233.39 1053.19C1239.4 1061.83 1252.08 1062.8 1269.63 1064.14C1271.53 1064.29 1273.5 1064.44 1275.5 1064.6C1281.05 1065.06 1286.86 1065.25 1293.01 1065.46C1321.55 1066.43 1353.9 1067.54 1383.11 1094.15L1383.46 1094.46C1399.66 1108.65 1409.3 1133.63 1417.8 1155.68C1426.37 1177.88 1433.76 1197.06 1445.52 1197.06C1445.89 1197.06 1446.26 1196.98 1446.63 1196.95V1195.97C1446.26 1196.01 1445.89 1196.09 1445.52 1196.09C1434.43 1196.09 1427.14 1177.19 1418.7 1155.32C1410.16 1133.17 1400.47 1108.08 1384.1 1093.74L1383.75 1093.42C1354.29 1066.58 1321.76 1065.47 1293.05 1064.49C1286.91 1064.28 1281.11 1064.08 1275.59 1063.63C1273.57 1063.46 1271.6 1063.31 1269.7 1063.17C1252.42 1061.84 1239.93 1060.88 1234.19 1052.63C1228.75 1044.81 1229.51 1030.17 1236.69 1005.17C1243.32 982.035 1245.77 960.895 1244.2 940.538C1240.98 899.05 1223.64 861.794 1206.87 825.742C1189.36 788.113 1172.83 752.576 1181.48 728.169C1195.89 687.541 1265.42 615.818 1294.22 611.892C1294.86 611.806 1295.96 611.701 1297.63 611.701C1321.68 611.701 1376.09 631.714 1446.65 674.931V673.794C1376.16 630.702 1321.75 610.736 1297.63 610.736C1295.91 610.736 1294.75 610.841 1294.08 610.937C1265.07 614.892 1195.06 687.006 1180.58 727.854C1171.8 752.634 1188.41 788.342 1206.02 826.181C1222.74 862.138 1240.04 899.308 1243.24 940.624C1244.82 960.866 1242.37 981.892 1235.77 1004.91C1228.4 1030.56 1227.69 1045 1233.39 1053.19Z" fill="#5D5D5D"/>
<path d="M644.796 1345.1C692.847 1339.63 750.078 1282.51 765.429 1238.87C792.072 1163.1 744.709 1102.09 698.913 1043.09C654.702 986.143 612.947 932.35 633.256 866.866C650.948 809.807 708.084 779.028 752.858 779.028C776.988 779.028 797.871 787.587 811.636 803.139C827.991 821.605 834.42 849.642 830.226 884.242C815.801 1003.14 811.502 1133.2 944.048 1171.52C959.266 1175.93 974.273 1178.15 988.679 1178.15C1044.48 1178.15 1080.1 1146.18 1100.15 1119.37C1138.6 1067.94 1151.95 991.034 1133.38 927.975C1117.61 874.499 1086.61 822.646 1038.58 769.446C967.204 690.368 869.985 622.371 741.385 561.577L735.825 558.94C681.727 533.348 625.776 506.887 566.883 492.299C563.387 491.43 559.527 490.408 555.401 489.309C537.203 484.476 514.553 478.457 495.132 478.457C487.356 478.457 480.612 479.46 475.109 481.428C466.722 484.428 462.003 490.169 457.436 495.729C454.026 499.865 450.511 504.155 445.467 507.221C442.19 509.208 435.828 511.673 429.093 514.271C418.203 518.484 406.931 522.83 403.358 527.014C396.48 535.077 398.371 539.93 400.205 544.63C401.524 548.002 402.766 551.193 401.151 555.921L399.881 559.666C390.099 588.439 390.099 588.439 367.563 594.954C363.207 596.215 357.791 597.782 351.371 599.826C332.801 605.749 325.177 614.843 317.822 623.641C312.157 630.414 306.807 636.805 296.729 641.983C296.462 641.954 296.156 641.954 295.831 641.954C284.196 641.954 196.071 647.753 189.308 669.428C187.483 675.265 191.447 681.608 201.086 688.276C213.161 696.625 222.313 697.59 228.14 697.59C230.987 697.59 233.556 697.341 236.04 697.103C238.17 696.892 240.176 696.701 242.087 696.701C249.175 696.701 256.349 698.707 266.189 722.953C268.606 728.923 270.478 733.805 272.026 737.864C279.639 757.801 279.897 758.069 299.251 766.341C304.047 768.395 310.017 770.936 317.621 774.442C342.535 785.934 347.646 798.983 354.103 815.51C357.523 824.241 361.392 834.138 368.719 845.257C376.562 857.17 385.771 866.751 394.684 876.027C410.465 892.458 425.377 907.981 430.125 933.898C438.35 978.787 413.971 1021.66 386.411 1061.3C373.047 1080.52 345.582 1102.91 316.504 1126.6C267.125 1166.82 211.155 1212.42 210.954 1254.65C210.84 1278.76 217.03 1297.27 229.363 1309.65C242.794 1323.14 263.199 1329.7 291.752 1329.7C333.154 1329.7 384.042 1315.73 428.95 1303.42C464.295 1293.72 494.826 1285.35 514.343 1285.35C518.756 1285.35 522.491 1285.8 525.462 1286.67C544.281 1292.27 559.203 1304.21 573.637 1315.76C592.79 1331.09 610.884 1345.56 636.753 1345.56C639.36 1345.57 642.073 1345.41 644.796 1345.1ZM526.064 1284.53C522.845 1283.57 519.004 1283.1 514.304 1283.1C494.482 1283.1 463.818 1291.51 428.31 1301.25C383.545 1313.53 332.81 1327.45 291.714 1327.46C263.791 1327.46 243.902 1321.11 230.92 1308.07C219.036 1296.13 213.065 1278.16 213.171 1254.68C213.362 1213.52 268.892 1168.28 317.889 1128.36C347.092 1104.57 374.68 1082.09 388.226 1062.61C416.063 1022.57 440.671 979.217 432.303 933.506C427.431 906.921 412.299 891.159 396.27 874.479C387.433 865.28 378.301 855.775 370.563 844.035C363.36 833.106 359.539 823.334 356.167 814.707C349.518 797.713 344.264 784.282 318.529 772.407C310.896 768.892 304.916 766.332 300.101 764.278C281.445 756.311 281.445 756.311 274.099 737.072C272.551 733.012 270.679 728.111 268.252 722.121C258.871 698.984 251.544 694.456 242.058 694.456C240.043 694.456 237.979 694.657 235.801 694.867C233.365 695.096 230.853 695.345 228.121 695.345C222.131 695.345 213.782 694.332 202.357 686.432C193.625 680.395 189.957 674.902 191.447 670.116C197.322 651.278 279.477 644.228 295.812 644.228C296.204 644.228 296.471 644.237 296.605 644.247L296.863 643.206L297.36 644.189C308.097 638.763 313.915 631.819 319.541 625.093C327.031 616.142 334.1 607.698 352.05 601.975C358.44 599.941 363.838 598.374 368.184 597.123C391.637 590.34 391.952 589.996 402.02 560.392L403.291 556.657C405.173 551.145 403.654 547.257 402.317 543.818C400.588 539.366 399.088 535.526 405.087 528.495C408.287 524.75 419.779 520.308 429.915 516.392C436.755 513.755 443.212 511.252 446.651 509.16C452.01 505.893 455.66 501.461 459.185 497.181C463.76 491.621 468.078 486.367 475.883 483.578C481.147 481.696 487.623 480.731 495.141 480.731C514.276 480.731 536.763 486.711 554.827 491.507C558.964 492.605 562.842 493.637 566.348 494.506C625.031 509.036 680.867 535.459 734.87 561.003L740.429 563.64C868.753 624.3 965.733 692.126 1036.91 770.984C1084.7 823.926 1115.55 875.492 1131.21 928.634C1149.6 991.043 1136.39 1067.16 1098.35 1118.04C1078.6 1144.44 1043.55 1175.92 988.679 1175.92C974.493 1175.92 959.686 1173.72 944.678 1169.38C813.833 1131.55 818.151 1002.52 832.461 884.539C836.741 849.279 830.121 820.621 813.327 801.658C799.122 785.619 777.638 776.792 752.848 776.792C707.262 776.792 649.095 808.135 631.088 866.226C610.435 932.828 654.502 989.601 697.117 1044.5C742.55 1103.02 789.521 1163.54 763.289 1238.15C748.148 1281.18 691.796 1337.5 644.529 1342.88C641.892 1343.18 639.265 1343.33 636.714 1343.33C611.638 1343.33 593.841 1329.1 575.013 1314.03C560.416 1302.33 545.313 1290.25 526.064 1284.53Z" fill="#5D5D5D"/>
<path d="M700.365 288.519C711.351 288.519 723.464 285.825 734.153 283.456C739.637 282.243 744.805 281.096 748.941 280.533C756.746 279.482 764.331 279.042 771.658 278.622C786.923 277.743 801.348 276.912 812.802 270.407C822.03 265.162 828.755 256.517 833.359 243.974C841.651 221.439 851.873 196.114 866.384 171.019H865.266C850.87 196.019 840.696 221.21 832.442 243.64C827.914 255.953 821.323 264.427 812.314 269.557C801.061 275.957 786.751 276.778 771.591 277.648C764.235 278.068 756.641 278.508 748.798 279.568C744.623 280.132 739.426 281.287 733.934 282.501C723.292 284.86 711.236 287.545 700.355 287.545C689.685 287.545 682.129 284.946 677.238 279.606C665.373 266.595 671.315 236.895 674.515 220.933L675.021 218.401C678.651 200.012 684.479 184.355 692.704 171H691.567C683.456 184.336 677.687 199.926 674.076 218.21L673.569 220.732C670.34 236.857 664.332 266.872 676.531 280.246C681.613 285.825 689.408 288.519 700.365 288.519Z" fill="#5D5D5D"/>
<path d="M950.257 171.019H948.031C944.019 175.289 940.59 179.196 937.982 182.74C902.388 231.135 886.597 275.814 889.711 319.317C890.925 336.245 888.852 347.441 883.359 353.555C879.863 357.452 874.876 359.344 868.122 359.344C858.732 359.344 847.154 355.761 834.907 351.969C823.778 348.53 812.276 344.967 801.424 343.782C793.266 342.894 785.089 342.454 776.415 342.454C749.065 342.454 723.072 346.81 695.55 351.415C690.927 352.189 686.284 352.972 681.622 353.727L681.269 353.784C671.611 355.35 660.673 357.137 650.012 357.137C629.875 357.137 616.978 350.459 610.597 336.713C597.271 308.007 600.996 273.454 604.283 242.961C604.732 238.854 605.161 234.784 605.563 230.782C607.76 208.504 611.6 188.692 617.284 171H615.574C609.957 188.673 606.145 208.438 603.958 230.629C603.566 234.622 603.127 238.682 602.687 242.79C599.382 273.483 595.628 308.274 609.135 337.391C615.803 351.768 629.177 358.751 650.012 358.751C660.797 358.751 671.811 356.955 681.527 355.379L681.88 355.322C686.551 354.558 691.194 353.784 695.818 353.01C723.263 348.415 749.189 344.069 776.415 344.069C785.022 344.069 793.142 344.498 801.243 345.387C811.942 346.552 823.377 350.087 834.429 353.507C846.8 357.337 858.493 360.948 868.122 360.948C875.363 360.948 880.741 358.875 884.563 354.624C890.352 348.167 892.568 336.579 891.316 319.193C888.24 276.1 903.926 231.775 939.281 183.696C942.061 179.913 945.844 175.671 950.257 171.019Z" fill="#5D5D5D"/>
<path d="M939.759 415.715C928.811 423.443 913.832 427.207 893.953 427.207C870.596 427.207 844.479 421.982 821.437 417.358C807.853 414.635 795.024 412.066 784.544 410.948C779.405 410.404 765.639 409.133 748.664 409.133C717.216 409.133 676.884 413.394 663.329 433.693C657.434 442.52 657.196 453.611 662.612 466.66C665.153 472.793 671.735 476.117 678.097 479.337C683.132 481.887 688.338 484.514 691.223 488.45C694.652 493.112 696.668 499.637 698.626 505.941C701.225 514.338 703.919 523.031 710.023 528.161C717.598 534.523 725.919 537.494 736.188 537.494C743.314 537.494 750.613 536.052 757.663 534.657C764.627 533.282 771.839 531.858 778.794 531.858C785.471 531.858 791.289 533.186 796.571 535.909C809.401 542.519 814.798 551.422 820.024 560.03C826.825 571.254 833.254 581.858 854.442 586.816C898.777 597.19 910.928 608.032 940.275 634.207C944.058 637.579 948.127 641.209 952.579 645.117C963.144 654.392 970.949 664.977 978.495 675.208C985.23 684.34 992.185 693.788 1001.15 702.405C1012.17 713.009 1022.54 717.728 1032.58 722.294C1045.97 728.379 1058.6 734.12 1070.06 753.799L1071.85 756.885C1086.26 781.818 1100.84 804.897 1109.8 804.897C1111.23 804.897 1112.48 804.334 1113.5 803.216C1116.72 799.681 1117.6 790.281 1116.17 774.49C1115.33 765.234 1108.64 756.961 1102.18 748.965C1095.2 740.339 1088.61 732.191 1089 723.182C1089.47 712.388 1096 707.076 1102.91 701.45C1107.97 697.332 1113.2 693.081 1116.27 686.48C1123.62 670.642 1125.41 656.456 1127.13 642.738C1129.53 623.642 1131.79 605.606 1148.88 585.211C1179.47 548.7 1222.37 521.13 1269.68 507.556C1285.44 503.037 1300.02 500.84 1314.27 500.84C1362.61 500.84 1397.29 527.139 1434.02 554.976C1438.18 558.128 1442.38 561.3 1446.62 564.462V561.644C1442.85 558.816 1439.1 555.989 1435.39 553.18C1398.35 525.104 1363.38 498.586 1314.28 498.586C1299.82 498.586 1285.03 500.812 1269.06 505.387C1221.32 519.077 1178.03 546.913 1147.15 583.768C1129.63 604.679 1127.33 623.03 1124.89 642.47C1123.19 656.016 1121.43 670.021 1114.22 685.544C1111.38 691.667 1106.35 695.756 1101.49 699.711C1094.5 705.404 1087.26 711.289 1086.75 723.096C1086.32 732.955 1093.48 741.82 1100.42 750.398C1106.68 758.136 1113.14 766.141 1113.93 774.71C1115.61 793.29 1113.72 799.643 1111.83 801.707C1111.25 802.347 1110.6 802.652 1109.8 802.652C1100.91 802.652 1081.91 769.8 1073.8 755.777L1072.01 752.681C1060.18 732.382 1047.23 726.488 1033.52 720.25C1023.65 715.76 1013.46 711.127 1002.72 700.79C993.904 692.298 986.997 682.936 980.32 673.88C972.706 663.544 964.825 652.864 954.078 643.426C949.636 639.519 945.567 635.898 941.794 632.526C912.132 606.074 899.857 595.127 854.968 584.618C834.706 579.88 828.516 569.668 821.963 558.855C816.575 549.98 811.015 540.8 797.613 533.893C792.005 530.998 785.844 529.594 778.803 529.594C771.619 529.594 764.302 531.037 757.233 532.441C750.288 533.817 743.104 535.23 736.198 535.23C726.482 535.23 718.63 532.431 711.484 526.432C705.886 521.723 703.298 513.364 700.795 505.273C698.789 498.786 696.706 492.071 693.057 487.103C689.857 482.738 684.402 479.986 679.129 477.321C672.853 474.15 666.93 471.15 664.704 465.791C659.593 453.487 659.765 443.103 665.21 434.945C678.212 415.476 717.77 411.387 748.664 411.387C765.534 411.387 779.214 412.648 784.306 413.193C794.68 414.301 807.462 416.861 820.988 419.565C844.135 424.198 870.367 429.452 893.943 429.452C914.3 429.452 929.709 425.554 941.048 417.549C969.296 397.574 961.195 367.454 953.362 338.327C944.994 307.214 936.339 275.03 971.14 254.033C975.314 251.511 980.884 250.241 987.714 250.241C1008.52 250.241 1037.84 261.618 1066.18 272.614C1090.87 282.195 1114.18 291.242 1129.35 291.605C1131.54 291.652 1133.71 291.681 1135.9 291.681C1135.91 291.681 1135.91 291.681 1135.92 291.681C1168.52 291.681 1201.49 286.054 1233.36 280.619C1265.18 275.193 1298.08 269.585 1330.57 269.585C1353.29 269.585 1373.81 272.289 1393.29 277.849C1411.3 282.988 1429.07 289.78 1446.62 297.546V295.082C1429.28 287.44 1411.72 280.762 1393.91 275.67C1374.23 270.053 1353.51 267.321 1330.57 267.321C1297.88 267.321 1264.89 272.948 1232.97 278.393C1201.19 283.809 1168.32 289.417 1135.91 289.417C1133.7 289.484 1131.57 289.398 1129.39 289.341C1114.62 288.997 1091.48 280.017 1066.98 270.502C1038.44 259.431 1008.93 247.977 987.704 247.977C980.358 247.977 974.56 249.324 969.965 252.094C933.712 273.97 942.586 306.985 951.174 338.91C959.17 368.61 966.717 396.657 939.759 415.715Z" fill="#5D5D5D"/>
<path d="M665.21 333.264C672.117 333.264 680.132 332.414 692.006 330.427C722.126 325.373 752.026 323.023 786.101 323.023C794.661 323.023 803.449 323.167 812.983 323.463C816.298 323.568 819.183 323.616 821.81 323.616C837.582 323.616 846.791 321.705 853.583 317.005C861.702 311.398 866.517 301.558 869.698 284.124C876.987 244.098 893.045 208.131 920.175 171.019H918.981C892.014 208.045 876.022 243.983 868.743 283.952C865.61 301.109 860.91 310.757 853.028 316.212C846.418 320.778 837.371 322.651 821.81 322.651C819.202 322.651 816.317 322.603 813.021 322.498C803.478 322.202 794.68 322.058 786.111 322.058C751.979 322.058 722.031 324.418 691.853 329.471C680.036 331.449 672.069 332.299 665.22 332.299C645.761 332.299 631.804 325.784 626.942 293.954C622.299 263.528 626.416 231.326 630.696 209.669C633.457 195.684 637.268 182.864 642.064 171.019H641.051C636.284 182.788 632.492 195.531 629.741 209.478C625.451 231.211 621.315 263.538 625.977 294.097C630.228 321.925 641.596 333.273 665.21 333.264Z" fill="#5D5D5D"/>
<path d="M678.527 309.009C681.555 309.009 684.832 308.713 688.271 308.14C713.92 303.841 741.385 301.31 769.89 300.612C776.539 300.45 782.92 300.612 789.025 300.775C793.123 300.88 796.992 300.985 800.765 300.985C812.372 300.985 824.389 300.087 833.675 293.581C841.374 288.184 846.848 279.233 850.421 266.203C860.126 230.858 874.064 199.572 892.759 171.019H891.612C873.032 199.515 859.162 230.714 849.485 265.945C845.969 278.736 840.619 287.515 833.111 292.779C824.045 299.132 812.2 300.011 800.756 300.011C796.992 300.011 793.132 299.905 789.044 299.8C782.93 299.648 776.539 299.476 769.862 299.638C741.308 300.335 713.806 302.876 688.109 307.185C673.359 309.659 662.383 306.698 655.533 298.377C639.953 279.424 648.34 236.895 652.849 214.045C656.002 198.082 660.701 183.81 666.93 171.019H665.831C659.67 183.772 655.027 197.986 651.894 213.854C647.356 236.857 638.902 279.682 654.779 298.988C660.253 305.637 668.239 309.009 678.527 309.009Z" fill="#5D5D5D"/>
<rect y="3" width="1441" height="633" fill="url(#paint0_linear_2_12443)"/>
</g>
<defs>
<linearGradient id="paint0_linear_2_12443" x1="720.5" y1="3" x2="734" y2="704" gradientUnits="userSpaceOnUse">
<stop offset="0.536458" stop-color="#F4E2E2"/>
<stop offset="1" stop-color="#F6E4E4" stop-opacity="0.67"/>
</linearGradient>
</defs>
</svg>
